<?xml version="1.0" encoding="utf-8"?>
<!-- Generator: Adobe Illustrator 23.0.1, SVG Export Plug-In . SVG Version: 6.00 Build 0)  -->
<svg version="1.1" id="Layer_1" xmlns="http://www.w3.org/2000/svg" xmlns:xlink="http://www.w3.org/1999/xlink" x="0px" y="0px"
	 viewBox="0 0 500 500" style="enable-background:new 0 0 500 500;" xml:space="preserve">
<style type="text/css">
	.st0{fill:#FDA226;}
	.st1{fill:#FAFAFA;}
	.st2{fill:#9B9B9B;}
	.st3{fill:#B3B3B3;}
	.st4{fill:#969696;}
	.st5{fill:#A2CAE3;}
	.st6{fill:#FFFFFF;}
	.st7{fill:#FBC39D;}
	.st8{fill:#1456A0;}
	.st9{fill:#F9AC7F;}
	.st10{fill:#1D1D1B;}
	.st11{fill:#565656;}
	.st12{fill:#ADADAD;}
	.st13{fill:#D3D2D1;}
</style>
<g id="OBJECTS">
	<g>
		<g>
			<g>
				<path class="st0" d="M454.9,280.9h-29.6c-0.5,0-0.9,0.4-0.9,0.9v22.4c0,6.6,5.3,11.8,11.8,11.8h7.8c6.6,0,11.8-5.3,11.8-11.8
					v-22.4C455.8,281.3,455.4,280.9,454.9,280.9z"/>
				<path class="st0" d="M451.3,312.3c6.7-3.8,18.2-14.9,16.2-22.7c-0.5-2.1-1.8-3.7-3.7-4.6c-4.4-2.1-10.7,0.4-11.5,0.7l2.1,4.4
					c1.6-0.6,5.2-1.7,7-0.8c0.3,0.2,0.7,0.4,0.9,1.4c1.1,4.6-7.8,14.2-13.9,17.5L451.3,312.3z"/>
			</g>
			<path class="st1" d="M239.1,299.2H83.8c-1.9,0-3.4-1.6-3.4-3.4v-90c0-1.9,1.6-3.4,3.4-3.4h155.3c1.9,0,3.4,1.6,3.4,3.4v90
				C242.6,297.7,241,299.2,239.1,299.2z"/>
			<path class="st2" d="M179.9,312c-0.6-1.6-0.8-3.2-0.8-4.9v-7.7h-17.4h-0.8h-15.6v7.7c0,1.7-0.2,3.3-0.8,4.9
				c-0.8,2.2-2.4,4.6-5.2,4.6h21.7h0.8h23.5C182.2,316.5,180.6,314.1,179.9,312z"/>
			<path class="st3" d="M493.1,326.9H5.6c-1.3,0-2.2-0.9-2.2-2.2v-6.1c0-1.3,0.9-2.2,2.2-2.2h487.5c1.3,0,2.2,0.9,2.2,2.2v6.1
				C495.2,325.8,494.3,326.9,493.1,326.9z"/>
			<rect x="87.6" y="326.9" class="st4" width="11.2" height="99.2"/>
			<rect x="392.9" y="326.9" class="st4" width="11.2" height="99.2"/>
			<path d="M239.1,283.8H83.8c-1.9,0-3.4-1.6-3.4-3.4v-90c0-1.9,1.6-3.4,3.4-3.4h155.3c1.9,0,3.4,1.6,3.4,3.4v90
				C242.6,282.2,241,283.8,239.1,283.8z"/>
			<rect x="86.6" y="192.2" class="st1" width="149.9" height="85.2"/>
			<path class="st1" d="M409.5,299.2H254.2c-1.9,0-3.4-1.6-3.4-3.4v-90c0-1.9,1.6-3.4,3.4-3.4h155.3c1.9,0,3.4,1.6,3.4,3.4v90
				C412.9,297.7,411.4,299.2,409.5,299.2z"/>
			<path class="st2" d="M350.1,312c-0.6-1.6-0.8-3.2-0.8-4.9v-7.7h-17.4H331h-15.6v7.7c0,1.7-0.2,3.3-0.8,4.9
				c-0.8,2.2-2.4,4.6-5.2,4.6H331h0.8h23.5C352.5,316.5,351,314.1,350.1,312z"/>
			<path d="M409.5,283.8H254.2c-1.9,0-3.4-1.6-3.4-3.4v-90c0-1.9,1.6-3.4,3.4-3.4h155.3c1.9,0,3.4,1.6,3.4,3.4v90
				C412.9,282.2,411.4,283.8,409.5,283.8z"/>
			<rect x="257" y="192.2" class="st5" width="149.9" height="85.2"/>
			<path class="st6" d="M439.2,272.3c1-0.3,2-0.9,2.8-1.6c0.8-0.6,1.6-1.5,2-2.3s0.3-1.8-0.1-2.4c-0.5-0.7-1.3-1.3-2.1-1.8
				c-0.8-0.5-1.8-0.9-2.8-1.3c-0.4-0.2-1-0.4-1.7-0.6c-0.6-0.2-1.1-0.5-1.7-0.8c-2.2-1.3-4.3-3-5.8-5.1c-1.6-2.1-2.9-4.6-3.7-7.2
				c-0.7-2.7-1-5.6-0.5-8.8c0.3-1.6,0.7-3.1,1.6-4.7c0.8-1.6,2-3.1,3.5-4.4c1.5-1.3,3.3-2.2,5.2-2.8c1.9-0.6,3.8-0.8,5.4-0.8h1.9
				c4.3-0.1,7.8,3.3,7.9,7.7c0.1,4.3-3.3,7.8-7.7,7.9c-1.3,0-2.5-0.3-3.5-0.8c-0.9-0.4-1.5-0.7-2-0.7c-0.6,0-1.6,0.5-2.2,1.7
				c-0.7,1.1-1.1,2.7-1.1,4.5c-0.1,1.7,0.2,3.5,0.8,5.2c0.6,1.7,1.7,3.3,3,4.7c0.3,0.3,0.7,0.6,1,0.9c0.4,0.3,0.7,0.6,1.3,0.9
				c0.9,0.7,1.9,1.5,2.8,2.3c0.8,0.9,1.7,1.9,2.2,3.2c0.2,0.6,0.3,1.4,0.2,2.1c-0.1,0.7-0.4,1.4-0.7,1.9c-0.7,1-1.7,1.8-2.6,2.4
				c-0.9,0.6-2,1.1-3,1.6c-0.2,0.1-0.5,0-0.6-0.2C438.9,272.7,439,272.4,439.2,272.3L439.2,272.3L439.2,272.3z"/>
			<g>
				<path class="st1" d="M376.4,266.7h-86.8c-3.7,0-6.6-2.9-6.6-6.6v-51.3c0-3.7,2.9-6.6,6.6-6.6h86.8c3.7,0,6.6,2.9,6.6,6.6v51.3
					C383,263.8,380.1,266.7,376.4,266.7z"/>
				<g>
					<rect x="318.4" y="228.5" class="st5" width="17.2" height="3.8"/>
					<rect x="342.5" y="245.3" class="st5" width="29.3" height="3.8"/>
					<rect x="357.1" y="253.8" class="st5" width="14.6" height="3.8"/>
					<rect x="318.4" y="245.3" class="st5" width="16.8" height="3.8"/>
					<rect x="318.4" y="237" class="st5" width="24.1" height="3.8"/>
					<rect x="318.4" y="253.8" class="st5" width="9.9" height="3.8"/>
					<polygon class="st5" points="335.2,257.4 350.3,257.4 350.3,257.4 350.3,253.8 335.2,253.8 					"/>
					<rect x="350.3" y="237" class="st5" width="14.3" height="3.8"/>
					<rect x="342.5" y="228.5" class="st5" width="14.6" height="3.8"/>
					<rect x="296.7" y="209.2" class="st5" width="5.5" height="3.8"/>
					<rect x="305.7" y="209.2" class="st5" width="5.5" height="3.8"/>
					<rect x="314.7" y="209.2" class="st5" width="5.5" height="3.8"/>
					<rect x="296.7" y="228.5" class="st5" width="6.8" height="3.8"/>
					<rect x="296.7" y="237" class="st5" width="6.8" height="3.8"/>
					<rect x="296.7" y="245.3" class="st5" width="6.8" height="3.8"/>
					<rect x="296.7" y="253.8" class="st5" width="6.8" height="3.8"/>
				</g>
			</g>
			<path d="M172.4,261.7c0.1,0.1,0.3,0,0.4-0.1l2.8-2.8l2.1,4.1c0.1,0.1,0.2,0.2,0.3,0.2s0.1,0,0.2,0l1.7-0.9c0.1,0,0.2-0.1,0.2-0.2
				c0-0.1,0-0.2,0-0.3l-2-3.8h3.8c0.2,0,0.3-0.1,0.4-0.3c0.1-0.2,0-0.3-0.1-0.4l-9.5-8.7c-0.1-0.1-0.3-0.1-0.4-0.1
				c-0.1,0.1-0.2,0.2-0.2,0.4v12.6C172.2,261.4,172.3,261.6,172.4,261.7z"/>
			<g>
				<rect x="101.1" y="210.7" class="st5" width="23.6" height="12"/>
				<rect x="130.5" y="210.7" class="st5" width="64.3" height="12"/>
				<rect x="101.1" y="228.5" class="st5" width="93.7" height="3.4"/>
				<rect x="101.1" y="237.9" class="st5" width="93.7" height="3.4"/>
				<rect x="101.1" y="247.2" class="st5" width="48.6" height="3.4"/>
				<rect x="101.1" y="256.6" class="st5" width="48.6" height="3.4"/>
			</g>
		</g>
		<g>
			<g>
				<path class="st7" d="M260.8,311.9l-85.8,5.5c-7.4,0.5-13.8-5.1-14.2-12.5l0,0c-0.5-7.4,5.1-13.8,12.5-14.2l85.8-5.5
					c4.5-0.3,8.3,3.1,8.7,7.6l0.6,10.4C268.8,307.7,265.3,311.6,260.8,311.9z"/>
				<path class="st8" d="M206.1,261l-42.5,29.8c-5.6,4-7.1,11.7-3.3,17.4l0,0c2.8,4.4,8.1,6.6,13.2,5.5c18.7-3.8,61.7-12.5,61.2-14
					c-0.3-1.1-5.1-18.2-9-31.8C223.4,259.4,213.4,255.8,206.1,261z"/>
				<path class="st7" d="M235,311.9l85.8,5.5c7.4,0.5,13.8-5.1,14.2-12.5l0,0c0.5-7.4-5.1-13.8-12.5-14.2l-85.8-5.5
					c-4.5-0.3-8.3,3.1-8.7,7.6l-0.6,10.4C227,307.7,230.4,311.6,235,311.9z"/>
				<path class="st8" d="M289.6,261l42.5,29.8c5.6,4,7.1,11.7,3.3,17.4l0,0c-2.8,4.4-8.1,6.6-13.2,5.5c-18.7-3.8-61.7-12.5-61.2-14
					c0.3-1.1,5.1-18.2,9-31.8C272.4,259.4,282.4,255.8,289.6,261z"/>
				<g>
					<path class="st9" d="M214.6,206.2c-4.6,0-8.3,3.9-8.3,8.7s3.8,8.7,8.3,8.7s8.3-3.9,8.3-8.7S219.2,206.2,214.6,206.2z"/>
					<path class="st9" d="M277.4,206.2c-4.6,0-8.3,3.9-8.3,8.7s3.8,8.7,8.3,8.7c4.6,0,8.3-3.9,8.3-8.7S282,206.2,277.4,206.2z"/>
					<path class="st7" d="M243.4,261.1L243.4,261.1c0.8,0.1,1.7,0.2,2.6,0.2l0,0c2.6,0,5.2-0.3,7.7-0.9c0,0,0,0,0-0.1
						c13.6-3.5,23.7-16.4,23.7-31.6v-38.2c0-18-14.1-15.1-31.3-15.1l0,0c-17.3,0-31.3-2.8-31.3,15.1v38.2
						C214.6,245.7,227.4,259.7,243.4,261.1z"/>
					<path class="st10" d="M271.1,216v10.3h-11.2c0,0-2.7-7.4-13.9-7.4s-13.9,7.4-13.9,7.4H221V216c0-4.1-3.8-5.4-6.4-5.8v18.5
						c0,17.1,12.6,31.1,28.8,32.4l-0.1,0.1c0.8,0.1,1.8,0.1,2.6,0.1s1.8,0,2.6-0.1l-0.1-0.1c16.1-1.4,28.8-15.3,28.8-32.4v-18.4
						C274.8,210.7,271.1,211.9,271.1,216z"/>
					<path class="st10" d="M269.1,162.7c-8.6-1.3-21.9-1.4-31.7,6.7c-0.2,0.2-0.4,0.4-0.6,0.6H229c-7.9,0-14.4,5.6-14.4,12.5v7.1
						v16.3v19.8c1.5,0,2.6-1.3,2.6-2.7v-27.9c0,0,0.5-8.9,8.6-8.9H244h0.2H265c8.6,0,9.6,7.7,9.7,8.8v28c0,1.6,1.1,2.7,2.6,2.7
						v-19.8v-16.3v-6.4l0.1-10.8C277.5,167.6,273.9,163.4,269.1,162.7z"/>
				</g>
				<rect x="216.3" y="181.7" class="st10" width="60.6" height="52.5"/>
			</g>
			<path class="st11" d="M263,425h-34.2c-23.9,0-43.3-21-43.3-46.7l10.8-93.6c3.8-24.9,26.8-41,50.3-41l0,0
				c23.7,0,46.9,16.4,50.4,41.7l9.5,92.8C306.3,404.1,287,425,263,425z"/>
			<path class="st12" d="M254.2,452.3h-16.1c-1.6,0-2.8-1.3-2.8-2.8V324.3c0-1.6,1.3-2.8,2.8-2.8h16.1c1.6,0,2.8,1.3,2.8,2.8v125.3
				C257,451,255.7,452.3,254.2,452.3z"/>
			<path d="M259.6,333h-27.9c-3,0-5.4-2.4-5.4-5.4v-12.3c0-3,2.4-5.4,5.4-5.4h27.9c3,0,5.4,2.4,5.4,5.4v12.3
				C265,330.5,262.6,333,259.6,333z"/>
		</g>
		<rect y="425" class="st13" width="500" height="75"/>
	</g>
</g>
<g id="DESIGNED_BY_FREEPIK">
</g>
</svg>
