<?xml version="1.0" encoding="utf-8"?>
<!-- Generator: Adobe Illustrator 23.0.1, SVG Export Plug-In . SVG Version: 6.00 Build 0)  -->
<svg version="1.1" id="Layer_1" xmlns="http://www.w3.org/2000/svg" xmlns:xlink="http://www.w3.org/1999/xlink" x="0px" y="0px"
	 viewBox="0 0 344.4 392" style="enable-background:new 0 0 344.4 392;" xml:space="preserve">
<style type="text/css">
	.st0{fill:#4BC1EB;}
	.st1{fill:#FFFFFF;}
	.st2{fill:#F8B05A;}
	.st3{fill:#F7CF78;}
	.st4{fill:#F6F0EB;}
	.st5{fill:#2760A7;}
	.st6{fill:#24599D;}
	.st7{fill:#E5771D;}
	.st8{fill:#DB6F10;}
	.st9{fill:#CE6614;}
	.st10{fill:#E5EEF9;}
	.st11{fill:#4B85C5;}
	.st12{fill:#E57E7E;}
	.st13{fill:#38B4E9;}
	.st14{fill:#31A4DE;}
	.st15{fill:#32597E;}
	.st16{fill:#AD5B2A;}
	.st17{fill:#EA926A;}
	.st18{fill:#FDFEFF;}
	.st19{fill:#4BC2F1;}
	.st20{fill:#E68143;}
	.st21{fill:#E9F2FA;}
</style>
<g>
	<path class="st0" d="M22.2,373.5c6.5,0,12.4,2.7,16.6,7.1c4.3-8.8,13.3-14.9,23.8-14.9c3.5,0,6.9,0.7,10,2
		c1.9-9.3,10.2-16.4,20.1-16.4c9.9,0,18.1,7,20.1,16.2c3.5-2.7,7.9-4.2,12.6-4.2c1.4,0,2.8,0.2,4.1,0.4l6.4-45.7
		c-2.8,0.7-5.5,1.9-7.7,3.7c-2-9.3-10.2-16.2-20.1-16.2c-9.9,0-18.2,7-20.1,16.4c-3.1-1.3-6.5-2-10-2c-10.5,0-19.5,6.1-23.8,14.9
		c-4.2-4.4-10.1-7.1-16.6-7.1c-12.7,0-23,10.3-23,23c0,2.1,0.3,4.2,0.8,6.1C6.2,362.3,0,372.4,0,384.1c0,1.7,0.1,3.4,0.4,5.1
		C3.5,380.1,12.1,373.5,22.2,373.5z"/>
	<path class="st0" d="M322.2,376.4c-6.5,0-12.4,2.7-16.6,7.1c-4.3-8.8-13.3-14.9-23.8-14.9c-3.5,0-6.9,0.7-10,2
		c-1.9-9.3-10.2-16.4-20.1-16.4c-9.9,0-18.1,7-20.1,16.2c-3.5-2.7-7.9-4.2-12.6-4.2c-1.4,0-2.8,0.2-4.1,0.4l-6.4-45.7
		c2.8,0.7,5.5,1.9,7.7,3.7c2-9.3,10.2-16.2,20.1-16.2c9.9,0,18.2,7,20.1,16.4c3.1-1.3,6.5-2,10-2c10.5,0,19.5,6.1,23.8,14.9
		c4.2-4.4,10.1-7.1,16.6-7.1c12.7,0,23,10.3,23,23c0,2.1-0.3,4.2-0.8,6.1c9.3,5.5,15.5,15.7,15.5,27.3c0,1.7-0.1,3.4-0.4,5.1
		C340.9,382.9,332.3,376.4,322.2,376.4z"/>
	<path class="st0" d="M143.5,317.6l8.5-107.5c0,0,0,0.1-0.1,0.1c0,0.1,0,0.1,0,0.1c0,0,0-0.1,0-0.1c0.1-0.7,0.6-4.9,1.9-9.2
		c0.2-0.7,0.4-1.4,0.6-2h-0.3h-1.5L135.9,318c1.6-0.4,3.2-0.6,4.9-0.6C141.8,317.5,142.7,317.5,143.5,317.6z"/>
	<path class="st0" d="M132.5,364.5c0.4-4.9,3.7-9,8.2-10.5l2.9-36.4c-0.9-0.1-1.8-0.2-2.7-0.2c-1.7,0-3.3,0.2-4.9,0.6l-6.4,45.7
		C130.5,363.9,131.5,364.2,132.5,364.5z"/>
	<path class="st0" d="M189.1,199.1h-0.7c0.2,0.6,0.4,1.2,0.6,2c1.3,4.3,1.8,8.5,1.9,9.2c0,0,0,0.1,0,0.1c0,0.1,0,0,0-0.1
		c0,0,0-0.1-0.1-0.1l8.1,103.1c2.3-1.7,4.9-3,7.7-3.7l-15.6-110.4l-0.7-0.7l0.2,0.7H189.1z"/>
	<path class="st0" d="M202.4,355.2c4.7,1.1,8.8,3.7,11.8,7.2l-7.5-52.9c-2.8,0.7-5.4,2-7.7,3.7L202.4,355.2z"/>
	<path class="st1" d="M171.1,366.2c0.6,0.2,1.2,0.4,1.7,0.6l-0.9-16.6L171.1,366.2z"/>
	<path class="st2" d="M158.2,199.1h-0.4l-0.8,0.9c0.1-0.3,0.2-0.6,0.3-0.9h-1h-1.9c-0.2,0.6-0.4,1.2-0.6,2c-1.3,4.3-1.8,8.5-1.9,9.2
		c0,0,0-0.1,0.1-0.1l0,0L158.2,199.1z"/>
	<path class="st2" d="M152,210.3C152,210.3,151.9,210.4,152,210.3C151.9,210.4,152,210.4,152,210.3z"/>
	<path class="st2" d="M185.5,199.1c0.1,0.3,0.2,0.6,0.3,0.9l-0.8-0.9h-0.4l6.2,11l0,0c0,0,0,0.1,0.1,0.1c-0.1-0.7-0.6-4.9-1.9-9.2
		c-0.2-0.7-0.4-1.4-0.6-2H187H185.5z"/>
	<path class="st2" d="M191,210.4C191,210.4,191,210.3,191,210.4C191,210.4,191,210.4,191,210.4z"/>
	<path class="st2" d="M153.4,218.3c-0.1,5.5,0.7,10.5,0.7,9.9c-0.1-0.7,1.8-5.3,1.8-5.3s0.6,6.6,2.9,12.6c1.2,3.2,2.2,5.5,2.9,6.9
		l0.3-7.6l-0.2,0.7c-0.1-0.4-0.3-0.7-0.4-1.1c-1.3-3.5-2.4-8-2.7-11.9l-1.1-11.5l-1.1,2.8c0.2-2.2,0.6-4.5,1-6.6l1.7-8.2h-0.9
		l-6.2,11l0,0c0.5-0.8,2.7-3.4,2.7-3.4S153.5,212.8,153.4,218.3z"/>
	<path class="st2" d="M184.7,199.1h-0.9l1.7,8.2c0.4,2.1,0.8,4.4,1,6.6l-1.1-2.8l-1.1,11.5c-0.4,3.8-1.4,8.3-2.7,11.9
		c-0.1,0.4-0.3,0.7-0.4,1.1l-0.2-0.7l0.3,7.6c0.7-1.4,1.7-3.8,2.9-6.9c2.3-6,2.9-12.6,2.9-12.6s1.9,4.7,1.8,5.3
		c-0.1,0.7,0.7-4.4,0.7-9.9c-0.1-5.5-1.3-11.6-1.3-11.6s2.3,2.6,2.7,3.4l0,0L184.7,199.1z"/>
	<path class="st2" d="M162.6,243.7c-0.1-0.8,1.6-6.6,1.6-6.6s0.6,5,2.4,10.6l-1.3-24.2l-3.3,11.3l-0.3,7.6
		C162.3,243.6,162.7,244.1,162.6,243.7z"/>
	<path class="st2" d="M177.5,243.5c0.9-3.7,1.2-6.4,1.2-6.4s1.7,5.7,1.6,6.6c-0.1,0.4,0.3-0.1,0.9-1.3l-0.3-7.6l-2.5-8.5
		L177.5,243.5z"/>
	<path class="st2" d="M171.5,259c0.8-1.5,1.8-3.6,3-6.3c1.4-3.1,2.4-6.4,3.1-9.1l0.9-17.2l-0.9-3l-1.5,13.5
		c-0.5,4.7-2.1,10.5-4.1,14.7c-0.2,0.4-0.3,0.7-0.5,1.1c-0.2-0.4-0.3-0.7-0.5-1.1c-2-4.3-3.5-10-4.1-14.7l-1.5-13.5l-0.1,0.2
		l1.3,24.2c0.5,1.6,1.2,3.3,1.9,5C169.7,255.4,170.7,257.4,171.5,259z"/>
	<path class="st3" d="M157.4,199.1c-0.1,0.3-0.2,0.6-0.3,0.9l0.8-0.9h0H157.4z"/>
	<path class="st3" d="M185.1,199.1l0.8,0.9c-0.1-0.3-0.2-0.6-0.3-0.9h-0.1H185.1z"/>
	<path class="st3" d="M162,223l-1.3-14.4c0-0.2,0-0.5,0-0.7l1.8-8.8h-1H160h-0.9l-1.7,8.2c-0.4,2.1-0.8,4.4-1,6.6l1.1-2.8l1.1,11.5
		c0.4,3.8,1.4,8.3,2.7,11.9c0.1,0.4,0.3,0.7,0.4,1.1l0.2-0.7l0.5-13.3L162,223z"/>
	<path class="st3" d="M181.8,199.1h-1.4l1.9,9.2l-1.4,14.7c0,0,0,0,0,0l-0.4-1.5l0.5,13.3l0.2,0.7c0.1-0.4,0.3-0.7,0.4-1.1
		c1.3-3.5,2.4-8,2.7-11.9l1.1-11.5l1.1,2.8c-0.2-2.2-0.6-4.5-1-6.6l-1.7-8.2h-0.5H181.8z"/>
	<polygon class="st3" points="164.8,213.5 162.4,221.5 162,234.8 165.3,223.5 	"/>
	<polygon class="st3" points="179,216.3 178.5,226.3 181,234.8 180.5,221.5 	"/>
	<path class="st3" d="M166.9,236.8c0.5,4.7,2.1,10.5,4.1,14.7c0.2,0.4,0.3,0.7,0.5,1.1c0.2-0.4,0.3-0.7,0.5-1.1
		c2-4.3,3.5-10,4.1-14.7l1.5-13.5l0.9,3l0.5-9.9l-2.8-9.6l-3.4,29.7c-0.2,2.1-0.7,4.4-1.3,6.6c-0.6-2.3-1.1-4.5-1.3-6.6l-3.4-29.7
		l-2,6.8l0.5,9.9l0.1-0.2L166.9,236.8z"/>
	<path class="st4" d="M164,199.6l0-0.5h-0.4h-1.1l-1.8,8.8c0,0.2,0,0.5,0,0.7L162,223l0.4-1.5l0.6-17.7L164,199.6z"/>
	<polygon class="st4" points="179.7,202.9 179.9,203.8 180.5,221.5 180.9,223 180.9,223 182.3,208.3 180.4,199.1 179.9,199.1 	"/>
	<polygon class="st4" points="164,199.6 164.2,199.1 164,199.1 	"/>
	<polygon class="st4" points="179.7,199.1 178.8,199.1 179.7,202.9 179.9,199.1 	"/>
	<polygon class="st4" points="163,203.8 162.4,221.5 164.8,213.5 164,199.6 	"/>
	<polygon class="st4" points="179.7,202.9 179,216.3 180.5,221.5 179.9,203.8 	"/>
	<path class="st4" d="M170.2,236.4c0.2,2.1,0.7,4.4,1.3,6.6c0.6-2.3,1.1-4.5,1.3-6.6l3.4-29.7l2.8,9.6l0.7-13.4l-0.9-3.8h-0.6H176
		h-1.5h-2.2h-0.2l-0.5,5.9v0l0,0l0,0v0l-0.5-5.9h-0.2h-2.2h-1.5h-2.2h-0.9l-0.1,0.5l0.7,13.9l2-6.8L170.2,236.4z"/>
	<path class="st5" d="M156.3,195.2c0,0,0.4-0.2,1-0.6c0.2-0.9,0.4-1.7,0.6-2.6c0.1-0.2,0.1-0.5,0.1-0.7h-1.9
		c-0.1,0.2-0.1,0.5-0.2,0.7c-0.4,1.7-0.9,3.5-1.3,5.4l0.8-0.8C156,195.5,156.3,195.2,156.3,195.2z"/>
	<path class="st5" d="M158.9,193.6l2.3-2.1c0,0,0-0.1,0-0.1h-1.9c0,0.2-0.1,0.5-0.1,0.7C159.1,192.5,159,193,158.9,193.6z"/>
	<path class="st5" d="M152.7,199.1c0.4-1.6,0.8-3.2,1.2-4.7L152.7,199.1z"/>
	<path class="st5" d="M184.1,192c0-0.2-0.1-0.5-0.1-0.7h-1.4l1.7,1.6C184.2,192.6,184.2,192.3,184.1,192z"/>
	<path class="st5" d="M154.8,191.4L154.8,191.4l-0.5,1.7c0.1-0.4,0.2-0.7,0.3-1.1C154.7,191.8,154.7,191.6,154.8,191.4z"/>
	<path class="st5" d="M185.9,194.4l2.6,2.3c-0.4-1.6-0.8-3.2-1.2-4.7c-0.1-0.2-0.1-0.5-0.2-0.7h-1.9c0.1,0.2,0.1,0.5,0.1,0.7
		C185.6,192.8,185.8,193.6,185.9,194.4z"/>
	<path class="st5" d="M188.7,192c0.5,2,1.1,4.1,1.7,6.4l0,0l-1.9-7.1h0C188.6,191.6,188.6,191.8,188.7,192z"/>
	<path class="st5" d="M161.2,192c0-0.2,0.1-0.4,0.1-0.6l-2.3,2.1c0,0.1,0,0.1,0,0.2c0.7-0.4,1.5-0.9,2.2-1.3
		C161.1,192.3,161.1,192.2,161.2,192z"/>
	<path class="st5" d="M154.6,197.4c-0.1,0.6-0.3,1.1-0.4,1.7h0.3c0.4-1.1,0.7-1.9,1-2.5L154.6,197.4z"/>
	<path class="st5" d="M162.9,191.4h-0.3c0,0,0,0,0,0L162.9,191.4C162.9,191.4,162.9,191.4,162.9,191.4z"/>
	<path class="st5" d="M182.2,192c0,0.2,0.1,0.5,0.1,0.7c0.7,0.4,1.5,0.9,2.2,1.3c-0.1-0.4-0.1-0.7-0.2-1.1l-1.7-1.6H182
		C182.1,191.6,182.1,191.8,182.2,192z"/>
	<path class="st5" d="M190.6,199.1l-0.2-0.7l0,0C190.5,198.7,190.5,198.9,190.6,199.1z"/>
	<path class="st5" d="M185.9,194.4c0,0.1,0.1,0.3,0.1,0.4c0.4,0.2,0.6,0.3,0.6,0.3s0.7,0.7,1.8,3.9h0.7c-0.2-0.8-0.4-1.6-0.6-2.4
		L185.9,194.4z"/>
	<path class="st5" d="M180.3,191.4L180.3,191.4l0.2,0.3c0.1,0.1,0.2,0.1,0.3,0.2c0-0.2,0-0.3-0.1-0.5L180.3,191.4L180.3,191.4z"/>
	<path class="st5" d="M180.3,191.4L180.3,191.4l-0.3,0c0,0,0,0,0,0L180.3,191.4z"/>
	<path class="st5" d="M162.6,191.4c0,0.1,0,0.2,0,0.2c0.1-0.1,0.2-0.2,0.3-0.2L162.6,191.4z"/>
	<path class="st5" d="M180.5,191.7l-0.2-0.3l-0.1,0l0,0.2C180.4,191.6,180.4,191.6,180.5,191.7z"/>
	<path class="st5" d="M180.3,191.5l0-0.2l-0.2,0C180.1,191.4,180.2,191.5,180.3,191.5z"/>
	<path class="st5" d="M156.3,195.2c0,0-0.3,0.3-0.9,1.5l1.8-1.6c0-0.2,0.1-0.3,0.1-0.4C156.7,195,156.3,195.2,156.3,195.2z"/>
	<path class="st5" d="M161.1,192.5c-0.7,0.4-1.5,0.9-2.2,1.3c-0.2,1.1-0.5,2.3-0.7,3.6c0,0,0,0,0,0c0.5-0.3,1-0.6,1.5-0.9l1-1.7
		C160.9,193.9,161,193.2,161.1,192.5z"/>
	<path class="st5" d="M157.2,195.1l-1.8,1.6c-0.3,0.6-0.6,1.4-1,2.5h1.9C156.7,197.7,156.9,196.4,157.2,195.1z"/>
	<path class="st5" d="M163.6,191.4L163.6,191.4l-0.7-0.1c0,0,0,0,0,0L163.6,191.4z"/>
	<polygon class="st5" points="157.9,199.1 158.2,199.1 158.8,198 	"/>
	<path class="st5" d="M180.8,192c0-0.1,0-0.1,0-0.2c-0.1-0.1-0.2-0.1-0.3-0.2l0.3,0.6C180.8,192.2,180.8,192.1,180.8,192z"/>
	<polygon class="st5" points="184.7,199.1 185.1,199.1 184.1,198 	"/>
	<path class="st5" d="M183.2,196.4c0.5,0.3,1,0.6,1.6,0.9c0.2,0.4,0.5,1,0.7,1.6c-0.3-1.7-0.6-3.3-0.9-4.8c-0.7-0.4-1.5-0.8-2.2-1.3
		c0.2,0.9,0.3,1.9,0.5,2.9L183.2,196.4z"/>
	<path class="st5" d="M186,194.9c0.3,1.4,0.6,2.8,0.9,4.3h1.5c-1.1-3.2-1.8-3.9-1.8-3.9S186.4,195.1,186,194.9z"/>
	<path class="st5" d="M178.8,191.5l1.2-0.1c0,0,0,0,0,0h-1.2C178.8,191.4,178.8,191.4,178.8,191.5z"/>
	<path class="st5" d="M163.6,191.4L163.6,191.4l0.9,0.1c0,0,0-0.1,0-0.1H163.6z"/>
	<path class="st5" d="M177.5,191.6c0-0.1,0-0.1,0-0.2h-0.6l0.1,0.2L177.5,191.6z"/>
	<path class="st5" d="M166,191.6l0.1-0.2h-0.2c0,0.1,0,0.1,0,0.2L166,191.6z"/>
	<polygon class="st5" points="158.8,198 158.2,199.1 159.1,199.1 159.5,197.3 	"/>
	<path class="st5" d="M159.7,196.4c0.3-0.1,0.5-0.3,0.8-0.4c0.1-0.4,0.1-0.9,0.2-1.3L159.7,196.4z"/>
	<path class="st5" d="M162.9,191.4c-0.1,0.1-0.2,0.1-0.3,0.2c0,0.2,0,0.3-0.1,0.4c-0.1,1-0.3,2-0.4,3.1c0.5-0.3,1.1-0.7,1.7-1
		l-0.1-2.7L162.9,191.4z"/>
	<path class="st5" d="M182.8,196.2c0.1,0.1,0.2,0.1,0.3,0.2l-0.4-0.8C182.8,195.8,182.8,196,182.8,196.2z"/>
	<path class="st5" d="M180.1,194.7c0.4,0.3,0.8,0.5,1.2,0.7c-0.2-1.1-0.3-2.1-0.4-3.1l-0.3-0.6c-0.1-0.1-0.2-0.1-0.3-0.2
		L180.1,194.7z"/>
	<polygon class="st5" points="183.4,197.3 183.8,199.1 184.7,199.1 184.1,198 	"/>
	<path class="st5" d="M165.8,191.6c0,0.2,0,0.3,0,0.5c0,0.3-0.1,0.5-0.1,0.8l0.3-1.3L165.8,191.6z"/>
	<path class="st5" d="M164.2,193.9c0.1-0.6,0.1-1.2,0.2-1.8c0-0.2,0-0.4,0.1-0.6l-0.9-0.1l0.1,2.7c0.1-0.1,0.2-0.1,0.3-0.2
		L164.2,193.9z"/>
	<path class="st5" d="M180,191.4l-1.2,0.1c0,0.2,0,0.4,0.1,0.6c0.1,0.7,0.1,1.3,0.2,2c0.3,0.2,0.7,0.4,1,0.6l0.2-3.1
		C180.2,191.5,180.1,191.4,180,191.4z"/>
	<path class="st5" d="M177.5,191.6l-0.6,0l0.6,2.3l0.2,0c-0.1-0.6-0.1-1.2-0.2-1.8C177.5,191.9,177.5,191.7,177.5,191.6z"/>
	<path class="st5" d="M176.9,191.6l-0.1-0.2h-1.3c0,0.1,0,0.2,0,0.3L176.9,191.6z"/>
	<path class="st5" d="M174.3,191.8c0-0.1,0-0.3,0-0.4h-1.3l0,0.5L174.3,191.8z"/>
	<path class="st5" d="M170.5,191.9l-0.1-0.6h-1.3c0,0.2,0,0.3,0,0.5L170.5,191.9z"/>
	<path class="st5" d="M167.7,191.7c0-0.1,0-0.2,0-0.4h-1.7l-0.1,0.2L167.7,191.7z"/>
	<path class="st5" d="M175.6,191.7c0,0.1,0,0.2,0,0.4c0,0.6,0.1,1.2,0.1,1.8l1.8,0.1l-0.6-2.3L175.6,191.7z"/>
	<path class="st5" d="M167.7,191.7l-1.7-0.1l-0.3,1.3c0,0.3-0.1,0.7-0.1,1l2-0.1c0-0.6,0.1-1.2,0.1-1.8
		C167.7,191.9,167.7,191.8,167.7,191.7z"/>
	<path class="st5" d="M174.3,191.8l-1.4,0.1l-0.2,1.8l1.6,0c0-0.6,0-1.2-0.1-1.7C174.3,192,174.3,191.9,174.3,191.8z"/>
	<path class="st5" d="M169.1,191.8c0,0.1,0,0.2,0,0.2c0,0.6,0,1.1-0.1,1.7l1.6,0l-0.2-1.8L169.1,191.8z"/>
	<path class="st5" d="M159.7,196.4c-0.5,0.3-1,0.6-1.5,0.9c0,0,0,0,0,0c-0.1,0.6-0.2,1.2-0.4,1.8h0l1-1.1L159.7,196.4z"/>
	<path class="st5" d="M185.4,198.8c-0.2-0.6-0.5-1.1-0.7-1.6c-0.5-0.3-1-0.6-1.6-0.9l0.9,1.6l1,1.1h0.4
		C185.5,199,185.4,198.9,185.4,198.8z"/>
	<path class="st5" d="M162.8,198.5c0.3-0.2,0.7-0.4,1-0.6c0-0.4,0.1-0.7,0.1-1.1l-0.1-2.8c-0.6,0.4-1.2,0.7-1.7,1
		c-0.2,1.3-0.4,2.6-0.6,4h1l0.1-0.5C162.7,198.6,162.7,198.5,162.8,198.5z"/>
	<path class="st5" d="M160.5,196c-0.3,0.1-0.5,0.3-0.8,0.4l-0.9,1.6l0.7-0.7l-0.4,1.9h0.9C160.2,198,160.3,197,160.5,196z"/>
	<path class="st5" d="M184.1,198l-0.9-1.6c-0.1-0.1-0.2-0.1-0.3-0.2c0.2,0.9,0.3,1.9,0.5,2.9h0.5l-0.4-1.9L184.1,198z"/>
	<path class="st5" d="M180.1,194.7l-0.2,3.7c0.1,0,0.1,0.1,0.2,0.1c0.1,0,0.1,0.1,0.2,0.1l0.1,0.5h1.4c-0.2-1.3-0.4-2.6-0.5-3.8
		C180.9,195.2,180.5,194.9,180.1,194.7z"/>
	<path class="st5" d="M179.6,198.2c0.1,0.1,0.2,0.1,0.4,0.2l0.2-3.7c-0.3-0.2-0.7-0.4-1-0.6C179.2,195.4,179.4,196.7,179.6,198.2z"
		/>
	<path class="st5" d="M177.9,195.4c0-0.5-0.1-1-0.1-1.5l-0.2,0L177.9,195.4z"/>
	<path class="st5" d="M164.1,193.9c-0.1,0.1-0.2,0.1-0.3,0.2l0.1,2.8c0.1-1,0.2-2,0.3-3L164.1,193.9z"/>
	<path class="st5" d="M165.6,193.8c-0.1,1.1-0.2,2.2-0.3,3.3l2.1-0.1c0.1-1.1,0.1-2.2,0.2-3.3L165.6,193.8z"/>
	<path class="st5" d="M172.7,193.7l-0.3,3.3l2.1,0.1c0-1.1-0.1-2.2-0.1-3.3L172.7,193.7z"/>
	<path class="st5" d="M177.5,193.9l-1.8-0.1c0.1,1.1,0.1,2.2,0.2,3.3l1.9,0.1c0.1,0,0.1,0.1,0.2,0.1c-0.1-0.6-0.1-1.3-0.2-1.9
		L177.5,193.9z"/>
	<path class="st5" d="M169,193.8c0,1.1-0.1,2.2-0.1,3.3l2.1-0.1l-0.3-3.3L169,193.8z"/>
	<path class="st5" d="M163.8,197.9c-0.3,0.2-0.7,0.4-1,0.6c-0.1,0-0.1,0.1-0.2,0.1l-0.1,0.5h1.1
		C163.7,198.7,163.7,198.3,163.8,197.9z"/>
	<path class="st5" d="M180.1,198.5c-0.1,0-0.1-0.1-0.2-0.1l0,0.8h0.6l-0.1-0.5C180.3,198.6,180.2,198.5,180.1,198.5z"/>
	<path class="st5" d="M179.7,199.1h0.2l0-0.8c-0.1-0.1-0.2-0.1-0.4-0.2C179.6,198.5,179.6,198.8,179.7,199.1z"/>
	<path class="st5" d="M172.4,197l0,0.3c0,0.6,0,1.2,0,1.8h2.2c0-0.7-0.1-1.4-0.1-2.1L172.4,197z"/>
	<path class="st5" d="M165.3,197.2c-0.1,0.6-0.1,1.3-0.2,2h2.2c0-0.7,0.1-1.4,0.1-2L165.3,197.2z"/>
	<path class="st5" d="M177.8,197.2l-1.9-0.1c0,0.7,0.1,1.3,0.1,2h2.2c-0.1-0.6-0.1-1.3-0.2-1.9C178,197.2,177.9,197.2,177.8,197.2z"
		/>
	<path class="st5" d="M170.9,197l-2.1,0.1c0,0.7-0.1,1.4-0.1,2.1h2.2c0-0.7,0-1.3,0-2L170.9,197z"/>
	<path class="st6" d="M154,194.5l0.4-1.4C154.2,193.5,154.1,194,154,194.5z"/>
	<path class="st6" d="M155.9,192c0.1-0.2,0.1-0.5,0.2-0.7h-1.3c-0.1,0.2-0.1,0.5-0.2,0.7c-0.1,0.3-0.2,0.7-0.3,1.1l-0.4,1.4
		c-0.4,1.5-0.8,3-1.2,4.7l1.9-1.7C155.1,195.5,155.5,193.7,155.9,192z"/>
	<path class="st6" d="M154.6,197.4l-1.9,1.7h1.5C154.3,198.6,154.5,198,154.6,197.4z"/>
	<path class="st6" d="M158.9,193.6c0.1-0.5,0.2-1,0.3-1.5c0-0.2,0.1-0.5,0.1-0.7H158c-0.1,0.2-0.1,0.5-0.1,0.7
		c-0.2,0.8-0.4,1.7-0.6,2.6c0.3-0.2,0.7-0.4,1.1-0.6L158.9,193.6z"/>
	<path class="st6" d="M158.4,194c0.2-0.1,0.3-0.2,0.5-0.3c0-0.1,0-0.1,0-0.2L158.4,194z"/>
	<path class="st6" d="M157.3,194.6c0,0.1-0.1,0.3-0.1,0.4l1.2-1C158,194.2,157.6,194.4,157.3,194.6z"/>
	<path class="st6" d="M158.9,193.8c-0.2,0.1-0.3,0.2-0.5,0.3l-1.2,1c-0.3,1.3-0.6,2.7-0.9,4.1h1c0.3-0.7,0.5-1.3,0.8-1.8
		C158.4,196.1,158.7,194.9,158.9,193.8z"/>
	<path class="st6" d="M158.2,197.3c-0.3,0.5-0.5,1.1-0.8,1.8h0.4C157.9,198.5,158.1,197.9,158.2,197.3z"/>
	<path class="st6" d="M161.4,191.4L161.4,191.4C161.3,191.4,161.3,191.4,161.4,191.4L161.4,191.4z"/>
	<path class="st6" d="M161.1,192.5c0.5-0.3,1-0.6,1.3-0.8l0.2-0.3l0,0c0,0,0,0,0,0h-1.2l-0.1,0.1c0,0.2-0.1,0.4-0.1,0.6
		C161.1,192.2,161.1,192.3,161.1,192.5z"/>
	<path class="st6" d="M162.6,191.4l-0.2,0.3c0.1,0,0.1-0.1,0.2-0.1C162.6,191.5,162.6,191.4,162.6,191.4L162.6,191.4z"/>
	<path class="st6" d="M160.7,194.7l1.7-3c-0.4,0.2-0.8,0.5-1.3,0.8C161,193.2,160.9,193.9,160.7,194.7z"/>
	<path class="st6" d="M162,195.1c0.2-1.1,0.3-2.1,0.4-3.1c0-0.2,0-0.3,0.1-0.4c-0.1,0-0.1,0.1-0.2,0.1l-1.7,3
		c-0.1,0.4-0.1,0.9-0.2,1.3c0.2-0.1,0.4-0.2,0.6-0.4C161.4,195.5,161.7,195.3,162,195.1z"/>
	<path class="st6" d="M161.1,195.6c-0.2,0.1-0.4,0.2-0.6,0.4c-0.2,1-0.3,2.1-0.5,3.2h1.5c0.2-1.4,0.4-2.7,0.6-4
		C161.7,195.3,161.4,195.5,161.1,195.6z"/>
	<path class="st6" d="M165.8,191.4h-1.3c0,0,0,0.1,0,0.1l1.3,0.1C165.8,191.5,165.8,191.4,165.8,191.4z"/>
	<path class="st6" d="M165.8,192c0-0.2,0-0.3,0-0.5l-1.3-0.1c0,0.2,0,0.4-0.1,0.6c-0.1,0.6-0.1,1.2-0.2,1.8l1.2,0l0.2-1
		C165.7,192.6,165.7,192.3,165.8,192z"/>
	<path class="st6" d="M165.7,192.9l-0.2,1l0.2,0C165.6,193.5,165.7,193.2,165.7,192.9z"/>
	<path class="st6" d="M163.9,196.9c0,0.3-0.1,0.7-0.1,1.1c0.1,0,0.1-0.1,0.2-0.1L163.9,196.9z"/>
	<path class="st6" d="M164.6,197.5l0.9-3.6l-1.2,0c-0.1,1-0.2,2-0.3,3l0.1,1C164.2,197.7,164.4,197.6,164.6,197.5z"/>
	<path class="st6" d="M165.4,193.9l-0.9,3.6c0.2-0.1,0.3-0.2,0.5-0.3l0.2,0c0.1-1.1,0.2-2.2,0.3-3.3L165.4,193.9z"/>
	<path class="st6" d="M163.8,197.9c0,0.4-0.1,0.8-0.1,1.2h0.4l-0.1-1.3C163.9,197.9,163.8,197.9,163.8,197.9z"/>
	<path class="st6" d="M163.9,197.8l0.1,1.3h0.1l0.4-1.7C164.4,197.6,164.2,197.7,163.9,197.8z"/>
	<path class="st6" d="M165.1,197.2c-0.2,0.1-0.3,0.2-0.5,0.3l-0.4,1.7h0.9c0.1-0.7,0.1-1.3,0.2-2L165.1,197.2z"/>
	<path class="st6" d="M169.1,191.8c0-0.2,0-0.3,0-0.5h-1.3c0,0.1,0,0.2,0,0.4L169.1,191.8z"/>
	<path class="st6" d="M169.1,191.8l-1.3-0.1c0,0.1,0,0.2,0,0.3c0,0.6-0.1,1.2-0.1,1.8l1.4,0c0-0.6,0-1.2,0.1-1.7
		C169,192,169,191.9,169.1,191.8z"/>
	<path class="st6" d="M167.6,193.8c-0.1,1.1-0.1,2.2-0.2,3.3l1.4,0c0-1.1,0.1-2.2,0.1-3.3L167.6,193.8z"/>
	<path class="st6" d="M167.4,197.1c0,0.7-0.1,1.3-0.1,2h1.5c0-0.7,0.1-1.4,0.1-2.1L167.4,197.1z"/>
	<path class="st6" d="M170.9,199.1h0.2l-0.2-2C170.9,197.8,170.9,198.5,170.9,199.1z"/>
	<path class="st6" d="M172.2,199.1h0.2c0-0.6,0-1.2,0-1.8L172.2,199.1z"/>
	<path class="st6" d="M175.6,191.7c0-0.1,0-0.2,0-0.3h-1.3c0,0.1,0,0.3,0,0.4L175.6,191.7z"/>
	<path class="st6" d="M175.6,191.7l-1.3,0.1c0,0.1,0,0.2,0,0.3c0,0.6,0,1.1,0.1,1.7l1.4,0c0-0.6-0.1-1.2-0.1-1.8
		C175.6,191.9,175.6,191.8,175.6,191.7z"/>
	<path class="st6" d="M174.3,193.8c0,1.1,0.1,2.2,0.1,3.3l1.4,0c-0.1-1.1-0.1-2.2-0.2-3.3L174.3,193.8z"/>
	<path class="st6" d="M174.5,197.1c0,0.7,0.1,1.4,0.1,2.1h1.5c0-0.7-0.1-1.4-0.1-2L174.5,197.1z"/>
	<path class="st6" d="M178.8,191.5c0,0,0-0.1,0-0.1h-1.3c0,0.1,0,0.1,0,0.2L178.8,191.5z"/>
	<path class="st6" d="M177.5,192c0.1,0.6,0.1,1.2,0.2,1.8l1.1,0c0.1,0.1,0.2,0.1,0.2,0.2c-0.1-0.7-0.2-1.4-0.2-2
		c0-0.2,0-0.4-0.1-0.6l-1.3,0.1C177.5,191.7,177.5,191.9,177.5,192z"/>
	<path class="st6" d="M178.9,193.9l-1.1,0c0,0.5,0.1,1,0.1,1.5l0.5,2.1c0.4,0.2,0.8,0.5,1.2,0.7c-0.2-1.4-0.3-2.8-0.5-4.1
		C179,194,178.9,193.9,178.9,193.9z"/>
	<path class="st6" d="M178,197.3c0.1,0.1,0.2,0.1,0.3,0.2l-0.5-2.1C177.9,196,178,196.6,178,197.3z"/>
	<path class="st6" d="M179.6,198.2c-0.4-0.2-0.8-0.5-1.2-0.7l0.4,1.7h0.9C179.6,198.8,179.6,198.5,179.6,198.2z"/>
	<path class="st6" d="M178,197.3c0.1,0.6,0.1,1.2,0.2,1.9h0.6l-0.4-1.7C178.2,197.4,178.1,197.3,178,197.3z"/>
	<path class="st6" d="M182.3,192.7c0-0.2-0.1-0.5-0.1-0.7c0-0.2-0.1-0.5-0.1-0.7h-1.3c0,0.2,0,0.3,0.1,0.5
		C181.2,192.1,181.7,192.4,182.3,192.7z"/>
	<path class="st6" d="M180.8,192c0,0.1,0,0.2,0,0.2l1.9,3.4c-0.2-1-0.3-2-0.5-2.9c-0.5-0.3-1-0.6-1.5-0.9
		C180.8,191.9,180.8,192,180.8,192z"/>
	<path class="st6" d="M180.9,192.3c0.1,1,0.3,2,0.4,3.1c0.2,0.1,0.3,0.2,0.5,0.3c0.4,0.2,0.7,0.4,1.1,0.6c0-0.2-0.1-0.4-0.1-0.6
		L180.9,192.3z"/>
	<path class="st6" d="M181.3,195.3c0.2,1.2,0.4,2.5,0.5,3.8h1.5c-0.2-1-0.3-2-0.5-2.9c-0.4-0.2-0.7-0.4-1.1-0.6
		C181.6,195.5,181.5,195.4,181.3,195.3z"/>
	<path class="st6" d="M184.3,192.9l1.7,1.5c-0.2-0.8-0.3-1.6-0.5-2.4c-0.1-0.2-0.1-0.5-0.1-0.7H184c0,0.2,0.1,0.5,0.1,0.7
		C184.2,192.3,184.2,192.6,184.3,192.9z"/>
	<path class="st6" d="M184.5,194c0.6,0.3,1.2,0.7,1.6,0.9c0-0.1-0.1-0.3-0.1-0.4l-1.7-1.5C184.3,193.3,184.4,193.6,184.5,194z"/>
	<path class="st6" d="M185.4,198.8c0,0.1,0.1,0.2,0.1,0.3h1.4c-0.3-1.5-0.6-2.9-0.9-4.3c-0.4-0.2-0.9-0.5-1.6-0.9
		C184.8,195.5,185.1,197.1,185.4,198.8z"/>
	<path class="st6" d="M185.5,199.1L185.5,199.1c0-0.1,0-0.2-0.1-0.3C185.4,198.9,185.5,199,185.5,199.1z"/>
	<path class="st6" d="M187.4,192c0.4,1.5,0.8,3.1,1.2,4.7l1.9,1.7c-0.6-2.3-1.2-4.4-1.7-6.4c-0.1-0.2-0.1-0.5-0.2-0.7h-1.3
		C187.3,191.6,187.3,191.8,187.4,192z"/>
	<path class="st6" d="M189.1,199.1h1.5c-0.1-0.2-0.1-0.4-0.2-0.7l-1.9-1.7C188.7,197.5,188.9,198.3,189.1,199.1z"/>
	<path class="st7" d="M149.7,180.6c0.7,1.5,1.3,2.9,2.1,4.4l0,0C151.1,183.5,150.4,182.1,149.7,180.6z"/>
	<path class="st7" d="M149.2,179.4c-0.6-1.4-1.2-2.9-1.8-4.4C148,176.6,148.6,178,149.2,179.4z"/>
	<path class="st7" d="M146.1,171.4c0.4,1.2,0.9,2.3,1.3,3.5c-2-5.1-3.6-10.3-5-15.7c-7.5,5.2-21.8,15-23,16.9c-1.6,2.5-4,29-4,29
		l11-25.9C126.3,179.2,137.9,174.6,146.1,171.4z M117.3,193.3l2.9-16.9l21.9-15.2l1.3,5.6l-20.8,11.7L117.3,193.3z"/>
	<path class="st8" d="M151.8,185c-0.7-1.4-1.4-2.9-2.1-4.4c-0.2-0.4-0.3-0.7-0.5-1.1c-0.6-1.4-1.2-2.9-1.8-4.4c0,0,0-0.1-0.1-0.1
		c-0.5-1.2-0.9-2.3-1.3-3.5c-8.2,3.2-19.8,7.8-19.8,7.8l1.1,10.8L151.8,185L151.8,185L151.8,185z"/>
	<polygon class="st9" points="115.3,205 127.4,190 126.3,179.2 	"/>
	<path class="st7" d="M191.5,185c0.7-1.4,1.4-2.9,2.1-4.4C192.9,182.1,192.3,183.5,191.5,185z"/>
	<path class="st7" d="M194.1,179.4c0.6-1.4,1.2-2.9,1.8-4.4C195.3,176.6,194.7,178,194.1,179.4z"/>
	<path class="st7" d="M197.3,171.4c8.2,3.2,19.8,7.8,19.8,7.8l11,25.9c0,0-2.5-26.5-4-29c-1.2-1.8-15.5-11.7-23-16.9
		c-1.4,5.4-3,10.7-5,15.7C196.4,173.8,196.8,172.6,197.3,171.4z"/>
	<path class="st8" d="M197.3,171.4c-0.4,1.2-0.9,2.3-1.3,3.5c0,0,0,0.1-0.1,0.1c-0.6,1.5-1.2,2.9-1.8,4.4c-0.2,0.4-0.3,0.8-0.5,1.1
		c-0.7,1.5-1.3,2.9-2.1,4.4l24.4,5l1.1-10.8C217,179.2,205.4,174.6,197.3,171.4z"/>
	<polygon class="st9" points="215.9,190 228,205 217,179.2 	"/>
	<path class="st10" d="M152,44.6c0.1-0.3,0.2-0.5,0.3-0.8C152.3,44.1,152.1,44.4,152,44.6z"/>
	<path class="st10" d="M149.7,50.4c0.1-0.4,0.3-0.7,0.4-1.1C150,49.6,149.9,50,149.7,50.4z"/>
	<path class="st10" d="M146,61.3c0.1-0.4,0.2-0.8,0.4-1.2C146.2,60.5,146.1,60.9,146,61.3z"/>
	<path class="st10" d="M147.9,55.3c0.1-0.2,0.1-0.3,0.2-0.5C148.1,54.9,148,55.1,147.9,55.3z"/>
	<path class="st10" d="M144.4,66.5c0.1-0.3,0.2-0.6,0.3-0.9C144.6,65.9,144.5,66.2,144.4,66.5z"/>
	<path class="st10" d="M162.1,24.8c0.2-0.3,0.4-0.6,0.6-0.9C162.5,24.2,162.3,24.5,162.1,24.8z"/>
	<path class="st10" d="M190.9,43.8c0.1,0.3,0.2,0.5,0.3,0.8C191.2,44.4,191.1,44.1,190.9,43.8z"/>
	<path class="st10" d="M193.2,49.3c0.1,0.4,0.3,0.7,0.4,1.1C193.4,50,193.3,49.6,193.2,49.3z"/>
	<path class="st10" d="M195.2,54.7c0.1,0.2,0.1,0.4,0.2,0.5C195.3,55.1,195.3,54.9,195.2,54.7z"/>
	<path class="st10" d="M197,60.1c0.1,0.4,0.2,0.8,0.4,1.2C197.2,60.9,197.1,60.5,197,60.1z"/>
	<path class="st10" d="M186.1,33.5c0.2,0.3,0.3,0.6,0.5,0.9C186.4,34.1,186.2,33.8,186.1,33.5z"/>
	<path class="st10" d="M188.7,38.9c0.1,0.3,0.3,0.6,0.4,1C189,39.5,188.9,39.2,188.7,38.9z"/>
	<path class="st10" d="M154.2,39.8c0.1-0.3,0.3-0.6,0.4-0.9C154.5,39.2,154.3,39.5,154.2,39.8z"/>
	<path class="st10" d="M198.6,65.6c0.1,0.3,0.2,0.6,0.3,0.9C198.8,66.2,198.7,65.9,198.6,65.6z"/>
	<path class="st10" d="M180.6,23.9c0.2,0.3,0.4,0.6,0.6,0.9C181,24.5,180.8,24.2,180.6,23.9z"/>
	<path class="st10" d="M174.6,14.8c0.2,0.3,0.4,0.6,0.7,0.9C175,15.4,174.8,15.1,174.6,14.8z"/>
	<path class="st10" d="M156.8,34.4c0.2-0.3,0.3-0.6,0.5-0.9C157.1,33.8,156.9,34.1,156.8,34.4z"/>
	<path class="st10" d="M177.9,19.7c0.1,0.1,0.2,0.3,0.3,0.4C178.1,20,178,19.8,177.9,19.7z"/>
	<path class="st10" d="M159.3,29.7c0.1-0.2,0.3-0.5,0.4-0.7C159.6,29.2,159.4,29.5,159.3,29.7z"/>
	<path class="st10" d="M168.1,15.7c0.2-0.3,0.4-0.6,0.7-0.9C168.5,15.1,168.3,15.4,168.1,15.7z"/>
	<path class="st10" d="M140.9,110.6c0.2-18.3,4.9-39.9,4.9-39.9c5.9-0.4,11.6-0.9,17.6-0.9l0.2,13.4c-18.9,9.2-16.4,38.7-0.7,42.3
		l0,47.6l-12,0.4c-0.5-0.4-1-1-1.4-1.8l2.2,13.3h4.7l0.8-2.9h5.9l-0.5-8.6l6.6,6l-0.8-8.4l3.1-11.9v0l0,0l0,0v0l3.1,11.9L174,180
		l7.3-6.5l-0.5,8.6h5.3l0.8,2.9h4.7v0h0l4.8-28.9c0.2,0.1,2,1.4,4.6,3.2c7.4-29.1,6.3-62.3-2-92.4h-54.6c-8.3,30.1-9.4,63.3-2,92.4
		c1.2-0.8,2.2-1.5,3-2.1C142.3,140.5,140.9,116.8,140.9,110.6z M191.2,104.8c0,10.7-8.8,19.5-19.5,19.5c-10.7,0-19.5-8.8-19.5-19.5
		c0-10.7,8.8-19.5,19.5-19.5C182.4,85.3,191.2,94.1,191.2,104.8z"/>
	<path class="st10" d="M165.1,20.1c0.1-0.1,0.2-0.3,0.3-0.4C165.3,19.8,165.2,20,165.1,20.1z"/>
	<path class="st10" d="M183.6,29c0.1,0.2,0.3,0.5,0.4,0.7C183.9,29.5,183.8,29.2,183.6,29z"/>
	<polygon class="st10" points="180.8,182.1 181.2,173.5 174,180 173.8,182.1 	"/>
	<polygon class="st10" points="169.3,179.4 162.7,173.5 163.1,182.1 169.6,182.1 	"/>
	<polygon class="st10" points="163.1,182.1 157.3,182.1 156.5,185 163.3,185 	"/>
	<polygon class="st10" points="186.8,185 186.1,182.1 180.8,182.1 180.6,185 	"/>
	<polygon class="st10" points="173.7,183.4 175.4,185 180.6,185 180.8,182.1 173.8,182.1 	"/>
	<polygon class="st10" points="168.4,185 169.7,183.8 169.6,182.1 163.1,182.1 163.3,185 	"/>
	<polygon class="st10" points="175.4,185 173.7,183.4 173.5,185 	"/>
	<polygon class="st10" points="169.7,183.8 168.4,185 169.8,185 	"/>
	<path class="st10" d="M147.4,175.1c0.6,1.5,1.2,2.9,1.8,4.4c0.2,0.4,0.3,0.8,0.5,1.1c0.7,1.5,1.3,2.9,2.1,4.4h0l-2.2-13.3
		c-1.6-2.9-3-8.2-4.2-14.5c-0.8,0.5-1.8,1.2-3,2.1c1.4,5.4,3,10.7,5,15.7C147.4,175,147.4,175,147.4,175.1z"/>
	<path class="st10" d="M147.4,175.1c0,0,0-0.1-0.1-0.1C147.4,175,147.4,175,147.4,175.1z"/>
	<path class="st10" d="M149.7,180.6c-0.2-0.4-0.3-0.7-0.5-1.1C149.4,179.8,149.6,180.2,149.7,180.6z"/>
	<path class="st10" d="M191.5,185c0.7-1.4,1.4-2.9,2.1-4.4c0.2-0.4,0.3-0.7,0.5-1.1c0.6-1.4,1.2-2.9,1.8-4.4c0,0,0-0.1,0.1-0.1
		c2-5.1,3.6-10.3,5-15.7c-2.6-1.8-4.4-3-4.6-3.2L191.5,185z"/>
	<path class="st10" d="M193.6,180.6c0.2-0.4,0.3-0.7,0.5-1.1C193.9,179.8,193.8,180.2,193.6,180.6z"/>
	<path class="st10" d="M195.9,175.1c0,0,0-0.1,0.1-0.1C195.9,175,195.9,175,195.9,175.1z"/>
	<path class="st7" d="M159.7,29c0.8-1.4,1.6-2.8,2.4-4.2C161.3,26.2,160.5,27.6,159.7,29z"/>
	<path class="st7" d="M146.3,60.1c0.5-1.6,1-3.3,1.6-4.9C147.4,56.9,146.8,58.5,146.3,60.1z"/>
	<path class="st7" d="M157.2,33.5c0.7-1.3,1.3-2.6,2-3.8C158.6,31,157.9,32.3,157.2,33.5z"/>
	<path class="st7" d="M150.2,49.3c0.6-1.6,1.2-3.1,1.9-4.6C151.4,46.2,150.8,47.7,150.2,49.3z"/>
	<path class="st7" d="M148.1,54.8c0.5-1.5,1.1-2.9,1.6-4.4C149.2,51.8,148.6,53.3,148.1,54.8z"/>
	<path class="st7" d="M152.4,43.9c0.6-1.4,1.2-2.7,1.8-4C153.6,41.2,153,42.5,152.4,43.9z"/>
	<path class="st7" d="M154.6,38.9c0.7-1.5,1.4-3,2.2-4.4C156,35.9,155.3,37.4,154.6,38.9z"/>
	<path class="st7" d="M146,61.3c-0.1,0.4-0.3,0.9-0.4,1.3h0C145.7,62.2,145.8,61.8,146,61.3z"/>
	<path class="st7" d="M181.2,24.8c0.8,1.4,1.6,2.8,2.4,4.2C182.8,27.6,182,26.2,181.2,24.8z"/>
	<path class="st7" d="M184,29.7c0.7,1.3,1.4,2.5,2,3.8C185.4,32.3,184.7,31,184,29.7z"/>
	<path class="st7" d="M189.1,39.8c0.6,1.3,1.2,2.7,1.8,4C190.4,42.5,189.8,41.2,189.1,39.8z"/>
	<path class="st7" d="M186.5,34.5c0.7,1.5,1.5,2.9,2.2,4.4C188,37.4,187.3,35.9,186.5,34.5z"/>
	<path class="st7" d="M162.7,23.9c0.8-1.3,1.6-2.5,2.4-3.7C164.3,21.3,163.5,22.6,162.7,23.9z"/>
	<path class="st7" d="M178.2,20.1c0.8,1.2,1.6,2.5,2.4,3.7C179.8,22.6,179,21.3,178.2,20.1z"/>
	<path class="st7" d="M175.2,15.8c0.9,1.3,1.8,2.6,2.7,3.9C177.1,18.3,176.1,17,175.2,15.8z"/>
	<path class="st7" d="M171.7,11c1,1.2,1.9,2.5,2.9,3.8C173.6,13.6,172.6,12.3,171.7,11z"/>
	<path class="st7" d="M197.8,62.6c-0.1-0.4-0.3-0.9-0.4-1.3C197.5,61.8,197.6,62.2,197.8,62.6L197.8,62.6z"/>
	<path class="st7" d="M165.4,19.7c0.9-1.3,1.8-2.6,2.7-3.9C167.2,17,166.3,18.3,165.4,19.7z"/>
	<path class="st7" d="M191.3,44.6c0.6,1.5,1.3,3.1,1.9,4.6C192.6,47.7,191.9,46.2,191.3,44.6z"/>
	<path class="st7" d="M195.4,55.3c0.6,1.6,1.1,3.2,1.6,4.8C196.5,58.5,195.9,56.9,195.4,55.3z"/>
	<path class="st7" d="M193.6,50.4c0.6,1.4,1.1,2.9,1.6,4.4C194.7,53.3,194.1,51.8,193.6,50.4z"/>
	<path class="st7" d="M168.8,14.8c0.9-1.3,1.9-2.6,2.9-3.8C170.7,12.3,169.7,13.6,168.8,14.8z"/>
	<path class="st7" d="M197.8,62.6c-0.1-0.4-0.3-0.9-0.4-1.3c-0.1-0.4-0.2-0.8-0.4-1.2c-0.5-1.6-1-3.2-1.6-4.8
		c-0.1-0.2-0.1-0.4-0.2-0.5c-0.5-1.5-1.1-2.9-1.6-4.4c-0.1-0.4-0.3-0.7-0.4-1.1c-0.6-1.6-1.2-3.1-1.9-4.6c-0.1-0.3-0.2-0.5-0.3-0.8
		c-0.6-1.4-1.2-2.7-1.8-4c-0.1-0.3-0.3-0.6-0.4-1c-0.7-1.5-1.4-3-2.2-4.4c-0.2-0.3-0.3-0.6-0.5-0.9c-0.7-1.3-1.3-2.6-2-3.8
		c-0.1-0.2-0.3-0.5-0.4-0.7c-0.8-1.4-1.6-2.8-2.4-4.2c-0.2-0.3-0.4-0.6-0.6-0.9c-0.8-1.3-1.6-2.5-2.4-3.7c-0.1-0.1-0.2-0.3-0.3-0.4
		c-0.9-1.3-1.8-2.6-2.7-3.9c-0.2-0.3-0.4-0.6-0.7-0.9c-0.9-1.3-1.9-2.6-2.9-3.8c-1,1.2-1.9,2.5-2.9,3.8c-0.2,0.3-0.4,0.6-0.7,0.9
		c-0.9,1.3-1.8,2.6-2.7,3.9c-0.1,0.1-0.2,0.3-0.3,0.4c-0.8,1.2-1.6,2.5-2.4,3.7c-0.2,0.3-0.4,0.6-0.6,0.9c-0.8,1.4-1.6,2.8-2.4,4.2
		c-0.1,0.2-0.3,0.5-0.4,0.7c-0.7,1.3-1.4,2.5-2,3.8c-0.2,0.3-0.3,0.6-0.5,0.9c-0.7,1.5-1.5,2.9-2.2,4.4c-0.1,0.3-0.3,0.6-0.4,0.9
		c-0.6,1.3-1.2,2.7-1.8,4c-0.1,0.3-0.2,0.5-0.3,0.8c-0.6,1.5-1.3,3.1-1.9,4.6c-0.1,0.4-0.3,0.7-0.4,1.1c-0.6,1.5-1.1,2.9-1.6,4.4
		c-0.1,0.2-0.1,0.3-0.2,0.5c-0.6,1.6-1.1,3.2-1.6,4.9c-0.1,0.4-0.2,0.8-0.4,1.2c-0.1,0.4-0.3,0.9-0.4,1.3H197.8z M169.8,16.2
		c-3.9,14.2-6.2,29.3-7.9,42.6H150C153.2,49.3,165.9,19.2,169.8,16.2z"/>
	<path class="st11" d="M145.5,62.6c-0.3,1-0.6,2-0.9,3C145,64.6,145.3,63.6,145.5,62.6L145.5,62.6z"/>
	<path class="st11" d="M199,66.8c0-0.1-0.1-0.2-0.1-0.3C198.9,66.6,198.9,66.7,199,66.8L199,66.8z"/>
	<path class="st11" d="M198.6,65.6c-0.3-1-0.6-2-0.8-2.9h0C198,63.6,198.3,64.6,198.6,65.6z"/>
	<path class="st11" d="M144.4,66.8L144.4,66.8c0-0.1,0.1-0.2,0.1-0.3C144.4,66.6,144.4,66.7,144.4,66.8z"/>
	<path class="st11" d="M198.9,66.5c-0.1-0.3-0.2-0.6-0.3-0.9c-0.3-1-0.6-2-0.9-2.9h-52.2c-0.3,1-0.6,2-0.9,3
		c-0.1,0.3-0.2,0.6-0.3,0.9c0,0.1,0,0.2-0.1,0.3H199C198.9,66.7,198.9,66.6,198.9,66.5z"/>
	<path class="st12" d="M152.2,104.8c0,10.7,8.8,19.5,19.5,19.5c10.7,0,19.5-8.8,19.5-19.5c0-10.7-8.8-19.5-19.5-19.5
		C160.9,85.3,152.2,94.1,152.2,104.8z M154.3,104.8v0.3l-0.2,0.2l-0.2,0.2l-0.3-0.1l-0.3-0.1l-0.1-0.2l-0.1-0.2l0.1-0.2l0.1-0.2
		l0.3-0.1l0.3-0.1l0.2,0.2l0.2,0.2V104.8z M159.6,117.6l0,0.3l-0.2,0.1l-0.2,0.1l-0.3-0.1l-0.3-0.1l-0.1-0.3l-0.1-0.3l0.1-0.2
		l0.1-0.2l0.3,0l0.3,0l0.2,0.2l0.2,0.2L159.6,117.6z M172.2,122.9l-0.1,0.3l-0.2,0.1l-0.2,0.1l-0.2-0.1l-0.2-0.1l-0.1-0.3l-0.1-0.3
		l0.2-0.2l0.2-0.2h0.3h0.3l0.2,0.2l0.2,0.2L172.2,122.9z M184.9,117.7l-0.1,0.3l-0.3,0.1l-0.3,0.1L184,118l-0.2-0.1l0-0.3l0-0.3
		l0.2-0.2l0.2-0.2l0.3,0l0.3,0l0.1,0.2l0.1,0.2L184.9,117.7z M189,104.8v-0.3l0.2-0.2l0.2-0.2l0.3,0.1l0.3,0.1l0.1,0.2l0.1,0.2
		l-0.1,0.2l-0.1,0.2l-0.3,0.1l-0.3,0.1l-0.2-0.2l-0.2-0.2V104.8z M183.8,92.1l0-0.3l0.2-0.1l0.2-0.1l0.3,0.1l0.3,0.1l0.1,0.3
		l0.1,0.3l-0.1,0.2l-0.1,0.2l-0.3,0l-0.3,0l-0.2-0.2l-0.2-0.2L183.8,92.1z M171.1,86.8l0.1-0.3l0.2-0.1l0.2-0.1l0.2,0.1l0.2,0.1
		l0.1,0.3l0.1,0.3l-0.2,0.2l-0.2,0.2h-0.3h-0.3l-0.2-0.2L171,87L171.1,86.8z M171.7,88.1c5.6,0,10.5,2.8,13.6,7c0,0,0-0.1,0-0.1
		c0.1,0.2,0.2,0.3,0.3,0.5c0,0,0,0,0,0c0.9,1.3,1.6,2.8,2.1,4.3c0,0.1,0,0.1,0.1,0.2c0.1,0.4,0.2,0.8,0.3,1.2c0,0.1,0.1,0.3,0.1,0.4
		c0.1,0.4,0.1,0.8,0.2,1.1c0,0.1,0,0.3,0.1,0.4c0,0.5,0.1,1,0.1,1.6c0,9.2-7.5,16.7-16.7,16.7c-0.5,0-1,0-1.5-0.1
		c-0.1,0-0.3,0-0.4,0c-0.5-0.1-0.9-0.1-1.3-0.2c0,0-0.1,0-0.1,0c-0.4-0.1-0.8-0.2-1.3-0.3c0,0,0.1,0,0.1,0c-7-2-12.2-8.5-12.2-16.1
		C154.9,95.6,162.4,88.1,171.7,88.1z M158.4,92l0.1-0.3l0.3-0.1l0.3-0.1l0.2,0.1l0.2,0.1l0,0.3l0,0.3l-0.2,0.2l-0.2,0.2l-0.3,0
		l-0.3,0l-0.1-0.2l-0.1-0.2L158.4,92z"/>
	<path class="st13" d="M187.6,99.8c0,0.1,0,0.1,0.1,0.2C187.7,100,187.6,99.9,187.6,99.8z"/>
	<path class="st13" d="M168.4,121.2c0,0-0.1,0-0.1,0C168.3,121.2,168.4,121.2,168.4,121.2z"/>
	<path class="st13" d="M167.1,120.9c0.5,0,1,0.1,1.5,0.1c10.1,0,18.3-8.2,18.3-18.3c0-2.7-0.6-5.3-1.6-7.6c-3-4.2-8-7-13.6-7
		c-9.2,0-16.7,7.5-16.7,16.7C154.9,112.5,160.1,118.9,167.1,120.9z M168.5,90.2v29c-6.5-0.5-11.6-6.8-11.6-14.5
		S162.1,90.7,168.5,90.2z"/>
	<path class="st13" d="M188,101.3c0,0.1,0.1,0.3,0.1,0.4C188.1,101.5,188,101.4,188,101.3z"/>
	<path class="st13" d="M185.5,95.5C185.5,95.5,185.5,95.5,185.5,95.5C185.5,95.5,185.5,95.5,185.5,95.5z"/>
	<path class="st13" d="M188.3,102.8c0,0.1,0,0.3,0.1,0.4C188.3,103.1,188.3,103,188.3,102.8z"/>
	<path class="st13" d="M170.1,121.5c-0.1,0-0.3,0-0.4,0C169.9,121.5,170,121.5,170.1,121.5z"/>
	<path class="st14" d="M185.2,95c0,0,0,0.1,0,0.1c0.1,0.1,0.2,0.3,0.3,0.4C185.4,95.3,185.3,95.1,185.2,95z"/>
	<path class="st14" d="M188.1,101.7c0.1,0.4,0.1,0.8,0.2,1.1C188.2,102.4,188.2,102.1,188.1,101.7z"/>
	<path class="st14" d="M185.5,95.5c0.9,1.3,1.6,2.8,2.1,4.3C187.1,98.3,186.4,96.8,185.5,95.5z"/>
	<path class="st14" d="M171.7,121.6c-0.5,0-1,0-1.5-0.1C170.6,121.5,171.1,121.6,171.7,121.6z"/>
	<path class="st14" d="M188.3,103.3c0,0.5,0.1,1,0.1,1.6C188.4,104.3,188.4,103.8,188.3,103.3z"/>
	<path class="st14" d="M171.7,121.6c9.2,0,16.7-7.5,16.7-16.7C188.4,114.1,180.9,121.6,171.7,121.6z"/>
	<path class="st14" d="M167,120.9c0.4,0.1,0.8,0.2,1.3,0.3C167.9,121.1,167.5,121,167,120.9C167.1,120.9,167,120.9,167,120.9z"/>
	<path class="st14" d="M169.7,121.4c-0.5-0.1-0.9-0.1-1.3-0.2C168.8,121.3,169.3,121.4,169.7,121.4z"/>
	<path class="st14" d="M187.7,100c0.1,0.4,0.2,0.8,0.3,1.2C187.9,100.8,187.8,100.4,187.7,100z"/>
	<path class="st14" d="M168.6,121c-0.5,0-1,0-1.5-0.1c0.4,0.1,0.8,0.2,1.2,0.3c0,0,0.1,0,0.1,0c0.4,0.1,0.9,0.2,1.3,0.2
		c0.1,0,0.3,0,0.4,0c0.5,0,1,0.1,1.5,0.1c9.2,0,16.7-7.5,16.7-16.7c0-0.5,0-1.1-0.1-1.6c0-0.1,0-0.3-0.1-0.4c0-0.4-0.1-0.8-0.2-1.1
		c0-0.1-0.1-0.3-0.1-0.4c-0.1-0.4-0.2-0.8-0.3-1.2c0-0.1,0-0.1-0.1-0.2c-0.5-1.5-1.2-3-2.1-4.3c0,0,0,0,0,0
		c-0.1-0.1-0.2-0.3-0.3-0.4c1.1,2.3,1.6,4.9,1.6,7.6C186.9,112.8,178.7,121,168.6,121z"/>
	<polygon class="st15" points="171.4,87.5 171.7,87.5 171.9,87.5 172.1,87.3 172.3,87 172.2,86.8 172.2,86.5 171.9,86.4 171.7,86.3 
		171.4,86.4 171.2,86.5 171.1,86.8 171,87 171.2,87.3 	"/>
	<polygon class="st15" points="158.6,92.7 158.9,92.7 159.2,92.8 159.4,92.6 159.6,92.4 159.6,92.1 159.5,91.8 159.3,91.7 
		159.1,91.5 158.8,91.6 158.5,91.7 158.4,92 158.4,92.2 158.5,92.5 	"/>
	<polygon class="st15" points="153.9,104.2 153.6,104.3 153.3,104.3 153.2,104.6 153.1,104.8 153.2,105.1 153.3,105.3 153.6,105.4 
		153.9,105.5 154.1,105.3 154.3,105.1 154.3,104.8 154.3,104.6 154.1,104.4 	"/>
	<polygon class="st15" points="159.2,116.9 158.9,116.9 158.6,117 158.5,117.2 158.4,117.4 158.4,117.7 158.5,118 158.8,118 
		159.1,118.1 159.3,118 159.5,117.8 159.6,117.6 159.6,117.3 159.4,117.1 	"/>
	<polygon class="st15" points="171.9,122.2 171.7,122.2 171.4,122.2 171.2,122.4 171,122.6 171.1,122.9 171.2,123.2 171.4,123.3 
		171.7,123.4 171.9,123.3 172.2,123.2 172.2,122.9 172.3,122.6 172.1,122.4 	"/>
	<polygon class="st15" points="184.7,117 184.4,116.9 184.1,116.9 183.9,117.1 183.7,117.3 183.8,117.6 183.8,117.8 184,118 
		184.3,118.1 184.5,118 184.8,118 184.9,117.7 185,117.4 184.8,117.2 	"/>
	<polygon class="st15" points="189.4,105.5 189.7,105.4 190,105.3 190.1,105.1 190.2,104.8 190.1,104.6 190,104.3 189.7,104.3 
		189.4,104.2 189.2,104.4 189,104.6 189,104.8 189,105.1 189.2,105.3 	"/>
	<polygon class="st15" points="184.1,92.8 184.4,92.7 184.7,92.7 184.8,92.5 185,92.2 184.9,92 184.8,91.7 184.5,91.6 184.3,91.5 
		184,91.7 183.8,91.8 183.8,92.1 183.7,92.4 183.9,92.6 	"/>
	<path class="st11" d="M155.2,189.3h-0.5h-0.5l-0.3-0.4l-0.3-0.4l0.1-0.5l0.1-0.5l0.4-0.2l0.4-0.2l0.4,0.2l0.4,0.2l0.1,0.5l0,0
		l0.3-1.1c0.1-0.2,0.1-0.5,0.2-0.8h0l0.3-1.3h-4.7l0,0v6.4h3l0.6-2.4L155.2,189.3z"/>
	<path class="st11" d="M187.2,186.2L187.2,186.2c0,0.2,0.1,0.4,0.1,0.6l0.4,1.3l0,0l0.1-0.5l0.4-0.2l0.4-0.2l0.4,0.2l0.4,0.2
		l0.1,0.5l0.1,0.5l-0.3,0.4l-0.3,0.4h-0.5h-0.5l-0.3-0.3l0.6,2.4h3V185h-4.7L187.2,186.2z"/>
	<path class="st11" d="M156,187l-0.3,1.1l0,0C155.8,187.7,155.9,187.4,156,187z"/>
	<path class="st11" d="M187.9,189c0.2,0.8,0.4,1.6,0.6,2.4h0L187.9,189L187.9,189z"/>
	<path class="st11" d="M180.4,189.4L180.4,189.4C180.5,189.4,180.4,189.4,180.4,189.4L180.4,189.4L180.4,189.4z"/>
	<path class="st11" d="M187.7,188.1l-0.4-1.3C187.4,187.2,187.5,187.7,187.7,188.1L187.7,188.1z"/>
	<path class="st11" d="M159.1,186.2c0.4,0,0.8,0,1.2,0c-0.3,1.6-0.6,3.3-1,5.1h1.9c0.3-1.8,0.6-3.5,0.8-5.1c0.4,0,0.8,0,1.2,0
		c0,0.3-0.1,0.7-0.1,1l0.2,0.1l-0.1-2.4h-6.8l-0.3,1.3c0.4,0,0.8,0,1.2,0c-0.4,1.6-0.8,3.3-1.3,5.1h1.9
		C158.4,189.6,158.8,187.8,159.1,186.2z"/>
	<path class="st11" d="M155.4,189L155.4,189l-0.6,2.4h0C155,190.5,155.2,189.8,155.4,189z"/>
	<path class="st11" d="M180.6,186.2c0.2,0,0.4,0,0.6,0c0.2,1.5,0.5,3,0.8,4.6l0.6,0.5h1.4c-0.3-1.8-0.7-3.5-1-5.1c0.4,0,0.8,0,1.2,0
		c0.3,1.6,0.7,3.3,1.1,5.1h1.9c-0.4-1.8-0.9-3.5-1.3-5.1c0.4,0,0.8,0,1.2,0l-0.3-1.3h-6.2L180.6,186.2z"/>
	<path class="st11" d="M163.5,189.3h-0.3h-0.3c0,0.2-0.1,0.5-0.1,0.8L163.5,189.3L163.5,189.3z"/>
	<path class="st11" d="M162.9,191.4c0.1-0.1,0.2-0.1,0.2-0.2l0.5,0l-0.1-1.7l-0.7,0.7c-0.1,0.4-0.1,0.8-0.2,1.3H162.9z"/>
	<path class="st11" d="M177,186.4c0-0.1,0-0.1,0-0.2c0.4,0,0.8,0,1.2,0c0,0.4,0.1,0.9,0.2,1.4l0.8,0.7l0-0.2l0.1-0.5l0.4-0.2
		l0.4-0.2c0-0.3-0.1-0.7-0.1-1c0.2,0,0.4,0,0.6,0l0.1-1.3h-5.2L177,186.4z"/>
	<polygon class="st11" points="180.3,189.3 180.4,189.4 180.4,189.3 	"/>
	<path class="st11" d="M182.5,191.4l-0.6-0.5c0,0.2,0.1,0.3,0.1,0.5H182.5z"/>
	<polygon class="st11" points="168.4,185 167.6,185 168.3,185.1 	"/>
	<polygon class="st11" points="163.6,189.3 163.5,189.3 163.5,189.4 	"/>
	<path class="st11" d="M180.3,191.4h0.4c-0.1-0.6-0.2-1.3-0.3-1.9l-0.1-0.1L180.3,191.4z"/>
	<path class="st11" d="M164,187.6l0.1,0.5l0.1,0.5l-0.3,0.4l-0.2,0.3l1.1-1c0.1-0.7,0.1-1.3,0.2-2c0.4,0,0.8,0,1.2,0
		c0,0.2,0,0.5-0.1,0.7l1.1-1l0.2-1h-4.3l0.1,2.4l0.2,0.1L164,187.6z"/>
	<polygon class="st11" points="175.3,185 173.5,185 173.5,185.3 	"/>
	<path class="st11" d="M163.6,191.2l0.9,0c0.1-1,0.2-2,0.3-2.9l-1.1,1l-0.1,0.1h0l-0.1,0.1L163.6,191.2z"/>
	<path class="st11" d="M177.5,191.1c-0.2-1.6-0.3-3.2-0.4-4.7l-1.6-1.4h-0.1l1.5,6.1L177.5,191.1z"/>
	<path class="st11" d="M166.1,191.1l1.3-5.2l-1.1,1c-0.1,1.3-0.2,2.7-0.4,4.1L166.1,191.1z"/>
	<path class="st11" d="M179.8,191.2c0,0,0.1,0.1,0.2,0.2h0.3l0.1-1.9l-0.1-0.1h-0.1h-0.5l-0.3-0.4l-0.3-0.4l0.1-0.3l-0.8-0.7
		c0.1,1.1,0.3,2.3,0.4,3.5L179.8,191.2z"/>
	<polygon class="st11" points="169.8,185.3 169.8,185 168.4,185 168.3,185.1 	"/>
	<polygon class="st11" points="167.6,185 167.4,185.9 168.3,185.1 	"/>
	<path class="st11" d="M167.8,191c0.1-1.7,0.2-3.3,0.3-4.8c0.4,0,0.8,0,1.2,0c-0.1,1.5-0.1,3.1-0.2,4.8l1.3,0l-0.5-5.6l-1.5-0.2
		l-0.9,0.9l-1.3,5.2L167.8,191z"/>
	<path class="st11" d="M173,191l1.3,0c-0.1-1.7-0.1-3.3-0.2-4.8c0.4,0,0.8,0,1.2,0c0.1,1.5,0.2,3.1,0.3,4.8l1.3,0l-1.5-6.1l-1.8,0.3
		L173,191z"/>
	<path class="st11" d="M163.6,191.2l-0.5,0c0,0-0.1,0.1-0.2,0.2h0.7L163.6,191.2z"/>
	<path class="st11" d="M180,191.4c-0.1-0.1-0.2-0.1-0.2-0.2l-1,0c0,0.1,0,0.1,0,0.2H180z"/>
	<path class="st11" d="M164.5,191.4c0-0.1,0-0.1,0-0.2l-0.9,0l0,0.2H164.5z"/>
	<path class="st11" d="M166.1,191.4l0.1-0.3l-0.3,0c0,0.1,0,0.2,0,0.3H166.1z"/>
	<path class="st11" d="M177.5,191.4c0-0.1,0-0.2,0-0.2l-0.7,0l0.1,0.3H177.5z"/>
	<path class="st11" d="M176.9,191.4l-0.1-0.3l-1.3,0c0,0.1,0,0.2,0,0.3H176.9z"/>
	<path class="st11" d="M170.4,191.4l0-0.4l-1.3,0c0,0.1,0,0.2,0,0.4H170.4z"/>
	<path class="st11" d="M167.8,191.4c0-0.1,0-0.2,0-0.3l-1.7,0l-0.1,0.3H167.8z"/>
	<path class="st11" d="M174.2,191.4c0-0.1,0-0.2,0-0.3l-1.3,0l0,0.4H174.2z"/>
	<path class="st11" d="M156.2,186.2c-0.1,0.2-0.1,0.5-0.2,0.8L156.2,186.2L156.2,186.2z"/>
	<path class="st11" d="M156.2,186.2L156,187c-0.1,0.4-0.2,0.8-0.3,1.1l0.1,0.4l-0.3,0.4l0,0c-0.2,0.8-0.4,1.6-0.6,2.4h1.3
		c0.4-1.8,0.9-3.5,1.3-5.1C157,186.2,156.6,186.2,156.2,186.2z"/>
	<path class="st11" d="M160.3,186.2c-0.4,0-0.8,0-1.2,0c-0.3,1.6-0.7,3.3-1.1,5.1h1.3C159.7,189.6,160,187.8,160.3,186.2z"/>
	<path class="st11" d="M162.8,190.1c0-0.3,0.1-0.5,0.1-0.8h-0.2l-0.3-0.4l-0.3-0.4l0.1-0.5l0.1-0.5l0.4-0.2l0.4-0.2l0,0
		c0-0.3,0.1-0.7,0.1-1c-0.4,0-0.8,0-1.2,0c-0.3,1.6-0.5,3.3-0.8,5.1h0.1L162.8,190.1z"/>
	<path class="st11" d="M162.8,190.1l-1.4,1.3h1.2C162.6,190.9,162.7,190.5,162.8,190.1z"/>
	<path class="st11" d="M166.3,186.2c-0.4,0-0.8,0-1.2,0c-0.1,0.6-0.1,1.3-0.2,2l1.4-1.2C166.3,186.7,166.3,186.5,166.3,186.2z"/>
	<path class="st11" d="M165.9,191.1c0.1-1.4,0.3-2.8,0.4-4.1l-1.4,1.2c-0.1,1-0.2,1.9-0.3,2.9L165.9,191.1z"/>
	<path class="st11" d="M165.8,191.4c0-0.1,0-0.2,0-0.3l-1.3,0c0,0.1,0,0.1,0,0.2H165.8z"/>
	<path class="st11" d="M169.3,186.2c-0.4,0-0.8,0-1.2,0c-0.1,1.5-0.2,3.1-0.3,4.8l1.3,0C169.2,189.3,169.2,187.7,169.3,186.2z"/>
	<path class="st11" d="M169.1,191.4c0-0.1,0-0.2,0-0.4l-1.3,0c0,0.1,0,0.2,0,0.3H169.1z"/>
	<path class="st11" d="M175.2,186.2c-0.4,0-0.8,0-1.2,0c0.1,1.5,0.1,3.1,0.2,4.8l1.3,0C175.4,189.4,175.3,187.7,175.2,186.2z"/>
	<path class="st11" d="M175.6,191.4c0-0.1,0-0.2,0-0.3l-1.3,0c0,0.1,0,0.2,0,0.3H175.6z"/>
	<path class="st11" d="M178.2,186.2c-0.4,0-0.8,0-1.2,0c0,0.1,0,0.1,0,0.2l1.3,1.2C178.3,187.1,178.3,186.7,178.2,186.2z"/>
	<path class="st11" d="M178.8,191.1c-0.1-1.2-0.3-2.4-0.4-3.5l-1.3-1.2c0.1,1.5,0.3,3.1,0.4,4.7L178.8,191.1z"/>
	<path class="st11" d="M178.8,191.4c0-0.1,0-0.1,0-0.2l-1.3,0c0,0.1,0,0.2,0,0.2H178.8z"/>
	<path class="st11" d="M180.6,187.4l0.4,0.2l0.1,0.5l0.1,0.5l-0.3,0.4l-0.3,0.4h-0.2c0,0.1,0,0.1,0,0.2l1.5,1.3
		c-0.3-1.6-0.5-3.1-0.8-4.6c-0.2,0-0.4,0-0.6,0L180.6,187.4L180.6,187.4z"/>
	<path class="st11" d="M180.1,187.2L180.1,187.2l0.4,0.2l0.1-1.2c-0.2,0-0.4,0-0.6,0C180,186.6,180.1,186.9,180.1,187.2z"/>
	<path class="st11" d="M180.7,191.4h1.3c0-0.2-0.1-0.3-0.1-0.5l-1.5-1.3C180.5,190.1,180.6,190.7,180.7,191.4z"/>
	<path class="st11" d="M184.2,186.2c-0.4,0-0.8,0-1.2,0c0.3,1.6,0.6,3.3,1,5.1h1.3C184.9,189.6,184.5,187.8,184.2,186.2z"/>
	<path class="st11" d="M187.2,186.2L187.2,186.2l0.1,0.6C187.3,186.6,187.2,186.4,187.2,186.2z"/>
	<path class="st11" d="M187.2,191.4h1.3c-0.2-0.8-0.4-1.6-0.6-2.4l0,0l-0.3-0.4l0.1-0.4c-0.1-0.5-0.2-0.9-0.4-1.3l-0.1-0.6
		c-0.4,0-0.8,0-1.2,0C186.3,187.8,186.8,189.6,187.2,191.4z"/>
	<polygon class="st11" points="151.8,185 151.8,185 151.8,185 	"/>
	<polygon class="st11" points="151.8,185 151.8,185 151.8,185 151.8,185 	"/>
	<polygon class="st11" points="151.8,185 151.8,185 156.5,185 156.5,185 	"/>
	<rect x="186.8" y="185" transform="matrix(0.9806 -0.1961 0.1961 0.9806 -32.6006 40.6937)" class="st11" width="4.7" height="0"/>
	<rect x="156.5" y="185" class="st11" width="6.8" height="0"/>
	<rect x="180.6" y="185" class="st11" width="6.2" height="0"/>
	<rect x="175.4" y="185" class="st11" width="5.2" height="0"/>
	<polygon class="st11" points="168.4,185 168.4,185 163.3,185 163.3,185 167.6,185 	"/>
	<polygon class="st11" points="169.8,185 169.8,185 168.4,185 168.4,185 	"/>
	<polygon class="st11" points="173.5,185 175.3,185 175.4,185 175.4,185 173.5,185 	"/>
	<polygon class="st11" points="151.8,185 151.8,185 151.8,185 	"/>
	<polygon class="st15" points="155.6,188.1 155.5,187.6 155.1,187.4 154.7,187.2 154.2,187.4 153.8,187.6 153.7,188.1 153.6,188.6 
		153.9,188.9 154.2,189.3 154.7,189.3 155.2,189.3 155.4,189 155.6,188.1 	"/>
	<path class="st15" d="M155.6,188.1l-0.2,0.9l0,0C155.5,188.7,155.6,188.4,155.6,188.1L155.6,188.1z"/>
	<path class="st15" d="M155.8,188.6l-0.1-0.4c-0.1,0.3-0.2,0.6-0.2,0.9l0,0L155.8,188.6z"/>
	<path class="st15" d="M163.2,189.3h0.3l-0.1-2l-0.2-0.1c-0.1,0.7-0.2,1.4-0.3,2.1H163.2z"/>
	<polygon class="st15" points="163.6,189.3 163.7,189.2 163.9,188.9 164.2,188.6 164.1,188.1 164,187.6 163.6,187.4 163.4,187.3 
		163.5,189.3 	"/>
	<polygon class="st15" points="163.7,189.2 163.6,189.3 163.6,189.3 	"/>
	<path class="st15" d="M162.7,187.4l-0.4,0.2l-0.1,0.5l-0.1,0.5l0.3,0.4l0.3,0.4h0.2c0.1-0.7,0.2-1.4,0.3-2.1l0,0L162.7,187.4z"/>
	<path class="st15" d="M180.4,189.3L180.4,189.3c0-0.1,0-0.1,0-0.2L180.4,189.3z"/>
	<path class="st15" d="M180.4,189.3l0-0.2c-0.1-0.6-0.2-1.3-0.3-1.9l-0.4,0.2l-0.4,0.2l-0.1,0.5l0,0.2l1.1,1H180.4z"/>
	<polygon class="st15" points="179.4,188.9 179.7,189.3 180.2,189.3 180.3,189.3 179.1,188.3 179.1,188.6 	"/>
	<path class="st15" d="M180.4,189.3h0.2l0.3-0.4l0.3-0.4l-0.1-0.5l-0.1-0.5l-0.4-0.2l-0.1,0l-0.1,1.7
		C180.4,189.2,180.4,189.3,180.4,189.3z"/>
	<path class="st15" d="M180.5,187.4l-0.3-0.2l0,0c0.1,0.6,0.2,1.2,0.3,1.9L180.5,187.4z"/>
	<polygon class="st15" points="188.2,189.3 188.6,189.3 189.1,189.3 189.4,188.9 189.7,188.6 189.6,188.1 189.5,187.6 189.1,187.4 
		188.6,187.2 188.2,187.4 187.8,187.6 187.7,188.1 187.7,188.1 187.9,189 	"/>
	<path class="st15" d="M187.9,189L187.9,189l-0.2-0.9l0,0C187.7,188.4,187.8,188.7,187.9,189z"/>
	<path class="st15" d="M187.6,188.6l0.3,0.4l0,0c-0.1-0.3-0.2-0.6-0.2-0.9L187.6,188.6z"/>
	<polygon class="st16" points="171.7,205 172.2,199.1 171.7,199.1 	"/>
	<polygon class="st16" points="171.7,205 171.7,205 171.7,205 	"/>
	<path class="st16" d="M172.9,191.9l0-0.5h-0.6c0,0.2,0,0.4,0,0.6L172.9,191.9z"/>
	<path class="st16" d="M172.3,191.9c0,0,0,0.1,0,0.1c0,0.5,0,1.1,0,1.7l0.4,0l0.2-1.8L172.3,191.9z"/>
	<path class="st16" d="M172.3,193.7c0,1.1,0,2.2,0,3.3l0,0l0.3-3.3L172.3,193.7z"/>
	<path class="st16" d="M172.4,197.3l0-0.3l0,0C172.4,197.1,172.4,197.2,172.4,197.3z"/>
	<path class="st16" d="M171.7,192l0.7,0c0-0.2,0-0.4,0-0.6h-0.7V192z"/>
	<path class="st16" d="M172.3,191.9l-0.7,0v1.7l0.7,0c0-0.6,0-1.1,0-1.7C172.3,192,172.3,192,172.3,191.9z"/>
	<path class="st16" d="M171.7,193.7v3.3l0.7,0c0-1.1,0-2.2,0-3.3L171.7,193.7z"/>
	<path class="st16" d="M172.4,197l-0.7,0v2.1h0.5l0.2-1.8C172.4,197.2,172.4,197.1,172.4,197z"/>
	<polygon class="st16" points="171.7,159.2 171.7,159.2 171.7,159.2 	"/>
	<polygon class="st16" points="171.9,181.8 174,180 174.8,171.1 171.7,159.2 171.7,181.6 	"/>
	<polygon class="st16" points="172.3,182.1 173.8,182.1 174,180 171.9,181.8 	"/>
	<polygon class="st16" points="171.9,181.8 171.7,181.6 171.7,182.1 	"/>
	<polygon class="st16" points="171.7,182.1 172.3,182.1 171.9,181.8 171.7,182.1 	"/>
	<polygon class="st16" points="173.8,182.1 172.3,182.1 173.7,183.4 	"/>
	<polygon class="st16" points="171.7,185 173.5,185 173.7,183.4 172.3,182.1 171.7,182.1 	"/>
	<polygon class="st16" points="171.7,185.6 173.5,185.3 173.5,185 171.7,185 	"/>
	<path class="st16" d="M172.3,186.2c0,0.4,0,0.9,0,1.3l0.2,0.1l0.1,0.5l0.1,0.5l-0.3,0.4l-0.1,0.2c0,0.6,0,1.2,0,1.8l0.6,0l0.5-5.7
		l-1.8,0.3v0.7C171.9,186.2,172.1,186.2,172.3,186.2z"/>
	<path class="st16" d="M172.3,191.4h0.6l0-0.4l-0.6,0C172.3,191.1,172.3,191.2,172.3,191.4z"/>
	<path class="st16" d="M171.7,189.3v1.6l0.6,0c0-0.6,0-1.2,0-1.8l-0.2,0.2H171.7z"/>
	<path class="st16" d="M172.1,187.4l0.2,0.1c0-0.4,0-0.9,0-1.3c-0.2,0-0.4,0-0.6,0v1L172.1,187.4z"/>
	<path class="st16" d="M171.7,191.4h0.7c0-0.1,0-0.3,0-0.4l-0.6,0V191.4z"/>
	
		<rect x="172.6" y="184" transform="matrix(0.1961 -0.9806 0.9806 0.1961 -42.6365 317.9197)" class="st16" width="0" height="1.8"/>
	<path class="st16" d="M172.4,188.9l0.3-0.4l-0.1-0.5l-0.1-0.5l-0.2-0.1c0,0.5,0,1.1,0,1.6L172.4,188.9z"/>
	<path class="st16" d="M171.7,187.2v2.1h0.5l0.2-0.2c0-0.6,0-1.1,0-1.6l-0.2-0.1L171.7,187.2z"/>
	<polygon class="st8" points="171.1,199.1 171.7,205 171.7,199.1 	"/>
	<polygon class="st8" points="171.7,205 171.7,205 171.7,205 	"/>
	<path class="st8" d="M171,191.9c0-0.2,0-0.4,0-0.6h-0.6l0.1,0.6L171,191.9z"/>
	<path class="st8" d="M171,191.9l-0.5,0l0.2,1.8l0.4,0c0-0.6,0-1.1,0-1.7C171,192,171,192,171,191.9z"/>
	<path class="st8" d="M170.6,193.7l0.3,3.3l0,0c0-1.1,0-2.2,0-3.3L170.6,193.7z"/>
	<path class="st8" d="M170.9,197.2c0-0.1,0-0.1,0-0.2l0,0L170.9,197.2z"/>
	<path class="st8" d="M171.5,192l0.2,0v-0.6H171c0,0.2,0,0.4,0,0.6L171.5,192z"/>
	<path class="st8" d="M171.5,192l-0.5,0c0,0,0,0.1,0,0.1c0,0.5,0,1.1,0,1.7l0.5,0l0.2,0V192L171.5,192z"/>
	<path class="st8" d="M171.5,193.7l-0.5,0c0,1.1,0,2.2,0,3.3l0.5,0l0.2,0v-3.3L171.5,193.7z"/>
	<path class="st8" d="M171.7,197l-0.2,0l-0.5,0c0,0.1,0,0.1,0,0.2l0.2,2h0.5V197z"/>
	<polygon class="st8" points="171.7,159.2 168.5,171.1 169.3,179.4 171.7,181.6 	"/>
	<polygon class="st8" points="171.7,159.2 171.7,159.2 171.7,159.2 	"/>
	<polygon class="st8" points="171.6,182.1 171.7,182.1 171.7,181.6 169.3,179.4 169.6,182.1 	"/>
	<polygon class="st8" points="171.7,182.1 171.6,182.1 171.7,182.1 	"/>
	<polygon class="st8" points="169.6,182.1 169.7,183.8 171.6,182.1 	"/>
	<polygon class="st8" points="171.7,185 171.7,182.1 171.6,182.1 169.7,183.8 169.8,185 	"/>
	<polygon class="st8" points="171.5,185.6 171.7,185.6 171.7,185 169.8,185 169.8,185.3 	"/>
	<path class="st8" d="M171,189.1l-0.1-0.2l-0.3-0.4l0.1-0.5l0.1-0.5l0.2-0.1c0-0.4,0-0.9,0-1.3c0.2,0,0.4,0,0.6,0v-0.7l-0.2,0
		l-1.6-0.3l0.5,5.6l0.6,0C171,190.3,171,189.7,171,189.1z"/>
	<path class="st8" d="M171,191.4c0-0.1,0-0.3,0-0.4l-0.6,0l0,0.4H171z"/>
	<path class="st8" d="M171.7,190.9v-1.6h-0.5l-0.2-0.2c0,0.6,0,1.2,0,1.8l0.5,0L171.7,190.9z"/>
	<path class="st8" d="M171.7,187.2v-1c-0.2,0-0.4,0-0.6,0c0,0.4,0,0.9,0,1.3l0.2-0.1L171.7,187.2z"/>
	<path class="st8" d="M171.7,190.9l-0.2,0l-0.5,0c0,0.1,0,0.3,0,0.4h0.7V190.9z"/>
	<rect x="169.8" y="185" class="st8" width="1.8" height="0"/>
	<path class="st8" d="M170.8,187.6l-0.1,0.5l-0.1,0.5l0.3,0.4l0.1,0.2c0-0.5,0-1.1,0-1.6L170.8,187.6z"/>
	<path class="st8" d="M171.7,189.3v-2.1l-0.4,0.2l-0.2,0.1c0,0.5,0,1,0,1.6l0.2,0.2H171.7z"/>
	<polygon class="st8" points="171.7,199.1 171.7,205 171.7,205 171.7,205 171.7,199.1 	"/>
	<rect x="171.7" y="191.4" class="st8" width="0" height="0.6"/>
	<polygon class="st8" points="171.7,192 171.7,193.7 171.7,193.7 171.7,192 	"/>
	<rect x="171.7" y="193.7" class="st8" width="0" height="3.3"/>
	<rect x="171.7" y="197" class="st8" width="0" height="2.1"/>
	<polygon class="st8" points="171.7,181.6 171.7,159.2 171.7,159.2 171.7,159.2 171.7,181.6 	"/>
	<polygon class="st8" points="171.7,181.6 171.7,181.6 171.7,182.1 171.7,182.1 	"/>
	<rect x="171.7" y="182.1" class="st8" width="0" height="0"/>
	<rect x="171.7" y="182.1" class="st8" width="0" height="2.9"/>
	<rect x="171.7" y="185" class="st8" width="0" height="0.6"/>
	<polygon class="st8" points="171.7,186.2 171.7,185.6 171.7,185.6 171.7,186.2 	"/>
	<rect x="171.7" y="189.3" class="st8" width="0" height="1.6"/>
	<polygon class="st8" points="171.7,187.2 171.7,186.2 171.7,186.2 171.7,187.2 	"/>
	
		<rect x="171.5" y="191.1" transform="matrix(0.3162 -0.9487 0.9487 0.3162 -63.9603 293.5509)" class="st8" width="0.4" height="0"/>
	<rect x="171.7" y="185" class="st8" width="0" height="0"/>
	
		<rect x="171.7" y="187.2" transform="matrix(0.9487 -0.3162 0.3162 0.9487 -50.7287 63.9453)" class="st8" width="0" height="2.1"/>
	<path class="st17" d="M161.9,58.8c1.7-13.3,4-28.4,7.9-42.6c-3.9,3-16.6,33.1-19.8,42.6H161.9z"/>
	<path class="st18" d="M151,173.5l12-0.4l0-47.6c-15.7-3.6-18.2-33.1,0.7-42.3l-0.2-13.4c-5.9,0-11.7,0.5-17.6,0.9
		c0,0-4.8,21.6-4.9,39.9c-0.1,6.2,1.4,29.9,4.4,46.5c0.9-0.6,1.5-1,1.6-1.1l2.6,15.6C150,172.4,150.5,173.1,151,173.5z"/>
	<path class="st18" d="M145.3,157.1c1.2,6.3,2.6,11.6,4.2,14.5l-2.6-15.6C146.9,156.1,146.3,156.5,145.3,157.1z"/>
	<path class="st19" d="M168.5,119.1v-29c-6.5,0.5-11.6,6.8-11.6,14.5S162.1,118.6,168.5,119.1z"/>
	<polygon class="st20" points="142.1,161.1 120.2,176.3 117.3,193.3 122.6,178.4 143.4,166.7 	"/>
	<path class="st21" d="M118.5,100c-1.2,0-2.3,0.3-3.3,0.8c-0.4-3-3-5.3-6.1-5.3c-2.1,0-4,1.1-5.1,2.7c-0.2-2.6-2.5-4.7-5.1-4.7
		c-1.1,0-2.1,0.3-2.9,0.9c-1.9-2.8-5.1-3.8-8.6-3.3c-0.5-4.7-4.3-8.4-9.1-8.8c0-0.3,0-0.6,0-0.9c0-4.9-4-8.8-8.8-8.8
		c-2.6,0-4.9,1.1-6.5,2.8c-1.4-2.5-4.1-4.1-7.2-4.1c-4.5,0-8.2,3.6-8.3,8.2C46.8,79.1,45.9,79,45,79c-4.4,0-8,3.6-8,8
		c0,1.8,0.6,3.5,1.6,4.8c-1.8,1.4-3,3.6-3,6c0,0.7,0.1,1.4,0.3,2c-2.3,0.6-3.9,2.7-3.9,5.1h93.4C124.4,102.1,121.7,100,118.5,100z"
		/>
	<path class="st21" d="M319.4,32.9c-0.5,0-0.9,0.1-1.3,0.3c-0.6-1.3-1.8-2.2-3.2-2.2c-0.3,0-0.6,0.1-1,0.1c-0.1,0-0.1-0.1-0.2-0.1
		c0-0.2,0.1-0.5,0.1-0.7c0-2.5-1.8-4.5-4.1-4.5c-0.4,0-0.8,0.1-1.1,0.2c-1-2.7-3.5-4.6-6.3-4.6c-1.2,0-2.4,0.4-3.4,1
		c-2.4-2.1-5.1-2.9-7.9-2.8c0.3-0.8,0.5-1.8,0.5-2.7c0-4.1-3.1-7.5-6.8-7.5c-1.1,0-2.1,0.3-3,0.8c-1.5-5.8-6.4-10-12.1-10
		c-5.5,0-10.2,3.9-11.9,9.3c-0.2,0-0.5,0-0.7,0c-2.4,0-4.6,1.4-5.8,3.6c-1.1-0.9-2.5-1.4-4-1.4c-3.2,0-5.9,2.4-6.7,5.6
		c-2.6,0.7-4.8,2.3-6.7,4.3c-1.2-1-2.7-1.6-4.3-1.6c-3.5,0-6.4,2.8-6.9,6.5c-0.5-0.3-1.1-0.4-1.7-0.4c-1.8,0-3.4,1.3-3.9,3.2
		c-0.4-0.2-0.9-0.3-1.4-0.3c-1.9,0-3.4,1.6-3.5,3.7c-0.1,0-0.1,0-0.2,0.1c-0.5-0.1-1-0.2-1.5-0.2c-2.4,0-4.6,1.3-6,3.2h118.4
		C322.1,33.9,320.9,32.9,319.4,32.9z"/>
</g>
</svg>
