<svg id="Layer_1" data-name="Layer 1" xmlns="http://www.w3.org/2000/svg" viewBox="0 0 254.74 49.87"><defs><style>.cls-1{fill:#2f3232;}.cls-2{font-size:15.87px;letter-spacing:-0.03em;}.cls-2,.cls-4{fill:#fff;font-family:BerlinSansFBDemi-Bold, Berlin Sans FB Demi;font-weight:700;}.cls-3{fill:#db0c5c;}.cls-4{font-size:16.13px;letter-spacing:-0.03em;}</style></defs><title>logo</title><path class="cls-1" d="M59.43,22.3l-1.72-.46A11.15,11.15,0,0,0,55,21.39,5.21,5.21,0,0,0,49.44,27a5.24,5.24,0,0,0,1.65,4.1,6.15,6.15,0,0,0,4.28,1.49,7.46,7.46,0,0,0,2.81-.64,13,13,0,0,0,1.48-.64c.32,0,.73,1.2,1.24,3.61a28.35,28.35,0,0,1,.66,4.36c0,.72-1.18,1.34-3.52,1.85a21.36,21.36,0,0,1-4.4.59,13.71,13.71,0,0,1-10.3-4.19A14.49,14.49,0,0,1,39.29,27a14.51,14.51,0,0,1,4.07-10.46,13.66,13.66,0,0,1,10.28-4.24,14.79,14.79,0,0,1,7.43,1.82c.5.26.74.52.74.76A26.51,26.51,0,0,1,61,18.24c-.53,1.91-.87,3.07-1,3.46S59.6,22.3,59.43,22.3Z"/><path class="cls-1" d="M90.37,27a14.31,14.31,0,0,1-4,10.49,13.91,13.91,0,0,1-10.4,4,14,14,0,0,1-10.27-4,13.74,13.74,0,0,1-4-10.21,15,15,0,0,1,3.86-10.68q3.86-4.11,10.44-4.1a14,14,0,0,1,10.39,4A14.22,14.22,0,0,1,90.37,27Zm-9.31,0a6.08,6.08,0,0,0-1.39-4,4.43,4.43,0,0,0-3.6-1.72,4.59,4.59,0,0,0-3.69,1.76A5.94,5.94,0,0,0,71,27,6,6,0,0,0,72.38,31a4.72,4.72,0,0,0,7.35,0A6.06,6.06,0,0,0,81.06,27Z"/><path class="cls-1" d="M122.13.71c0-.42-.08.21-.23,1.87q-.32,3.15-.48,8.06-.23,5.56-.23,12.65A144.44,144.44,0,0,0,121.85,40c0,.36.05.59.05.68s-.14.33-.42.37c-.68.1-3.19.14-7.52.14-1,0-1.61-.19-1.76-.59,0-.72-.08-1.44-.11-2.16a.88.88,0,0,0-.23-.45,2,2,0,0,0-.43.34,10.5,10.5,0,0,1-7.66,3,12,12,0,0,1-9.59-4.2A15,15,0,0,1,90.75,27a15.26,15.26,0,0,1,3.38-10.19,12,12,0,0,1,9.64-4.25,8.41,8.41,0,0,1,6.67,2.72c.27.3.45.45.57.45s.25-.24.25-.73c0-1.46,0-3.63-.11-6.53S111,3.42,111,2c0-.55.15-.86.45-.94,1.21-.06,2.88-.17,5-.34a40.8,40.8,0,0,0,5-.71C121.92,0,122.13.24,122.13.71Zm-10.7,26.07a5.63,5.63,0,0,0-1.56-3.93,5,5,0,0,0-3.77-1.69,4.55,4.55,0,0,0-3.7,1.69,6.19,6.19,0,0,0-1.38,4,5.72,5.72,0,0,0,1.39,3.89,4.57,4.57,0,0,0,3.69,1.7,4.89,4.89,0,0,0,3.8-1.7A5.79,5.79,0,0,0,111.43,26.78Z"/><path class="cls-1" d="M149.57,25.56c0,1.91-.61,3-1.84,3.26q-.31.06-5.87.63c-2.24.24-5.57.54-10,.88a4,4,0,0,0,2.41,2.81,8.5,8.5,0,0,0,3.75.79,10.66,10.66,0,0,0,5.07-1.36l2.16-1.36c.4.19,1.06,1.15,2,2.89a10.51,10.51,0,0,1,1.4,3.32c0,.13-.14.35-.42.65q-3.47,3.72-10.75,3.72-6.77,0-10.9-3.95t-4.25-10.69a15.25,15.25,0,0,1,3.8-10.7,13.36,13.36,0,0,1,10.38-4.31,12.36,12.36,0,0,1,9.25,4A13.22,13.22,0,0,1,149.57,25.56Zm-9.93-1.73a4.36,4.36,0,0,0-1.25-3.09,3.93,3.93,0,0,0-3-1.34,3.6,3.6,0,0,0-2.95,1.51,5.19,5.19,0,0,0-1.07,3.26.69.69,0,0,0,.79.77,49.05,49.05,0,0,0,6.52-.66C139.33,24.19,139.64,24,139.64,23.83Z"/><path class="cls-1" d="M170.73,22.3,169,21.84a11.07,11.07,0,0,0-2.73-.45,5.41,5.41,0,0,0-4,1.52,5.5,5.5,0,0,0-1.51,4,5.24,5.24,0,0,0,1.65,4.1,6.15,6.15,0,0,0,4.28,1.49,7.46,7.46,0,0,0,2.81-.64,13,13,0,0,0,1.48-.64c.32,0,.73,1.2,1.24,3.61a28.35,28.35,0,0,1,.66,4.36c0,.72-1.18,1.34-3.52,1.85a21.36,21.36,0,0,1-4.4.59,13.71,13.71,0,0,1-10.3-4.19,14.49,14.49,0,0,1-4-10.47,14.51,14.51,0,0,1,4.07-10.46,13.66,13.66,0,0,1,10.28-4.24,14.86,14.86,0,0,1,7.44,1.82c.49.26.73.52.73.76a26.51,26.51,0,0,1-.85,3.35c-.53,1.91-.87,3.07-1,3.46S170.9,22.3,170.73,22.3Z"/><path class="cls-1" d="M203.57,15.18q0,2.1-.2,6.3t-.2,6.29q0,2.06.14,6.13t.15,6.1a.92.92,0,0,1-.71,1,23.47,23.47,0,0,1-4.57.28,37.17,37.17,0,0,1-4.31-.17.81.81,0,0,1-.68-.68c-.06-.57-.12-1.14-.17-1.7-.1-.87-.23-1.31-.4-1.31.26,0-.69.64-2.87,1.93a11.83,11.83,0,0,1-5.93,1.93q-7.51,0-8.9-6.78a49.9,49.9,0,0,1-.63-9.14,39.37,39.37,0,0,1,1.05-10.21c.21-.77.6-1.16,1.16-1.16l4,0,4,0c.58,0,.88.25.88.74a4.54,4.54,0,0,1-.06.6,50.84,50.84,0,0,0-.59,7.83,47.3,47.3,0,0,0,.31,6.75,3.37,3.37,0,0,0,3.71,3.12,4.57,4.57,0,0,0,2.71-1.11,3.19,3.19,0,0,0,1.52-2.29q.06-1,.06-14.25a2.26,2.26,0,0,1,.14-1.1c.11-.19.45-.29,1-.29l4.18,0,4.19,0c.57,0,.9.14,1,.43A2.86,2.86,0,0,1,203.57,15.18Z"/><path class="cls-1" d="M223.1,18a1.37,1.37,0,0,1-.42.77,6.66,6.66,0,0,0-1.59-.2,5.07,5.07,0,0,0-2.81.74,2.69,2.69,0,0,0-1.36,2.41,4.26,4.26,0,0,0,1.45,2.53,28.73,28.73,0,0,1,2.69,3.09A8.11,8.11,0,0,1,222.51,32a9.24,9.24,0,0,1-.57,3.07,6,6,0,0,1-1.65,2.61,19.57,19.57,0,0,1-4.9,3.06A14.32,14.32,0,0,1,209.8,42c-.38,0-1.23-1-2.54-3.08s-2-3.31-2-3.76c0-.17.1-.28.31-.31l4-.74c1.66-.53,2.5-1.4,2.5-2.61a4.78,4.78,0,0,0-1.45-2.9q-2.58-2.86-2.7-3a7.36,7.36,0,0,1-1.44-4.31c0-2.84,1.43-5.25,4.31-7.24a14.34,14.34,0,0,1,8.26-2.64c.3,0,1,1,2.24,3A14.84,14.84,0,0,1,223.1,18Z"/><path class="cls-1" d="M254.74,27.32a14.52,14.52,0,0,1-3.58,10.07,12.33,12.33,0,0,1-9.67,4.14,11.8,11.8,0,0,1-4.68-1.08,10.42,10.42,0,0,1-2.27-1.07c-.25,0-.37.28-.37.85,0,1,.05,2.41.14,4.35s.14,3.39.14,4.36a.82.82,0,0,1-.93.91l-5.79,0a13.13,13.13,0,0,1-2.53-.14,1,1,0,0,1-.85-1l.06-21.84a53.25,53.25,0,0,0-1-11.15,2.4,2.4,0,0,1-.06-.48.54.54,0,0,1,.34-.57,23.48,23.48,0,0,1,4.23-.91,31.84,31.84,0,0,1,4.4-.48c.73,0,1.15.49,1.26,1.46s.23,1.46.38,1.46c-.19,0,.62-.51,2.43-1.55a10.07,10.07,0,0,1,4.92-1.54,12.67,12.67,0,0,1,9.84,4A14.52,14.52,0,0,1,254.74,27.32Zm-10.53-.06a6.08,6.08,0,0,0-1.39-4,4.67,4.67,0,0,0-3.71-1.79,4.35,4.35,0,0,0-3.64,1.79,6.54,6.54,0,0,0-1.19,4,6.29,6.29,0,0,0,1.25,4A4.38,4.38,0,0,0,239.22,33Q244.22,33,244.21,27.26Z"/><text class="cls-2" transform="translate(6.6 32.07)">{ }</text><path class="cls-3" d="M30.56,20.67H28.69a5.91,5.91,0,0,0-1.12.11V16.56a3.71,3.71,0,0,0-.07-.67A5,5,0,0,0,23.62,7a5.18,5.18,0,0,0-4-1.62,5.16,5.16,0,0,0-7.91-.74,4.52,4.52,0,0,0-.79-.25l-.33-.07a6.85,6.85,0,0,0-.78-.07,7.08,7.08,0,0,0-1.13,0h-.1A5.7,5.7,0,0,0,3.8,7.62,4.67,4.67,0,0,0,2,16a4.36,4.36,0,0,0,0,.52V41.8a3.37,3.37,0,0,0,3.37,3.36H24.2a3.37,3.37,0,0,0,3.37-3.36V36.64a5.91,5.91,0,0,0,1.12.11h1.87a6.18,6.18,0,0,0,6.17-6.17V26.84A6.18,6.18,0,0,0,30.56,20.67ZM25.32,41.8a1.12,1.12,0,0,1-1.12,1.12H5.33A1.13,1.13,0,0,1,4.2,41.8V16.56a1.13,1.13,0,0,1,1.13-1.12H24.2a1.12,1.12,0,0,1,1.12,1.12Zm1-27.83h0a3.31,3.31,0,0,0-2.12-.78H5.33a3.3,3.3,0,0,0-2.22.86,2.4,2.4,0,0,1-.87-1.84A2.44,2.44,0,0,1,4.66,9.78h.92l.18-.9a3.28,3.28,0,0,1,3-2.36H10A2.81,2.81,0,0,1,11.39,7l.92.61.62-.92a2.94,2.94,0,0,1,2.45-1.3A2.89,2.89,0,0,1,18,7.07l.38.8.86-.18a3,3,0,0,1,3,1.22l.49.73.82-.31a2.72,2.72,0,0,1,3.69,2.57A2.71,2.71,0,0,1,26.32,14Zm7,16.61a2.8,2.8,0,0,1-2.81,2.8H28.69a2.77,2.77,0,0,1-1.12-.23V24.28A2.78,2.78,0,0,1,28.69,24h1.87a2.81,2.81,0,0,1,2.81,2.8Z"/><rect class="cls-3" x="4.2" y="15.44" width="21.12" height="27.48"/><text class="cls-4" transform="translate(6.68 33.85)">{ }</text></svg>