<?xml version="1.0" encoding="utf-8"?>
<!-- Generator: Adobe Illustrator 23.0.1, SVG Export Plug-In . SVG Version: 6.00 Build 0)  -->
<svg version="1.1" id="Layer_1" xmlns="http://www.w3.org/2000/svg" xmlns:xlink="http://www.w3.org/1999/xlink" x="0px" y="0px"
	 viewBox="0 0 443.1 126.5" style="enable-background:new 0 0 443.1 126.5;" xml:space="preserve">
<style type="text/css">
	.st0{fill:#EA5456;}
	.st1{fill:#3AAA35;}
	.st2{fill:#FFFFFF;}
</style>
<g>
	<g>
		<g>
			<path class="st0" d="M12.7,22C3.6,34.7,0,51.1,0,66.6c0,0,0,0.1,0,0.1c0,0,0,0.1,0,0.1c0,15.5,3.6,31.9,12.7,44.6
				c19,26.6,59.1,11.7,81.5-2.3c14.4-9,27.3-24.7,34.3-34.2c3.6-4.8,3.6-11.4,0-16.3c-7.1-9.6-20-25.3-34.3-34.2
				C71.8,10.3,31.7-4.7,12.7,22z"/>
		</g>
	</g>
</g>
<g>
	<path class="st0" d="M155.5,40.6v-0.1c0-7.8,6.3-11.8,15.5-11.8c4.6,0,7.8,0.6,11.1,1.5v-1.1c0-6.4-3.9-9.8-10.7-9.8
		c-4.3,0-7.6,1.1-11,2.6l-1.6-4.4c4-1.8,7.8-3.1,13.2-3.1c5.1,0,9.1,1.4,11.7,4c2.5,2.5,3.8,6,3.8,10.6v22.1H182v-5.4
		c-2.5,3.2-6.7,6.2-13,6.2C162.2,51.9,155.5,48,155.5,40.6z M182.1,37.8v-3.4c-2.7-0.8-6.2-1.5-10.6-1.5c-6.7,0-10.6,2.9-10.6,7.3
		v0.1c0,4.6,4.2,7.2,9.1,7.2C176.7,47.5,182.1,43.5,182.1,37.8z"/>
	<path class="st0" d="M200.9,14.9h5.4v9.5c2.7-6,7.9-10.4,14.8-10.1v5.8h-0.4c-7.9,0-14.4,5.7-14.4,16.6v14.4h-5.4V14.9z"/>
	<path class="st0" d="M231.5,1.1h6.2v6h-6.2V1.1z M231.8,14.9h5.4v36.2h-5.4V14.9z"/>
	<path class="st0" d="M251.8,14.9h5.4v6.3c2.4-3.9,6.2-7.1,12.4-7.1c8.8,0,13.9,5.9,13.9,14.5v22.5h-5.4V30c0-6.7-3.6-10.9-10-10.9
		c-6.2,0-10.9,4.6-10.9,11.3v20.7h-5.4V14.9z"/>
	<path class="st0" d="M295,33.1V33c0-11.8,8.6-18.8,17.3-18.8c6.7,0,11.1,3.6,13.9,7.7V0h5.4v51.1h-5.4v-7.3
		c-2.9,4.3-7.2,8.1-13.9,8.1C303.6,51.9,295,45,295,33.1z M326.3,33v-0.1c0-8.3-6.4-13.9-13.1-13.9c-7,0-12.7,5.2-12.7,13.9V33
		c0,8.5,5.9,14,12.7,14C319.9,47,326.3,41.4,326.3,33z"/>
	<path class="st0" d="M342.9,40.6v-0.1c0-7.8,6.3-11.8,15.5-11.8c4.6,0,7.8,0.6,11.1,1.5v-1.1c0-6.4-3.9-9.8-10.7-9.8
		c-4.3,0-7.6,1.1-11,2.6l-1.6-4.4c4-1.8,7.8-3.1,13.2-3.1c5.1,0,9.1,1.4,11.7,4c2.5,2.5,3.8,6,3.8,10.6v22.1h-5.3v-5.4
		c-2.5,3.2-6.7,6.2-13,6.2C349.6,51.9,342.9,48,342.9,40.6z M369.5,37.8v-3.4c-2.7-0.8-6.2-1.5-10.6-1.5c-6.7,0-10.6,2.9-10.6,7.3
		v0.1c0,4.6,4.2,7.2,9.1,7.2C364.1,47.5,369.5,43.5,369.5,37.8z"/>
	<path class="st0" d="M388.3,14.9h5.4V21c2.4-3.6,5.6-6.9,11.7-6.9c5.9,0,9.7,3.2,11.6,7.2c2.6-4,6.4-7.2,12.7-7.2
		c8.3,0,13.4,5.6,13.4,14.6v22.4h-5.4V30c0-7-3.5-10.9-9.4-10.9c-5.5,0-10,4.1-10,11.2v20.9H413V29.8c0-6.8-3.6-10.8-9.3-10.8
		s-10.1,4.8-10.1,11.4v20.7h-5.4V14.9z"/>
</g>
<g>
	<path class="st1" d="M155.4,63.8H177c19.6,0,33.1,13.4,33.1,31V95c0,17.5-13.5,31.2-33.1,31.2h-21.6V63.8z M177,119.6
		c15.8,0,25.8-10.7,25.8-24.5V95c0-13.8-10.1-24.7-25.8-24.7h-14.6v49.3H177z"/>
	<path class="st1" d="M246.6,63.4h6.6l28.4,62.7h-7.6l-7.3-16.5h-33.9l-7.4,16.5h-7.2L246.6,63.4z M264,103.3l-14.2-31.8l-14.2,31.8
		H264z"/>
	<path class="st1" d="M283.8,63.8h7.7l17.8,51.9l17.1-52.1h5.8l17.1,52.1L367,63.8h7.4l-22.3,62.7h-6L329.1,76l-17.2,50.6H306
		L283.8,63.8z"/>
	<path class="st1" d="M389.8,63.8h6.6l39.3,49.9V63.8h6.9v62.3h-5.6L396.6,75v51.1h-6.9V63.8z"/>
</g>
<g>
	<path class="st2" d="M47.1,43.1c-1.5,0.3-3.1,0.8-4.6,1.5s-3,1.6-4.2,2.8c-1.3,1.1-2.4,2.4-3.3,3.8l-4.7-4.9h-0.1
		c0-0.2,0.5-0.6,1.5-1.3c0.6-0.4,1.2-0.8,1.7-1.2s1.3-0.8,2.2-1.2c1.6-0.8,3.3-1.5,5.1-2.1c1.8-0.6,3.6-0.9,5.1-0.9h0.7
		c0.7,0,1.5,0.1,2.1,0.3c0.7,0.2,1.4,0.4,2,0.8c1.2,0.6,2.3,1.4,3.3,2.4s1.7,2.2,2.3,3.5c0.6,1.3,1,2.8,1.1,4.3v0.5
		c0,1.1-0.3,2.2-0.8,3.3c-0.6,1.1-1.3,2.1-2.3,2.9c-1,0.8-2,1.4-3.2,1.8l2.4,0.9h13.1l0.6-0.6c0.3-0.3,0.5-0.5,0.7-0.6
		c0.1-0.1,0.3-0.4,0.6-0.7c0.4-0.5,0.6-0.9,0.6-1.3V46.9h-5.7l-5.3-6.5h21.2l0.1,6.5l-4.1-0.1v44.4h-2.2l-4-3.6v-23
		c-0.3,0.2-0.8,0.5-1.5,0.9c-0.7,0.4-1.5,0.5-2.3,0.5l-0.5-0.1l-0.7-0.2L61,64.8l-3.6-0.9l-2.8-0.8c0.2,0.1,0.5,0.3,0.9,0.5
		s0.8,0.6,1.3,0.9c1,0.7,2,1.8,3.2,3.3c1.1,1.5,1.8,3.2,2.1,5.1l0.1,1.8c0,1.5-0.3,3-1,4.3c-0.7,1.3-1.6,2.5-2.8,3.5
		c-1.1,0.9-2.3,1.7-3.7,2.2c-1.4,0.5-2.7,0.8-3.9,0.8c-1.6,0-3.1-0.2-4.5-0.6c-1.4-0.4-2.8-1-4.2-1.8c-2.6-1.5-4.9-3.4-6.8-5.6
		c-1.9-2.1-3.3-4-4.3-5.6l-2-3.3l0.4-1.6c1.9,2.9,3.8,5.2,5.8,7.1c2,1.9,4,3.3,5.9,4.2c1.9,0.9,3.8,1.3,5.6,1.3
		c1.3,0,2.6-0.3,3.8-0.8c1.2-0.5,2.3-1.3,3.3-2.2c1.4-1.4,2-3.1,2-5.1c0-1.2-0.2-2.3-0.5-3.2c-0.3-1-0.6-1.7-0.9-2
		c-1.2-1.8-3.5-2.7-6.7-2.7c-1,0-1.9,0.1-2.7,0.3c-0.8,0.2-1.2,0.3-1.2,0.5l-4.1-5c1.9-0.2,3.8-0.7,5.9-1.5c2-0.8,3.8-1.9,5.3-3.3
		c1.5-1.4,2.4-3.1,2.6-5V49c0-1.1-0.3-2-0.9-2.9s-1.3-1.6-2.2-2.1c-0.9-0.5-1.8-0.8-2.6-0.8H47.1z"/>
</g>
</svg>
