<?xml version="1.0" encoding="utf-8"?>
<!-- Generator: Adobe Illustrator 23.0.1, SVG Export Plug-In . SVG Version: 6.00 Build 0)  -->
<svg version="1.1" id="Layer_1" xmlns="http://www.w3.org/2000/svg" xmlns:xlink="http://www.w3.org/1999/xlink" x="0px" y="0px"
	 viewBox="0 0 543.8 334.8" style="enable-background:new 0 0 543.8 334.8;" xml:space="preserve">
<style type="text/css">
	.st0{fill:#E4E4F3;}
	.st1{fill:#FFFFFF;}
	.st2{fill:#E7E6E6;}
	.st3{fill:#3C4A9A;}
	.st4{fill:none;stroke:#FFFFFF;stroke-miterlimit:10;}
	.st5{fill:#FAB83E;}
	.st6{fill:none;stroke:#B4B4B4;stroke-miterlimit:10;}
	.st7{fill:none;stroke:#B4B4B4;stroke-miterlimit:10;stroke-dasharray:6.9739,6.9739;}
	.st8{fill:#F6A12A;}
	.st9{fill:#E84435;}
	.st10{fill:#FAC59B;}
	.st11{fill:#DBA285;}
	.st12{fill:#401B10;}
	.st13{fill:#4656A2;}
	.st14{fill:#F8B682;}
	.st15{opacity:0.1;}
	.st16{fill:#020203;}
	.st17{fill:none;stroke:#3C4A9A;stroke-width:2;stroke-miterlimit:10;}
	.st18{fill:none;stroke:#3C4A9A;stroke-width:2;stroke-linecap:round;stroke-miterlimit:10;}
	.st19{fill:none;stroke:#3C4A9A;stroke-linecap:round;stroke-miterlimit:10;}
	.st20{fill:none;stroke:#3C4A9A;stroke-miterlimit:10;}
</style>
<g>
	<path class="st0" d="M74.8,35.4C137.6-14.7,219,2.8,222.3,3.6c51.4,11.9,49.1,38.7,105.1,58.8c81.8,29.3,124.8-14.1,171.7,19.3
		c36.7,26.1,52,82.2,41.5,124.4c-19.5,78.1-131.3,123.5-216,112.8c-80.9-10.2-102.2-67-191.9-65.6c-58,0.9-77.8,25.2-100.3,9.6
		C-10.8,233.2-3.9,98.3,74.8,35.4z"/>
	<path class="st1" d="M449.5,301.4H99.1c-5.3,0-9.6-4.3-9.6-9.6V61.2c0-5.3,4.3-9.6,9.6-9.6h350.4c5.3,0,9.6,4.3,9.6,9.6v230.6
		C459.1,297.1,454.8,301.4,449.5,301.4z"/>
	<path class="st2" d="M444.8,52.5H106.1c-8.8-0.3-16.1,5.7-15.9,15.9v5.5l368.1-0.3v-6.3C458.3,59.4,452.2,52.5,444.8,52.5z"/>
	<g>
		<path class="st3" d="M247.7,231.8H122.1c-1.3,0-2.3-1-2.3-2.3V188c0-1.3,1-2.3,2.3-2.3h125.6c1.3,0,2.3,1,2.3,2.3v41.5
			C250,230.8,249,231.8,247.7,231.8z"/>
		<path class="st1" d="M158.4,209.4c0,6.9-5.6,12.5-12.5,12.5c-6.9,0-12.5-5.6-12.5-12.5c0-6.9,5.6-12.5,12.5-12.5
			C152.8,196.9,158.4,202.5,158.4,209.4z"/>
		<g>
			<line class="st4" x1="169" y1="210.7" x2="234.9" y2="210.7"/>
			<line class="st4" x1="169" y1="202.2" x2="200.5" y2="202.2"/>
			<line class="st4" x1="169" y1="218.6" x2="234.9" y2="218.6"/>
		</g>
	</g>
	<path class="st5" d="M438.4,101.1v-6.3c0-4-3.2-7.2-7.2-7.2H294.1c-4,0-7.2,3.2-7.2,7.2v61.4L438.4,101.1z"/>
	
		<rect x="325.1" y="91.8" transform="matrix(0.9286 -0.3711 0.3711 0.9286 -20.7251 134.4277)" class="st5" width="27.7" height="58.6"/>
	<path class="st6" d="M433.2,263.9h-141c-2.9,0-5.2-2.3-5.2-5.2V92.8c0-2.9,2.3-5.2,5.2-5.2h141c2.9,0,5.2,2.3,5.2,5.2v165.9
		C438.4,261.6,436.1,263.9,433.2,263.9z"/>
	
		<rect x="315.7" y="111.7" transform="matrix(0.9286 -0.3711 0.3711 0.9286 -28.7817 132.3583)" class="st5" width="27.7" height="58.6"/>
	
		<rect x="301.2" y="133.5" transform="matrix(0.9286 -0.3711 0.3711 0.9286 -32.1659 127.4188)" class="st5" width="27.7" height="27.7"/>
	
		<rect x="401.8" y="99.1" transform="matrix(0.9286 -0.3711 0.3711 0.9286 -14.4059 162.7201)" class="st5" width="27.7" height="39.4"/>
	<rect x="120.2" y="87.6" class="st2" width="129.8" height="18.9"/>
	<rect x="120.2" y="243.7" class="st2" width="129.8" height="7.3"/>
	<rect x="120.2" y="257.2" class="st2" width="129.8" height="7.3"/>
	<g>
		<path class="st7" d="M247.7,173.8H122.1c-1.3,0-2.3-1-2.3-2.3V130c0-1.3,1-2.3,2.3-2.3h125.6c1.3,0,2.3,1,2.3,2.3v41.5
			C250,172.8,249,173.8,247.7,173.8z"/>
	</g>
	<g>
		<circle class="st8" cx="425.8" cy="64.1" r="3"/>
		<circle class="st9" cx="435.9" cy="64.1" r="3"/>
		<circle class="st3" cx="445.9" cy="64.1" r="3"/>
	</g>
	<path class="st1" d="M409.4,69.1H105.1c-3.3,0-5.9-2.7-5.9-5.9l0,0c0-3.3,2.7-5.9,5.9-5.9h304.2c3.3,0,5.9,2.7,5.9,5.9l0,0
		C415.3,66.4,412.6,69.1,409.4,69.1z"/>
	<path class="st6" d="M449.5,301.4H99.1c-5.3,0-9.6-4.3-9.6-9.6V61.2c0-5.3,4.3-9.6,9.6-9.6h350.4c5.3,0,9.6,4.3,9.6,9.6v230.6
		C459.1,297.1,454.8,301.4,449.5,301.4z"/>
	<g>
		<path class="st3" d="M198.9,173.8H73.4c-1.3,0-2.3-1-2.3-2.3V130c0-1.3,1-2.3,2.3-2.3h125.6c1.3,0,2.3,1,2.3,2.3v41.5
			C201.3,172.8,200.2,173.8,198.9,173.8z"/>
		<path class="st1" d="M109.7,151.4c0,6.9-5.6,12.5-12.5,12.5c-6.9,0-12.5-5.6-12.5-12.5c0-6.9,5.6-12.5,12.5-12.5
			C104.1,138.9,109.7,144.5,109.7,151.4z"/>
		<g>
			<line class="st4" x1="120.2" y1="152.8" x2="186.1" y2="152.8"/>
			<line class="st4" x1="120.2" y1="144.2" x2="151.8" y2="144.2"/>
			<line class="st4" x1="120.2" y1="160.7" x2="186.1" y2="160.7"/>
		</g>
	</g>
	<g>
		<g>
			<path class="st8" d="M57.2,320.2c0,0,8.2,2.3,12.2,4.5c3.2,1.8,3.6,3.3-0.4,3.3c-5.1,0-11.1-0.1-14.7-0.7c-2.4-0.4-1.4-6.1-1-7.1
				L57.2,320.2z"/>
			<polygon class="st10" points="56.5,320.2 57.3,317 53.1,317.5 53.3,320.3 			"/>
			<path class="st3" d="M71.8,327.3c-4.4-0.2-13.6-0.5-16.1-1.1c-1.4-0.3-2.4-1-3-1.6c0.1,1.4,0.5,2.6,1.6,2.8
				c3.6,0.6,9.7,0.7,14.7,0.7C70.7,328,71.6,327.8,71.8,327.3z"/>
			<path class="st11" d="M37.9,209.4c0,0-1-4.8,7.5-11.2c8.6-6.4,13.2-11,13.2-11l8.1-28.1l2.8,1.3c0,0,0.2,22-1.1,28.6
				C67.2,195.6,40.1,224,37.9,209.4z"/>
			<path class="st8" d="M60.1,180.3l9.2,1.3l-0.3,7.7c0,0-13.5,21-22.2,24.3c-8.8,3.3-14-1.8-11.9-5.5c2.1-3.7,22.3-20.7,22.3-20.7
				L60.1,180.3z"/>
			
				<rect x="62.1" y="175" transform="matrix(-0.1559 0.9878 -0.9878 -0.1559 252.7687 145.0059)" class="st5" width="4.6" height="11"/>
			<path class="st11" d="M69.5,166.8c0,0-5.3-13-3.8-14.5c0,0,5,8.4,6.5,11.9"/>
			<g>
				<path class="st5" d="M6.7,312.2c0,0,5.7,6.3,8,10.2c1.8,3.2,1.4,4.7-2,2.6c-4.3-2.6-9.4-5.9-12.2-8.3c-1.9-1.6,2-6,2.9-6.6
					L6.7,312.2z"/>
				<polygon class="st10" points="6.1,311.9 8.5,309.6 4.6,307.8 3.4,310.2 				"/>
			</g>
			<g>
				<path class="st3" d="M54.5,242.2l-16.8-9.4c0,0,2.8,35.4,13.5,51c0,0,0.1,28.5,2,34.6l3.9-0.1c0,0,6-32.4,5.4-37.5
					C61.6,271.4,60.6,257.7,54.5,242.2z"/>
			</g>
			<g>
				<path class="st12" d="M36.7,177.1c0,0-6.7,3.3-7.2,15.6c-0.5,12.4-2.7,12.8-2.7,12.8s9.1,5.3,19.2,0L36.7,177.1z"/>
				<path class="st10" d="M44.8,178.2c2.7,2.5,4,6.5,4.1,10.2c0.1,4.1-6.1,4.7-9.7,2.7c-3.2-1.8-5.4-5.7-4.8-9.1
					C35.2,177.7,41.3,175,44.8,178.2z"/>
				<path class="st10" d="M41.2,183.3l-6.6,1l2.5,16c0.4,2.3,2.5,3.9,4.8,3.5l0,0c2.5-0.4,4.1-2.8,3.4-5.2L41.2,183.3z"/>
				<path class="st12" d="M41.9,177.4c0,0,1.6,8.9-7.3,11.1c-6.3,1.5-6.1-14,2.7-14.4c12.4-0.5,9.6,6.7,9.6,6.7
					S43.9,176.5,41.9,177.4z"/>
				<polygon class="st11" points="43.9,193.5 38.9,191.3 43.6,192.2 				"/>
			</g>
			<path class="st3" d="M51.4,234.9l-20.4,5.4c0,0-5.7,7.8-3.6,38.1c0,0-17.8,15-22.8,29.6l3.3,2.2c0,0,25.1-22.4,28.6-26.2
				C40.7,279.4,48.9,264.2,51.4,234.9z"/>
			<path class="st5" d="M49.2,200.1c-0.4-1.8-1.7-3.3-3.5-4c-3.8-1.4-13-1.5-13.1,11c-0.2,24.5-1.7,33.2-1.7,33.2s4.9,4.3,23.6,1.9
				l-2.5-15.5l2.2-4.7c1.4-3.8,1.3-7.9-0.4-11.6L49.2,200.1z"/>
			<path class="st10" d="M41.6,210.4c0,0-1-4.8,7.5-11.2c8.6-6.4,13.2-11,13.2-11l8.1-28.1l2.8,1.3c0,0,0.2,22-1.1,28.6
				C71,196.6,43.8,224.9,41.6,210.4z"/>
			<path class="st10" d="M69.8,162.7c0,0-1.9-7.9-0.3-9.4c0,0,1.5,3.3,3,6.8c0.5,1.1,5.3,4.6,2.8,4.2
				C72.8,163.9,69.8,162.7,69.8,162.7z"/>
			<path class="st10" d="M46.1,179.8c0,0,2,2.1,3.7,2.5c0,0-0.3,1.5-1.6,2.2L46.1,179.8z"/>
			<path class="st3" d="M15.5,325.9c-3.7-2.4-11.4-7.6-13.1-9.4c-1-1-1.5-2.1-1.8-2.9c-0.7,1.2-0.9,2.5-0.1,3.2
				c2.8,2.4,7.9,5.6,12.2,8.3C14.2,326,15.1,326.2,15.5,325.9z"/>
			<path class="st10" d="M3.7,310.4c0,0,4.5,7.7,6.4,5.7l-3.3-4.9L3.7,310.4z"/>
			<path class="st10" d="M53.8,320.1c0,0,7.8,4.4,8.4,1.6l-5.5-2.3L53.8,320.1z"/>
			<path class="st5" d="M64.5,180.6l8.4,1.5l-0.5,9.7c0,0-12.5,18.8-21.3,22.1c-8.8,3.3-14-1.8-11.9-5.5
				c2.1-3.7,22.3-20.7,22.3-20.7L64.5,180.6z"/>
			
				<rect x="66.5" y="175.3" transform="matrix(-0.1559 0.9878 -0.9878 -0.1559 258.2063 141.0513)" class="st5" width="4.6" height="11"/>
			<path class="st3" d="M54.5,242.2l2.2,6.2L42.6,264l1.3-21C43.9,242.9,48.4,243.1,54.5,242.2z"/>
			<path class="st13" d="M38.1,276.2c-2.9,3-3.8,4.3-4.2,6.1c-0.3,1.4,0,1.6-0.4,2.5c-1.1,2.3-4.2,1.9-7.9,3.6
				c-2.7,1.3-4.5,3.3-8.1,7.3c-1.8,2-1.6,2.1-4.6,5.8c-3.5,4.4-5.6,6.6-6.6,7.9l1.4,0.9c0,0,25.1-22.4,28.6-26.2
				c1.9-2,4.6-6.2,7.2-12.9C43.2,271,41.5,272.7,38.1,276.2z"/>
			
				<rect x="51.8" y="316.1" transform="matrix(-1 -1.224647e-16 1.224647e-16 -1 110.0908 634.7034)" class="st3" width="6.6" height="2.6"/>
			<rect x="2.9" y="307.4" transform="matrix(-0.866 -0.5 0.5 -0.866 -142.8697 579.1738)" class="st3" width="6.6" height="2.6"/>
		</g>
		<g>
			<g>
				<path class="st5" d="M29.2,187l15.1-11.9c-3.3-4.2-9.3-4.9-13.5-1.6C26.6,176.8,25.9,182.9,29.2,187"/>
			</g>
			<path class="st8" d="M34,171.9c-1.1,0.3-2.2,0.9-3.2,1.7c-4.2,3.3-4.9,9.3-1.6,13.5l3.9-3.1C30.5,180.2,30.9,175.2,34,171.9z"/>
			
				<rect x="26.8" y="178.7" transform="matrix(0.8015 -0.598 0.598 0.8015 -100.1636 58.4606)" class="st8" width="22.3" height="2.7"/>
		</g>
		<path class="st3" d="M54.2,222c1.2-3.2,1.3-6.7,0.2-9.9c-5.7,2.1-10.6,1.7-14.2,0.5c-3.1-11,1.8-16,3-17c-1.2-0.1-2.6-0.1-3.9,0.3
			c-1.9,2.8-3.9,7.7-2.3,15.5c-2.9-1.4-4.5-2.9-4.5-2.9l0,0c-0.2,23.4-2.3,32.9-2.3,32.9s5.5,3.2,24.2,0.8l-2.5-15.5L54.2,222z"/>
		<path class="st13" d="M62.6,280.8c-1-9.5-2-23.2-8.1-38.6l-2.5-15.5l2.2-4.7c1.2-3.2,1.3-6.7,0.2-9.9c-1,0.4-1.9,0.6-2.8,0.8
			c0.3,2.7,0.4,6.3-1.4,10.1c-0.6,1.3-1.6,2.9-2,5.4c-0.5,3,0.1,5.5,0.5,6.9c2.1,8.2,4.2,14.1,4.2,14.1c2.9,8.2,4.4,12.3,4.4,14.3
			c0.3,7.5-3.1,11.7-0.2,15.6c1.4,1.9,3.3,2.4,3.5,4.4c0.1,1.9-1.6,2.6-2.7,4.9c-1.6,3.3-0.2,5.6,0,10.4c0.2,4.8-1.2,5.4-1.7,10.6
			c-0.3,2.8-0.3,5.9,0,8.7l1,0C57.2,318.4,63.2,286,62.6,280.8z"/>
	</g>
	<g>
		<g>
			<polygon class="st9" points="162.8,324 130.5,324 141,270.8 152.3,270.8 			"/>
			<rect x="122.9" y="321.4" class="st9" width="46.1" height="5.5"/>
		</g>
		<polygon class="st9" points="162.8,324 130.5,324 141,270.8 152.3,270.8 		"/>
		<polygon class="st1" points="136.6,293.3 156.7,293.3 155.1,285 138.2,285 		"/>
		<polygon class="st1" points="132.7,312.8 160.6,312.8 158.9,304.5 134.4,304.5 		"/>
	</g>
	<g>
		<g>
			<g>
				<path class="st3" d="M509.2,316.1c0,0-12.6,7-16.8,7c-4.2,0-1.1,1.8,3.5,2.3c3.6,0.3,10.8-0.7,15-1.5c0.3-0.1,1.3-1.1,1.3-1.1
					c0.3,1,0.3,1,0.3,1c0.4,0.1,2.2-0.2,2.2-0.2c0.2-2.1-0.9-7.5-0.9-7.5L509.2,316.1z"/>
				<g>
					<polygon class="st14" points="509.2,316.1 509.4,312.7 513.9,312.9 513.7,316.1 					"/>
				</g>
			</g>
		</g>
		<path class="st3" d="M509.1,214.8l15,2.6c0,0-4.6,40-9.3,55.6c0,0,3.1,26.8-0.2,41.3l-5.9,0.3c0,0-5.1-34.3-6.4-40.1
			C500.5,267.5,502.6,250.7,509.1,214.8z"/>
		<polygon class="st3" points="507.3,311.2 507.7,315 515.2,314.9 515.6,311.4 		"/>
		<g>
			<g>
				<g>
					<path class="st3" d="M526.9,317.5c0,0-12.6,7-16.8,7c-4.2,0-1.1,1.8,3.5,2.3c3.6,0.3,10.8-0.7,15-1.5c0.3-0.1,1.3-1.1,1.3-1.1
						c0.3,1,0.3,1,0.3,1c0.4,0.1,2.2-0.2,2.2-0.2c0.2-2.1-0.9-7.5-0.9-7.5L526.9,317.5z"/>
					<g>
						<polygon class="st14" points="526.9,317.5 527.1,314.1 531.5,314.3 531.4,317.4 						"/>
					</g>
				</g>
			</g>
			<path class="st3" d="M516.3,217.1l15.9,12.4c0,0,5.2,7.7-2.8,43.9c0,0,6.9,19.9,2.5,42.1l-5.9,0.9c0,0-7.1-36.9-9-42.5
				C514.7,267.2,512.8,248.5,516.3,217.1z"/>
			<polygon class="st3" points="524.6,312.8 525.4,316.7 532.7,315.9 532.9,312.4 			"/>
			<polygon class="st3" points="515.2,229.3 506.6,229 505.2,237.3 517.7,258.7 			"/>
		</g>
		<path class="st3" d="M509.5,325.1"/>
		<g>
			<g>
				<path class="st5" d="M524.4,184.7c0,0-5.9-5.3-13.1,5.4c-7.2,10.7-11.9,15.7-11.9,15.7l-27.2-15l-2.8,5.8
					c0,0,24.5,28.1,32.3,26.2C509.5,220.9,542,186.5,524.4,184.7z"/>
				<path class="st14" d="M469.5,196.8c0,0-13.2-10.2-6.9-8.4c2.9,0.8,5.4,3,6.4,2.1c1-0.9-1.1-1.7-1.5-3.6
					c-0.3-1.8,5.9,4.8,5.9,4.8L469.5,196.8z"/>
				<g class="st15">
					<polygon class="st16" points="478.7,199.5 490,210.1 477.2,204.1 					"/>
				</g>
				<g class="st15">
					<g>
						<polygon class="st16" points="498.6,216.1 512.2,203.8 512.2,207 505.4,217.9 						"/>
					</g>
				</g>
				<polygon class="st5" points="467.8,196.6 470.6,198.7 475.8,192.3 473,190.2 				"/>
			</g>
			<path class="st5" d="M518.7,180.4c4.6-1.7,17.5-2.8,19.4,8.3c1.8,10.1-2,18.8-3.5,26c-1.1,5.1-1.7,12.8-1.7,12.8
				s-8.4,10-24.2,5.5l1-17.1l1.1-9.5c-0.9-10.7-0.6-12.1,1.3-17.5c0.8-2.3,3.7-7.1,5.9-8.2C518.3,180.6,518.5,180.5,518.7,180.4z"/>
			<path class="st3" d="M511.8,197.9l-1.3-1c0-6.9,2.8-16.4,13.9-17.2h0.3C510.4,182.5,511.8,197.8,511.8,197.9z"/>
			<path class="st14" d="M522.7,162.5l8.2-0.1l-1,17.1c0,0.5-0.2,1.1-0.6,1.4c-3.3,2.4-6.2,1.2-6.2,1.2c-2.8-0.7-0.8-1.9-0.4-5
				L522.7,162.5z"/>
			<path class="st14" d="M521.7,158.7c-4,5-4.4,9.4-4.3,13.9c0.2,5.8,7.9,5.8,12.8,2.8c4.3-2.7,6.4-7.7,5.3-12.4
				C534.1,156.9,526,153.3,521.7,158.7z"/>
			<g class="st15">
				<polygon class="st16" points="522.4,178.9 527,177 522.7,177.4 				"/>
			</g>
			<path class="st14" d="M519.1,164.2c0,0-1.7,1.3-3.4,3.5c0,0,0.7,1.5,2.2,2L519.1,164.2z"/>
			<path class="st12" d="M536.4,162.1c-0.3-7.9-14-7.8-15.6-6.5c-3.2,2.5-0.6,5.3-0.6,5.3l0.7-0.5c0.1-0.1,0.2-0.1,0.4-0.2
				c2,0.3,9.1,1.7,6.9,7.3c-0.5,1.4,0.7,2,2.1,2.1c0.1,1.7,0.1,3.5-0.2,5.3C529.8,176.3,536.9,174.9,536.4,162.1z"/>
			<g>
				<g>
					<path class="st3" d="M479.3,206.3l-1.9,2.2l-27.4-24.2c-0.3-0.2-0.3-0.6-0.1-0.9l1.5-1.7L479.3,206.3z"/>
				</g>
				<path class="st1" d="M478.1,198.4c0.8,0.7,1.2,1.7,1.2,2.8l0,5.2l-27.9-24.7l8,1.2c0.9,0.1,1.8,0.6,2.5,1.2L478.1,198.4z"/>
			</g>
			<path class="st14" d="M525.5,170.8c0.6,1,2.3,1,3.6,0.1c1.4-0.9,2-2.4,1.3-3.4c-0.6-1-2.3-1-3.6-0.1
				C525.5,168.3,524.9,169.8,525.5,170.8z"/>
			<path class="st3" d="M533,231.8c0,0,0.5-12.1,1.6-17.2c0.6-2.9,1.6-6,2.4-9.3c-10.2-0.9-19.9-5.1-26.6-8.6
				c-0.1,2.2,0.1,5.1,0.5,9.6l-2.1,9.5l-2.9,17.3C521.6,237.6,533,231.8,533,231.8z"/>
			<path class="st17" d="M522.8,180.9"/>
		</g>
		<path class="st3" d="M528,242.7l-5.3-1.4c6.8-25.2,10.2-48.8,7.3-51.5c-1.9-1.7-3.1-1.6-3.9-1.4c-4,1.1-7.9,9.8-9.1,13.9l-4.2-1.6
			c0.5-1.6,3.8-15.4,11.8-17.6c2.1-0.6,5.4-0.6,9,2.6C540.8,192.1,532.1,227.7,528,242.7z"/>
		<g>
			<path class="st5" d="M526.6,186.5c0,0-5.4,0-11.2,11.5c-5.8,11.5-8.8,14.5-8.8,14.5l-27.3-12.1l-4.7,6.2c0,0,29.2,24.9,36.1,20.7
				C523.3,219.5,544.3,186.2,526.6,186.5z"/>
			<path class="st14" d="M474.5,206.7c0,0-6.2,0.5-7.7-3.2c-0.9-2.4-4.3-7.6-1-5.2c2.1,1.5,4.9,4.4,5.7,3.2c0.8-1.2-3.5-1.6-2.4-3.9
				l7.3,4.1L474.5,206.7z"/>
		</g>
		<polygon class="st5" points="472.4,208.3 475.5,209.9 480.7,200.7 477.6,199.1 		"/>
		<g>
			<g>
				<path class="st5" d="M537.3,164.7l-17.1-8.7c2.4-4.7,8.2-6.6,12.9-4.2C537.8,154.2,539.7,160,537.3,164.7"/>
			</g>
			<path class="st8" d="M529.6,150.8c1.2,0.1,2.4,0.4,3.5,1c4.7,2.4,6.6,8.2,4.2,12.9l-4.5-2.3C534.7,158.3,533.3,153.4,529.6,150.8
				z"/>
			
				<rect x="526" y="148.5" transform="matrix(0.4283 -0.9036 0.9036 0.4283 157.1728 567.8053)" class="st8" width="2.7" height="22.3"/>
		</g>
	</g>
	<g>
		<g>
			<polygon class="st9" points="491.6,324 459.3,324 469.8,270.8 481.1,270.8 			"/>
			<rect x="451.6" y="321.4" class="st9" width="46.1" height="5.5"/>
		</g>
		<polygon class="st9" points="491.6,324 459.3,324 469.8,270.8 481.1,270.8 		"/>
		<polygon class="st1" points="465.3,293.3 485.5,293.3 483.9,285 467,285 		"/>
		<polygon class="st1" points="461.5,312.8 489.4,312.8 487.7,304.5 463.1,304.5 		"/>
	</g>
	<g>
		<g>
			<path class="st3" d="M250.1,334.8c0.7,0,1.2-0.5,1.4-1.1l24.4-119.2c0.2-0.8-0.3-1.5-1.1-1.7c-0.8-0.2-1.5,0.3-1.7,1.1
				l-24.4,119.2c-0.2,0.8,0.3,1.5,1.1,1.7C249.9,334.8,250,334.8,250.1,334.8z"/>
			<path class="st13" d="M273.4,225.9h35.3c0.8,0,1.4-0.6,1.4-1.4s-0.6-1.4-1.4-1.4h-35.3c-0.8,0-1.4,0.6-1.4,1.4
				S272.6,225.9,273.4,225.9z"/>
			<path class="st13" d="M269.9,241.3h35.3c0.8,0,1.4-0.6,1.4-1.4c0-0.8-0.6-1.4-1.4-1.4h-35.3c-0.8,0-1.4,0.6-1.4,1.4
				C268.5,240.6,269.2,241.3,269.9,241.3z"/>
			<path class="st13" d="M267,256.6h35.3c0.8,0,1.4-0.6,1.4-1.4s-0.6-1.4-1.4-1.4H267c-0.8,0-1.4,0.6-1.4,1.4S266.2,256.6,267,256.6
				z"/>
			<path class="st13" d="M263.8,271.9h35.3c0.8,0,1.4-0.6,1.4-1.4c0-0.8-0.6-1.4-1.4-1.4h-35.3c-0.8,0-1.4,0.6-1.4,1.4
				C262.4,271.3,263,271.9,263.8,271.9z"/>
			<path class="st13" d="M260.8,287.3H296c0.8,0,1.4-0.6,1.4-1.4c0-0.8-0.6-1.4-1.4-1.4h-35.3c-0.8,0-1.4,0.6-1.4,1.4
				C259.4,286.6,260,287.3,260.8,287.3z"/>
			<path class="st13" d="M257.8,302.6h35.3c0.8,0,1.4-0.6,1.4-1.4c0-0.8-0.6-1.4-1.4-1.4h-35.3c-0.8,0-1.4,0.6-1.4,1.4
				C256.4,302,257,302.6,257.8,302.6z"/>
			<path class="st13" d="M254.7,318H290c0.8,0,1.4-0.6,1.4-1.4c0-0.8-0.6-1.4-1.4-1.4h-35.3c-0.8,0-1.4,0.6-1.4,1.4
				C253.3,317.3,254,318,254.7,318z"/>
			<path class="st3" d="M287.8,334.8c0.7,0,1.2-0.5,1.4-1.1l24.4-119.2c0.2-0.8-0.3-1.5-1.1-1.7c-0.8-0.2-1.5,0.3-1.7,1.1
				l-24.4,119.2c-0.2,0.8,0.3,1.5,1.1,1.7C287.6,334.8,287.7,334.8,287.8,334.8z"/>
		</g>
	</g>
	<g>
		<g>
			<line class="st18" x1="404" y1="137.9" x2="411.3" y2="156.3"/>
			<polyline class="st19" points="385,133.5 387.4,137.6 403.7,137.1 415.7,126.4 413.9,120.4 			"/>
			<line class="st19" x1="415.3" y1="119.3" x2="383.5" y2="133.3"/>
			<path class="st8" d="M410.9,127.6l-18.6,7.8c-2.7,1.1-5.8-0.1-6.9-2.8l0,0c-1.1-2.7,0.1-5.8,2.8-6.9l18.6-7.8
				c2.7-1.1,5.8,0.1,6.9,2.8l0,0C414.8,123.3,413.5,126.4,410.9,127.6z"/>
			<path class="st5" d="M391.2,133.3l18.6-7.8c2.4-1,3.7-3.7,3.1-6.2c-1.4-1.7-3.9-2.4-6.1-1.5l-18.6,7.8c-2.4,1-3.7,3.7-3.1,6.2
				C386.5,133.5,389,134.2,391.2,133.3z"/>
		</g>
		<g>
			<g>
				<polygon class="st3" points="387.1,303.8 363,303.8 358.5,270.8 391.5,270.8 				"/>
				<path class="st20" d="M360.7,271.6c0-7.9,6.4-14.4,14.4-14.4c7.9,0,14.4,6.4,14.4,14.4"/>
			</g>
			<path class="st5" d="M384.8,271.9c0.2-0.2,0.3-0.6,0.2-1.1h-19.9c-0.4,2.3,0.6,4.7,1.4,4.8c1,0.1,1.7-3.4,2.9-3.3
				c1,0.1,2.5,2.4,1.5,8.1c-0.9,5,2.1,6,2.5,6c3.1-0.6,1.1-11.9,3.8-12.7c1-0.3,2.1,1.2,3.4,0.6c1.1-0.5,1.2-1.8,2.6-2.2
				C384,271.8,384.5,272.2,384.8,271.9z"/>
		</g>
		<g>
			<g>
				<g>
					<path class="st5" d="M405.7,241.1l15.5,2.8l11.7-6.1c0,0-1.2-8.3-1.1-10.6c0.2-5.5,2.8-18-1.1-26.9c-2.9-6.5-8.3-3.6-15.1-1.4
						l-7.7,0.8c0,0-12.3-7.4-3.7,26.9C405.2,230.5,405.7,241.1,405.7,241.1z"/>
					<g>
						<path class="st10" d="M412.1,175.1c-3.1,3.1-4.3,8-4.2,12.5c0.1,4.9,7.6,5.1,11.8,2.5c3.7-2.3,6.1-7.2,5.1-11.2
							C423.5,173.8,416.2,170.9,412.1,175.1z"/>
						<path class="st10" d="M410.5,177.3c0,0-1.9,2.2-3.4,2.7c0,0,0.4,1.4,1.6,2L410.5,177.3z"/>
					</g>
					<g>
						<path class="st5" d="M401.1,202.6l-4,15.1l-2.5,7.8l-15.1,26.6l4.7,3.2l19.1-26.7l2.9-8.3l11.3-22c0.9-2.6-4.6-2.5-7.2-3.4
							C407.9,193.8,403,197.2,401.1,202.6z"/>
						<path class="st10" d="M380.3,250.9c0,0-5.7,6.3-1.8,5.9c2.7-0.3,0.8-0.7,0.8-0.7s-3.9,3.4-2.2,3.4c1.7-0.1,5.3,1.5,6.2-0.9
							c1.1-2.8,1.6-4.5,1.6-4.5L380.3,250.9z"/>
						
							<rect x="381.4" y="247.7" transform="matrix(0.5629 -0.8265 0.8265 0.5629 -40.5362 426.8153)" class="st5" width="3.6" height="8.1"/>
					</g>
					<g>
						<g>
							<polygon class="st5" points="418.8,184.1 408.5,155.4 413.7,153.1 427.8,182.7 429.3,191.4 419.8,192.3 							"/>
							<path class="st5" d="M427.7,212.3c-2.7,0.4-5.3-1.4-5.7-4.1l-2.1-16l9.4-0.8l3,13.9C432.7,208.1,430.4,211.9,427.7,212.3z"/>
						</g>
						<path class="st10" d="M410.1,155.9c0,0-5.9-6.2-3.4-7.5l1.8,3c0,0-2.1-7.7-0.5-7.3c1.7,0.4,5.4,2.5,5,5
							c-0.5,3-0.7,5.4-0.7,5.4L410.1,155.9z"/>
						
							<rect x="409.9" y="152" transform="matrix(0.3711 0.9286 -0.9286 0.3711 403.3855 -284.4613)" class="st5" width="3.6" height="7.1"/>
					</g>
					<polygon class="st10" points="410.9,187.7 411.7,203.9 420.5,201.1 416.3,186.3 					"/>
					<path class="st3" d="M413.8,233.9c0.5-18.5-1.9-33.2-3.4-39.1c-1.1-0.3-2.5,0-4,1c1.4,5.5,3.8,18.9,3.3,38.1L413.8,233.9z"/>
				</g>
				<g>
					<g>
						<path class="st3" d="M435.5,251.5c2-14.1-3.5-23.6-3.5-23.6c-9.1,5.1-27,3.9-27,3.9l-2.5,23.8l-1.4,26.3
							c0,0,0.6,14.7,6.8,34.3l7-1.1c0,0,1.3-13.9-1.1-33.7c0,0,3.5-14.2,5.4-21.5c0.1-0.5,2.2-1.2,2.3-1.7
							C421.5,258.2,432,257.7,435.5,251.5z"/>
						<path class="st3" d="M423.7,316l6.1-0.9c0,0,2.9-14.4,0-33.3c0,0,4.9-10.8,5.3-27.8c0.2-0.8,0.3-1.7,0.4-2.5
							c-3.5,6.2-14,6.7-14,6.7l-4.5,24.9C417,283.1,418.9,295,423.7,316z"/>
						<path class="st13" d="M425,257.7c-2,0.4-3.5,0.5-3.5,0.5l-4.5,24.9c0,0,1.8,11.8,6.6,32.5c0.7-0.5,1.3-1,1.6-1.7
							c0.6-1.4-0.3-2.3-1.5-6.9c-0.7-2.9-0.3-2.4-1.5-8.1c-0.9-4.4-1.3-6.6-1.7-7.7c-1.2-3-2.4-4.3-1.7-5.9c0.6-1.6,2.2-1.8,2.2-3.2
							c0-1.2-1.1-1.6-1.7-2.7c-1.4-2.6,1.4-6.6,2.2-7.9C423.2,268.8,424.8,264.6,425,257.7z"/>
					</g>
					<polygon class="st10" points="407.9,316.2 409.2,320.5 414.1,320.2 414.1,315.3 					"/>
					<g>
						<path class="st5" d="M400.3,327c0,0,0.1-2.9,5.5-3.8c2.9-0.5,1.4-2.6,1.4-2.6l5.4-1.7l-5.1,9L400.3,327z"/>
						<g>
							<path class="st3" d="M413.4,318.8c-3.6,0-3.4,3.1-3.9,5l0,0c0,0-2.5,3.7-8,3.2c1.3,0.2,3.4,0.5,5,0.7c1.7,0.2,3.4,0.1,5-0.3
								l3-0.8c1.8-1,3.7-7.6-0.9-7.8C413.6,318.8,413.5,318.8,413.4,318.8z"/>
							<path class="st8" d="M400.6,327c0.3,0,0.6,0.1,0.9,0.1C400.4,327,399.9,326.9,400.6,327z"/>
						</g>
					</g>
					<polygon class="st10" points="423.7,316 424.9,320.3 429.8,320 429.8,315.1 					"/>
					<g>
						<path class="st5" d="M416,326.8c0,0,0.1-2.9,5.5-3.8c2.9-0.5,1.4-2.6,1.4-2.6l5.4-1.7l-5.1,9L416,326.8z"/>
						<g>
							<path class="st3" d="M429.2,318.6c-3.6,0-3.4,3.1-3.9,5l0,0c0,0-2.5,3.7-8,3.2c1.3,0.2,3.4,0.5,5,0.7c1.7,0.2,3.4,0.1,5-0.3
								l3-0.8c1.8-1,3.7-7.6-0.9-7.8C429.4,318.6,429.3,318.6,429.2,318.6z"/>
							<path class="st8" d="M416.4,326.8c0.3,0,0.6,0.1,0.9,0.1C416.2,326.8,415.6,326.7,416.4,326.8z"/>
						</g>
					</g>
				</g>
				
					<rect x="406.4" y="313.4" transform="matrix(0.9941 -0.1083 0.1083 0.9941 -31.7255 46.358)" class="st3" width="9.2" height="3.9"/>
				
					<rect x="422.2" y="312.5" transform="matrix(0.9941 -0.1083 0.1083 0.9941 -31.5343 48.0599)" class="st3" width="9.2" height="3.9"/>
				<path class="st1" d="M410.8,193.7l-0.1,2.7c0,0,3.6,1.2,5.8,0.6c2.2-0.7,3-2.8,3-2.8l-0.7-2
					C418.7,192.2,416.7,195.4,410.8,193.7z"/>
				<path class="st12" d="M412.5,171.3c0,0-5.2,4.7,1.2,9.6c0,0,2.4,1.7-1.1,5.9c-0.7,0.9-0.7,2.1,0,3c2.1,2.5,6.8,6.2,11.8-1.6
					c2.3-3.6,2.6-7.8,0.7-10.3c-1.8-2.4-3.5-3.7-6.4-4.7C416.1,172.3,414.7,172.6,412.5,171.3z"/>
				<path class="st12" d="M412.5,186.8c-6.2,5.4-5.8,12.7-5.8,13.9c0.1,5.9,6,10.7,6.1,12c0.4,3.8-5.7,11.8-4.9,15.8
					c1.3,5.7,11.5,7.8,21.5,3.6c11.5-4.8,12.9-20,2.7-30.5c-4.5-4.6-3-13.7-3.9-20.3c-0.5-4-1.7,0.2-3.6-2.7
					c-2.9-4.4-10-5.9-11.1-4.6c-1,1.3,3.5,4.6,2.5,8.4C415.5,184.3,414.9,184.7,412.5,186.8z"/>
				<path class="st10" d="M415.6,182.3c0.4,0.8-0.1,1.9-1,2.4c-1,0.5-2.1,0.3-2.5-0.5c-0.4-0.8,0.1-1.9,1-2.4
					C414.1,181.3,415.2,181.6,415.6,182.3z"/>
			</g>
		</g>
		<g>
			<g>
				<path class="st5" d="M427.7,184.1l-15.1-11.9c3.3-4.2,9.3-4.9,13.5-1.6C430.3,173.9,431,180,427.7,184.1"/>
			</g>
			<path class="st8" d="M422.9,169c1.1,0.3,2.2,0.9,3.2,1.7c4.2,3.3,4.9,9.3,1.6,13.5l-3.9-3.1C426.4,177.3,426,172.3,422.9,169z"/>
			
				<rect x="417.6" y="166.1" transform="matrix(0.598 -0.8015 0.8015 0.598 26.3693 407.0131)" class="st8" width="2.7" height="22.3"/>
		</g>
	</g>
</g>
</svg>
