<?xml version="1.0" encoding="utf-8"?>
<!-- Generator: Adobe Illustrator 23.0.1, SVG Export Plug-In . SVG Version: 6.00 Build 0)  -->
<svg version="1.1" id="Layer_1" xmlns="http://www.w3.org/2000/svg" xmlns:xlink="http://www.w3.org/1999/xlink" x="0px" y="0px"
	 viewBox="0 0 704.7 541" style="enable-background:new 0 0 704.7 541;" xml:space="preserve">
<style type="text/css">
	.st0{fill:#E4E9F7;}
	.st1{fill:#7AB3E2;}
	.st2{fill:#3F65AE;}
	.st3{fill:#C9D6EF;}
	.st4{opacity:0.2;fill:#424261;}
	.st5{opacity:0.21;fill:#E4E9F7;}
	.st6{fill:#FAFCFD;}
	.st7{fill:#7C6EB0;}
	.st8{fill:#A488BE;}
	.st9{fill:#6056A1;}
	.st10{fill:#CFD4ED;}
	.st11{fill:#F8D3A9;}
	.st12{fill:#4F4F9D;}
	.st13{fill:#F18846;}
	.st14{fill:#CED2EB;}
	.st15{fill:#FCC141;}
	.st16{fill:#91C141;}
	.st17{fill:#E94F26;}
	.st18{fill:#FFFFFF;}
	.st19{fill:#E94B45;}
	.st20{fill:#3EC0F0;}
	.st21{fill:#EB5C9D;}
	.st22{fill:#FCC259;}
	.st23{fill:#CB62A2;}
	.st24{fill:#F39A75;}
	.st25{fill:#EA5073;}
	.st26{fill:#FEC702;}
</style>
<g>
	<g>
		<g>
			<path class="st0" d="M589.3,526.8H23.7c-3.8,0-6.9-3.1-6.9-6.9V122c0-3.8,3.1-6.9,6.9-6.9h565.6c3.8,0,6.9,3.1,6.9,6.9v397.8
				C596.2,523.7,593.1,526.8,589.3,526.8z"/>
			<path class="st1" d="M583.1,521.4H29.9c-3,0-5.5-2.5-5.5-5.5V126c0-3,2.5-5.5,5.5-5.5h553.2c3,0,5.5,2.5,5.5,5.5v389.9
				C588.6,518.9,586.1,521.4,583.1,521.4z"/>
			<path class="st2" d="M560.8,486H52.2c-1.9,0-3.4-1.5-3.4-3.4V142.8c0-1.9,1.5-3.4,3.4-3.4h508.6c1.9,0,3.4,1.5,3.4,3.4v339.9
				C564.2,484.5,562.6,486,560.8,486z"/>
			<path class="st0" d="M2.7,505.5C1,508.5,0,512,0,515.8c0,12,9.7,21.7,21.7,21.7h569.5c12,0,21.7-9.7,21.7-21.7
				c0-3.7-1-7.2-2.7-10.3H2.7z"/>
		</g>
		<path class="st3" d="M2.7,526c3.7,6.8,10.8,11.4,19,11.4h569.5c8.3,0,15.3-4.7,19-11.4H2.7z"/>
	</g>
	<path class="st4" d="M570.3,115.1H183.6v258.4c0,5.7,4.6,10.3,10.3,10.3h402.2V141C596.2,126.7,584.6,115.1,570.3,115.1z"/>
	<path class="st5" d="M647.7,372.2H200.6c-1.5,0-2.8-1.2-2.8-2.8V87.9c0-1.5,1.2-2.8,2.8-2.8h447.1c1.5,0,2.8,1.2,2.8,2.8v281.6
		C650.5,371,649.2,372.2,647.7,372.2z"/>
	<path class="st6" d="M665.8,352.8H218.7c-1.5,0-2.8-1.2-2.8-2.8V68.5c0-1.5,1.2-2.8,2.8-2.8h447.1c1.5,0,2.8,1.2,2.8,2.8V350
		C668.6,351.6,667.3,352.8,665.8,352.8z"/>
	<path class="st4" d="M137.1,261.6H81.7c-1,0-1.7-0.8-1.7-1.7v-58c0-1,0.8-1.7,1.7-1.7h55.4c1,0,1.7,0.8,1.7,1.7v58
		C138.9,260.9,138.1,261.6,137.1,261.6z"/>
	<path class="st1" d="M133.7,350.9H78.3c-1,0-1.7-0.8-1.7-1.7v-58c0-1,0.8-1.7,1.7-1.7h55.4c1,0,1.7,0.8,1.7,1.7v58
		C135.5,350.1,134.7,350.9,133.7,350.9z"/>
	<path class="st1" d="M133.7,438.2H78.3c-1,0-1.7-0.8-1.7-1.7v-58c0-1,0.8-1.7,1.7-1.7h55.4c1,0,1.7,0.8,1.7,1.7v58
		C135.5,437.4,134.7,438.2,133.7,438.2z"/>
	<g>
		<path class="st7" d="M118.9,400.7c0-7.7-6.3-14-14-14c-7.7,0-14,6.3-14,14c0,0-2,14.8,14,26.6
			C120.9,415.5,118.9,400.7,118.9,400.7z"/>
		<path class="st6" d="M105.7,410.8c-6.2,0.5-11.4-4.7-10.9-10.9c0.4-4.9,4.4-8.9,9.3-9.3c6.2-0.5,11.4,4.7,10.9,10.9
			C114.6,406.4,110.6,410.4,105.7,410.8z"/>
	</g>
	<g>
		<g>
			<g>
				<path class="st7" d="M124,319.3c0,10.7-8.7,19.3-19.3,19.3s-19.3-8.7-19.3-19.3s8.7-19.3,19.3-19.3S124,308.7,124,319.3z"/>
				<path class="st6" d="M120.2,319.3c0,8.6-7,15.6-15.6,15.6C96,335,89,328,89,319.3c0-8.6,7-15.6,15.6-15.6
					C113.2,303.7,120.2,310.7,120.2,319.3z"/>
				<path class="st8" d="M104.6,303.7c7.1,0,13,4.7,15,11.2c0.1,0.3,0.3,0.5,0.6,0.5l0,0c0.4,0,0.7-0.4,0.6-0.8
					c-2.1-7-8.5-12.1-16.2-12.1c-7.6,0-14.1,5.1-16.2,12.1c-0.1,0.4,0.2,0.8,0.6,0.8l0,0c0.3,0,0.5-0.2,0.6-0.5
					C91.6,308.4,97.6,303.7,104.6,303.7z"/>
				<path class="st9" d="M121.9,319.8c-0.9,0-1.7,0.7-1.9,1.6c-1,7.6-7.6,13.5-15.5,13.5c-7.9,0-14.4-5.9-15.5-13.5
					c-0.1-0.9-0.9-1.6-1.9-1.6l0,0c-1.1,0-2,1-1.9,2.1c1.3,9.5,9.4,16.7,19.2,16.7c9.8,0,17.9-7.3,19.2-16.7
					C124,320.8,123.1,319.8,121.9,319.8L121.9,319.8z"/>
				<path class="st6" d="M120.2,319.3c0,8.6-7,15.6-15.6,15.6C96,335,89,328,89,319.3c0-8.6,7-15.6,15.6-15.6
					C113.2,303.7,120.2,310.7,120.2,319.3z"/>
				<path class="st7" d="M119.8,324.4c-0.3,0-0.5,0.2-0.6,0.4c-2.2,5.9-7.9,10.2-14.6,10.2c-6.7,0-12.4-4.2-14.6-10.2
					c-0.1-0.2-0.3-0.4-0.6-0.4l0,0c-0.4,0-0.7,0.4-0.6,0.8c2.4,6.4,8.6,11,15.8,11c7.2,0,13.4-4.6,15.8-11
					C120.6,324.8,120.3,324.4,119.8,324.4L119.8,324.4z"/>
			</g>
			<path class="st7" d="M104.6,320.7L104.6,320.7c-0.4,0-0.7-0.3-0.7-0.7v-11c0-0.4,0.3-0.7,0.7-0.7l0,0c0.4,0,0.7,0.3,0.7,0.7v11
				C105.3,320.4,105,320.7,104.6,320.7z"/>
			<path class="st7" d="M104,319.6L104,319.6c0.3-0.3,0.7-0.4,1.1-0.1l6.8,5.7c0.3,0.3,0.4,0.7,0.1,1.1l0,0
				c-0.3,0.3-0.7,0.4-1.1,0.1l-6.8-5.7C103.8,320.3,103.8,319.9,104,319.6z"/>
		</g>
		<g>
			<rect x="104.2" y="304.8" class="st10" width="0.6" height="1.5"/>
			<rect x="104.2" y="332.1" class="st10" width="0.6" height="1.5"/>
		</g>
		<g>
			
				<rect x="90.5" y="318.5" transform="matrix(6.123234e-17 -1 1 6.123234e-17 -228.4172 410.03)" class="st10" width="0.6" height="1.5"/>
			
				<rect x="117.9" y="318.5" transform="matrix(6.123234e-17 -1 1 6.123234e-17 -201.0785 437.3687)" class="st10" width="0.6" height="1.5"/>
		</g>
		<g>
			
				<rect x="94.5" y="308.8" transform="matrix(0.7074 -0.7068 0.7068 0.7074 -191.0572 157.5877)" class="st10" width="0.6" height="1.5"/>
			
				<rect x="113.9" y="328.1" transform="matrix(0.7071 -0.7071 0.7071 0.7071 -199.1287 177.0396)" class="st10" width="0.6" height="1.5"/>
		</g>
		<g>
			
				<rect x="94.5" y="328.1" transform="matrix(-0.7071 -0.7071 0.7071 -0.7071 -70.7238 628.4821)" class="st10" width="0.6" height="1.5"/>
			
				<rect x="113.9" y="308.8" transform="matrix(-0.7074 -0.7068 0.7068 -0.7074 -23.8979 609.2237)" class="st10" width="0.6" height="1.5"/>
		</g>
	</g>
	<g>
		<path class="st1" d="M133.7,259.7H78.3c-1,0-1.7-0.8-1.7-1.7v-58c0-1,0.8-1.7,1.7-1.7h55.4c1,0,1.7,0.8,1.7,1.7v58
			C135.5,258.9,134.7,259.7,133.7,259.7z"/>
		<g>
			<polyline class="st11" points="73.8,253.4 78.6,250 80.8,242 78.4,241.5 76.9,244.4 78.4,230.6 76,231.1 73.5,244.4 70.6,250.7 
				73.3,252.4 			"/>
			<polygon class="st11" points="102.5,267.8 103.1,262 110.2,254.9 111.9,257.1 109.3,260 122.8,256.8 122.8,259.7 110.2,264.6 
				107.7,269.1 			"/>
			<g>
				<g>
					<polygon class="st12" points="14,411.7 40.4,541 60.4,538.9 46.8,533.9 51.8,532.4 44.7,411.7 					"/>
					<path class="st12" d="M56.1,409.5c0,0,33.6,31.4,28.6,69.3c-5.7,30-17.9,41.5-17.9,41.5l-3.6-0.7l5.5,14.7l-16.1-17.2
						c0,0,19.8-27.3,7.5-55.8s-39.1-38.6-39.1-38.6s23.1-20.9,24.7-20.4C47.4,402.9,56.1,409.5,56.1,409.5z"/>
					<g>
						<path class="st13" d="M70.4,248.5c0,0-55.2,67-61.6,80.4c0,0-2.7,4.8-2.7,18.8c0,13.9,4.8,65.4,4.8,65.4l56.3,3.2
							c0,0-18.2-62.7-18.8-64.3c-0.5-1.6-9.6-11.3-18.2-13.4l47.2-85.2L70.4,248.5z"/>
						<g>
							<path class="st11" d="M35.5,332.1c0,0,2.3,7,3.6,11.2c0,0-11.5-0.2-15.5-5.6l4.3-10.3L35.5,332.1z"/>
							<g>
								<path class="st11" d="M44.2,310.3c0,0,3.4,19.8,0,24.3c-3.4,4.5-15-3.1-19.9-10.3c-4.9-7.2-5.8-23.4,2.4-24.7
									C35,298.2,42.3,303.2,44.2,310.3z"/>
							</g>
						</g>
						<path class="st13" d="M39,347c0,0,44.3-27.8,47.8-33.6c3.6-5.7,13.6-48.2,13.6-48.2l8.6,2.1c0,0-5,47.5-6.4,52.5
							c-1.4,5-45,51.4-55,51.4C37.5,371.3,34,358.4,39,347z"/>
					</g>
				</g>
				<path class="st12" d="M20.4,300.4c0,0,5.8-8.1,16.2-6.1c10.3,1.9,12.9-0.3,12.9-0.3s-2.3,11.3-9.4,13.9
					c-7.1,2.6-9.1,1.9-9.1,1.9s3.9,3.9,4.8,6.8c1,2.9-3.2-3.6-4.8-1.3c-1.6,2.3,0,7.1,3.2,6.8c3.2-0.3,1.3,2.3,0,4.8
					c-1.3,2.6-3.2,5.8-5.2,4.8s-8.7-4.8-11.3-12.9C15.2,310.8,14.5,303,20.4,300.4z"/>
			</g>
		</g>
	</g>
	<path class="st0" d="M378.2,324.7H245.1c-0.7,0-1.3-0.6-1.3-1.3V97.1c0-0.7,0.6-1.3,1.3-1.3h133.2c0.7,0,1.3,0.6,1.3,1.3v226.3
		C379.5,324.1,379,324.7,378.2,324.7z"/>
	<path class="st1" d="M353.9,133.6h-85.9c-0.6,0-1-0.5-1-1v-17.3c0-0.6,0.5-1,1-1h85.9c0.6,0,1,0.5,1,1v17.3
		C355,133.2,354.5,133.6,353.9,133.6z"/>
	<path class="st1" d="M296.5,241.4H279c-4.1,0-7.4-3.3-7.4-7.4l0,0c0-4.1,3.3-7.4,7.4-7.4h17.5c4.1,0,7.4,3.3,7.4,7.4l0,0
		C303.9,238.1,300.6,241.4,296.5,241.4z"/>
	<path class="st7" d="M346.9,241.4h-17.5c-4.1,0-7.4-3.3-7.4-7.4l0,0c0-4.1,3.3-7.4,7.4-7.4h17.5c4.1,0,7.4,3.3,7.4,7.4l0,0
		C354.3,238.1,351,241.4,346.9,241.4z"/>
	<rect x="265.1" y="153" class="st6" width="94.4" height="14.9"/>
	<rect x="265.1" y="178.2" class="st6" width="94.4" height="14.9"/>
	<rect x="285.5" y="202.5" class="st14" width="54.3" height="3.4"/>
	<path class="st7" d="M659.3,282.3H489.6c-10.4,0-18.9-8.5-18.9-18.9l0,0c0-10.4,8.5-18.9,18.9-18.9h169.7
		c10.4,0,18.9,8.5,18.9,18.9l0,0C678.3,273.9,669.8,282.3,659.3,282.3z"/>
	<g>
		<path class="st0" d="M512.4,122H406.7c-8.6,0-15.5-6.9-15.5-15.5l0,0c0-8.6,6.9-15.5,15.5-15.5h105.7c8.6,0,15.5,6.9,15.5,15.5
			l0,0C527.9,115,521,122,512.4,122z"/>
		<path class="st15" d="M431.9,106.5c0,2.7-2.2,4.8-4.8,4.8s-4.8-2.2-4.8-4.8s2.2-4.8,4.8-4.8S431.9,103.8,431.9,106.5z"/>
		<path class="st16" d="M465.2,106.5c0,2.7-2.2,4.8-4.8,4.8c-2.7,0-4.8-2.2-4.8-4.8s2.2-4.8,4.8-4.8
			C463,101.6,465.2,103.8,465.2,106.5z"/>
		<path class="st17" d="M495.9,106.5c0,2.7-2.2,4.8-4.8,4.8s-4.8-2.2-4.8-4.8s2.2-4.8,4.8-4.8S495.9,103.8,495.9,106.5z"/>
	</g>
	<g>
		<circle class="st18" cx="105.4" cy="232.8" r="11.8"/>
		<g>
			<path class="st7" d="M117.6,218.5h-2.1l-3-4.2c-0.2-0.3-0.6-0.5-1-0.5H99.6c-0.4,0-0.8,0.2-1,0.5l-3,4.2h-2.1
				c-3.2,0-5.9,2.6-5.9,5.9v17.1c0,3.2,2.6,5.9,5.9,5.9h24.1c3.2,0,5.9-2.6,5.9-5.9v-17.1C123.5,221.2,120.8,218.5,117.6,218.5z
				 M105.5,241.5c-4.8,0-8.7-3.9-8.7-8.7c0-4.8,3.9-8.7,8.7-8.7c4.8,0,8.7,3.9,8.7,8.7C114.2,237.6,110.3,241.5,105.5,241.5z"/>
			<circle class="st1" cx="105.5" cy="232.8" r="5.7"/>
		</g>
	</g>
	<g>
		<path class="st0" d="M533.4,222.1h-100c-1.1,0-2-0.9-2-2v-64.3c0-1.1,0.9-2,2-2h100c1.1,0,2,0.9,2,2v64.3
			C535.4,221.2,534.5,222.1,533.4,222.1z"/>
		<path class="st19" d="M483.5,187.4h-0.2c-0.5,0-0.9-0.1-1.3-0.3l-40.1-22.3c-1.3-0.7-1.8-2.4-1.1-3.7c0.7-1.3,2.4-1.8,3.7-1.1
			l38.9,21.6l38.9-21.6c1.3-0.7,3-0.3,3.7,1.1c0.7,1.3,0.3,3-1.1,3.7l-40.1,22.3C484.4,187.3,484,187.4,483.5,187.4z"/>
	</g>
	<path class="st12" d="M686.1,215.1H560.8c-1,0-1.8-0.8-1.8-1.8V50.1c0-1,0.8-1.8,1.8-1.8h125.4c1,0,1.8,0.8,1.8,1.8v163.2
		C688,214.3,687.1,215.1,686.1,215.1z"/>
	<g>
		<path class="st20" d="M587.8,70.6h-8.6c-0.5,0-0.8-0.7-0.8-1.7l0,0c0-0.9,0.4-1.7,0.8-1.7h8.6c0.5,0,0.8,0.7,0.8,1.7l0,0
			C588.6,69.9,588.2,70.6,587.8,70.6z"/>
		<path class="st20" d="M641,70.6h-49.2c-0.5,0-0.8-0.7-0.8-1.7l0,0c0-0.9,0.4-1.7,0.8-1.7H641c0.5,0,0.8,0.7,0.8,1.7l0,0
			C641.8,69.9,641.5,70.6,641,70.6z"/>
		<path class="st21" d="M607.5,77.5h-15.7c-0.5,0-0.8-0.7-0.8-1.7l0,0c0-0.9,0.4-1.7,0.8-1.7h15.7c0.5,0,0.8,0.7,0.8,1.7l0,0
			C608.3,76.8,608,77.5,607.5,77.5z"/>
		<path class="st0" d="M633.3,77.5h-22.6c-0.5,0-0.8-0.7-0.8-1.7l0,0c0-0.9,0.4-1.7,0.8-1.7h22.6c0.5,0,0.8,0.7,0.8,1.7l0,0
			C634.1,76.8,633.8,77.5,633.3,77.5z"/>
		<path class="st0" d="M641,110.9h-49.2c-0.5,0-0.8-0.7-0.8-1.7l0,0c0-0.9,0.4-1.7,0.8-1.7H641c0.5,0,0.8,0.7,0.8,1.7l0,0
			C641.8,110.2,641.5,110.9,641,110.9z"/>
		<path class="st20" d="M587.8,117.8h-8.6c-0.5,0-0.8-0.7-0.8-1.7l0,0c0-0.9,0.4-1.7,0.8-1.7h8.6c0.5,0,0.8,0.7,0.8,1.7l0,0
			C588.6,117.1,588.2,117.8,587.8,117.8z"/>
		<path class="st0" d="M607.5,117.8h-15.7c-0.5,0-0.8-0.7-0.8-1.7l0,0c0-0.9,0.4-1.7,0.8-1.7h15.7c0.5,0,0.8,0.7,0.8,1.7l0,0
			C608.3,117.1,608,117.8,607.5,117.8z"/>
		<path class="st21" d="M633.3,117.8h-22.6c-0.5,0-0.8-0.7-0.8-1.7l0,0c0-0.9,0.4-1.7,0.8-1.7h22.6c0.5,0,0.8,0.7,0.8,1.7l0,0
			C634.1,117.1,633.8,117.8,633.3,117.8z"/>
		<path class="st21" d="M653.2,84.4h-61.4c-0.5,0-0.8-0.7-0.8-1.7l0,0c0-0.9,0.4-1.7,0.8-1.7h61.4c0.5,0,0.8,0.7,0.8,1.7l0,0
			C654,83.6,653.6,84.4,653.2,84.4z"/>
		<path class="st20" d="M641,91.2h-15.6c-0.1,0-0.2-0.1-0.2-0.2v-2.9c0-0.1,0.1-0.2,0.2-0.2H641c0.1,0,0.2,0.1,0.2,0.2V91
			C641.2,91.1,641.1,91.2,641,91.2z"/>
		<path class="st0" d="M612.2,91.2h-20.4c-0.5,0-0.8-0.7-0.8-1.7l0,0c0-0.9,0.4-1.7,0.8-1.7h20.4c0.5,0,0.8,0.7,0.8,1.7l0,0
			C613,90.5,612.7,91.2,612.2,91.2z"/>
		<path class="st20" d="M623.1,91.2H615c-0.5,0-0.8-0.7-0.8-1.7l0,0c0-0.9,0.4-1.7,0.8-1.7h8.1c0.5,0,0.8,0.7,0.8,1.7l0,0
			C623.9,90.5,623.5,91.2,623.1,91.2z"/>
		<path class="st0" d="M587.8,97.9h-8.6c-0.5,0-0.8-0.7-0.8-1.7l0,0c0-0.9,0.4-1.7,0.8-1.7h8.6c0.5,0,0.8,0.7,0.8,1.7l0,0
			C588.6,97.1,588.2,97.9,587.8,97.9z"/>
		<path class="st0" d="M653.2,97.9h-61.4c-0.5,0-0.8-0.7-0.8-1.7l0,0c0-0.9,0.4-1.7,0.8-1.7h61.4c0.5,0,0.8,0.7,0.8,1.7l0,0
			C654,97.1,653.6,97.9,653.2,97.9z"/>
		<path class="st0" d="M587.8,124.2h-8.6c-0.5,0-0.8-0.7-0.8-1.7l0,0c0-0.9,0.4-1.7,0.8-1.7h8.6c0.5,0,0.8,0.7,0.8,1.7l0,0
			C588.6,123.4,588.2,124.2,587.8,124.2z"/>
		<path class="st0" d="M647.1,124.2h-21.6c-0.2,0-0.3-0.1-0.3-0.3v-2.8c0-0.2,0.1-0.3,0.3-0.3h21.6c0.2,0,0.3,0.1,0.3,0.3v2.8
			C647.4,124.1,647.2,124.2,647.1,124.2z"/>
		<path class="st0" d="M612.2,124.2h-20.4c-0.5,0-0.8-0.7-0.8-1.7l0,0c0-0.9,0.4-1.7,0.8-1.7h20.4c0.5,0,0.8,0.7,0.8,1.7l0,0
			C613,123.4,612.7,124.2,612.2,124.2z"/>
		<path class="st0" d="M623.1,124.2H615c-0.5,0-0.8-0.7-0.8-1.7l0,0c0-0.9,0.4-1.7,0.8-1.7h8.1c0.5,0,0.8,0.7,0.8,1.7l0,0
			C623.9,123.4,623.5,124.2,623.1,124.2z"/>
		<path class="st22" d="M587.8,130.8h-8.6c-0.5,0-0.8-0.7-0.8-1.7l0,0c0-0.9,0.4-1.7,0.8-1.7h8.6c0.5,0,0.8,0.7,0.8,1.7l0,0
			C588.6,130.1,588.2,130.8,587.8,130.8z"/>
		<path class="st20" d="M602.5,130.8h-10.6c-0.5,0-0.8-0.7-0.8-1.7l0,0c0-0.9,0.4-1.7,0.8-1.7h10.6c0.5,0,0.8,0.7,0.8,1.7l0,0
			C603.3,130.1,602.9,130.8,602.5,130.8z"/>
		<path class="st20" d="M579.2,104.7c-0.5,0-0.8-0.7-0.8-1.7l0,0c0-0.9,0.4-1.7,0.8-1.7h8.6c0.5,0,0.8,0.7,0.8,1.7l0,0
			c0,0.9-0.4,1.7-0.8,1.7"/>
		<path class="st0" d="M649.9,104.7h-24.5c-0.2,0-0.3-0.1-0.3-0.3v-2.7c0-0.2,0.1-0.3,0.3-0.3h24.5c0.2,0,0.3,0.1,0.3,0.3v2.7
			C650.2,104.6,650.1,104.7,649.9,104.7z"/>
		<path class="st22" d="M612.2,104.7h-20.4c-0.5,0-0.8-0.7-0.8-1.7l0,0c0-0.9,0.4-1.7,0.8-1.7h20.4c0.5,0,0.8,0.7,0.8,1.7l0,0
			C613,104,612.7,104.7,612.2,104.7z"/>
		<path class="st22" d="M623.1,104.7H615c-0.5,0-0.8-0.7-0.8-1.7l0,0c0-0.9,0.4-1.7,0.8-1.7h8.1c0.5,0,0.8,0.7,0.8,1.7l0,0
			C623.9,104,623.5,104.7,623.1,104.7z"/>
		<path class="st0" d="M641,137.9h-49.2c-0.5,0-0.8-0.7-0.8-1.7l0,0c0-0.9,0.4-1.7,0.8-1.7H641c0.5,0,0.8,0.7,0.8,1.7l0,0
			C641.8,137.1,641.5,137.9,641,137.9z"/>
		<path class="st0" d="M607.5,144.7h-15.7c-0.5,0-0.8-0.7-0.8-1.7l0,0c0-0.9,0.4-1.7,0.8-1.7h15.7c0.5,0,0.8,0.7,0.8,1.7l0,0
			C608.3,144,608,144.7,607.5,144.7z"/>
		<path class="st0" d="M633.3,144.7h-22.6c-0.5,0-0.8-0.7-0.8-1.7l0,0c0-0.9,0.4-1.7,0.8-1.7h22.6c0.5,0,0.8,0.7,0.8,1.7l0,0
			C634.1,144,633.8,144.7,633.3,144.7z"/>
		<path class="st0" d="M641,178.2h-49.2c-0.5,0-0.8-0.7-0.8-1.7l0,0c0-0.9,0.4-1.7,0.8-1.7H641c0.5,0,0.8,0.7,0.8,1.7l0,0
			C641.8,177.4,641.5,178.2,641,178.2z"/>
		<path class="st21" d="M587.8,185.1h-8.6c-0.5,0-0.8-0.7-0.8-1.7l0,0c0-0.9,0.4-1.7,0.8-1.7h8.6c0.5,0,0.8,0.7,0.8,1.7l0,0
			C588.6,184.3,588.2,185.1,587.8,185.1z"/>
		<path class="st20" d="M607.5,185.1h-15.7c-0.5,0-0.8-0.7-0.8-1.7l0,0c0-0.9,0.4-1.7,0.8-1.7h15.7c0.5,0,0.8,0.7,0.8,1.7l0,0
			C608.3,184.3,608,185.1,607.5,185.1z"/>
		<path class="st0" d="M633.3,185.1h-22.6c-0.5,0-0.8-0.7-0.8-1.7l0,0c0-0.9,0.4-1.7,0.8-1.7h22.6c0.5,0,0.8,0.7,0.8,1.7l0,0
			C634.1,184.3,633.8,185.1,633.3,185.1z"/>
		<path class="st21" d="M587.8,151.6h-8.6c-0.5,0-0.8-0.7-0.8-1.7l0,0c0-0.9,0.4-1.7,0.8-1.7h8.6c0.5,0,0.8,0.7,0.8,1.7l0,0
			C588.6,150.9,588.2,151.6,587.8,151.6z"/>
		<path class="st21" d="M636.5,151.6h-45.2c-0.1,0-0.3-0.1-0.3-0.3v-2.8c0-0.1,0.1-0.3,0.3-0.3h45.2c0.1,0,0.3,0.1,0.3,0.3v2.8
			C636.7,151.5,636.6,151.6,636.5,151.6z"/>
		<path class="st0" d="M587.8,158.5h-8.6c-0.5,0-0.8-0.7-0.8-1.7l0,0c0-0.9,0.4-1.7,0.8-1.7h8.6c0.5,0,0.8,0.7,0.8,1.7l0,0
			C588.6,157.7,588.2,158.5,587.8,158.5z"/>
		<path class="st0" d="M612.2,158.5h-20.4c-0.5,0-0.8-0.7-0.8-1.7l0,0c0-0.9,0.4-1.7,0.8-1.7h20.4c0.5,0,0.8,0.7,0.8,1.7l0,0
			C613,157.7,612.7,158.5,612.2,158.5z"/>
		<path class="st0" d="M623.1,158.5H615c-0.5,0-0.8-0.7-0.8-1.7l0,0c0-0.9,0.4-1.7,0.8-1.7h8.1c0.5,0,0.8,0.7,0.8,1.7l0,0
			C623.9,157.7,623.5,158.5,623.1,158.5z"/>
		<path class="st0" d="M587.8,165.1h-8.6c-0.5,0-0.8-0.7-0.8-1.7l0,0c0-0.9,0.4-1.7,0.8-1.7h8.6c0.5,0,0.8,0.7,0.8,1.7l0,0
			C588.6,164.4,588.2,165.1,587.8,165.1z"/>
		<path class="st0" d="M648.3,165.1h-57c-0.2,0-0.3-0.1-0.3-0.3v-2.7c0-0.2,0.1-0.3,0.3-0.3h57c0.2,0,0.3,0.1,0.3,0.3v2.7
			C648.6,165,648.4,165.1,648.3,165.1z"/>
		<path class="st0" d="M587.8,191.4h-8.6c-0.5,0-0.8-0.7-0.8-1.7l0,0c0-0.9,0.4-1.7,0.8-1.7h8.6c0.5,0,0.8,0.7,0.8,1.7l0,0
			C588.6,190.7,588.2,191.4,587.8,191.4z"/>
		<path class="st0" d="M653.1,191.4H626c-0.5,0-0.8-0.7-0.8-1.7l0,0c0-0.9,0.4-1.7,0.8-1.7h27.1c0.5,0,0.8,0.7,0.8,1.7l0,0
			C654,190.7,653.6,191.4,653.1,191.4z"/>
		<path class="st0" d="M612.2,191.4h-20.4c-0.5,0-0.8-0.7-0.8-1.7l0,0c0-0.9,0.4-1.7,0.8-1.7h20.4c0.5,0,0.8,0.7,0.8,1.7l0,0
			C613,190.7,612.7,191.4,612.2,191.4z"/>
		<path class="st0" d="M623.1,191.4H615c-0.5,0-0.8-0.7-0.8-1.7l0,0c0-0.9,0.4-1.7,0.8-1.7h8.1c0.5,0,0.8,0.7,0.8,1.7l0,0
			C623.9,190.7,623.5,191.4,623.1,191.4z"/>
		<path class="st22" d="M628.8,198.1h-37.5c-0.1,0-0.2-0.1-0.2-0.2V195c0-0.1,0.1-0.2,0.2-0.2h37.5c0.1,0,0.2,0.1,0.2,0.2v2.8
			C629,198,628.9,198.1,628.8,198.1z"/>
		<path class="st21" d="M651.4,172h-25.9c-0.2,0-0.3-0.1-0.3-0.3V169c0-0.2,0.1-0.3,0.3-0.3h25.9c0.2,0,0.3,0.1,0.3,0.3v2.7
			C651.7,171.9,651.6,172,651.4,172z"/>
		<path class="st22" d="M612.2,172h-20.4c-0.5,0-0.8-0.7-0.8-1.7l0,0c0-0.9,0.4-1.7,0.8-1.7h20.4c0.5,0,0.8,0.7,0.8,1.7l0,0
			C613,171.2,612.7,172,612.2,172z"/>
		<path class="st22" d="M623.1,172H615c-0.5,0-0.8-0.7-0.8-1.7l0,0c0-0.9,0.4-1.7,0.8-1.7h8.1c0.5,0,0.8,0.7,0.8,1.7l0,0
			C623.9,171.2,623.5,172,623.1,172z"/>
	</g>
	<g>
		<circle class="st23" cx="677.6" cy="51.7" r="27.2"/>
		<g>
			<g>
				<path class="st6" d="M675.6,49.2l-10.8,4l10.8,3.9v4l-15.4-5.9V51l15.4-5.9V49.2z"/>
			</g>
			<g>
				<path class="st6" d="M679.1,45.2l15.4,5.9v4.2l-15.4,5.9v-4l10.8-3.9l-10.8-4V45.2z"/>
			</g>
		</g>
	</g>
	<g>
		
			<ellipse transform="matrix(0.8276 -0.5613 0.5613 0.8276 -200.2073 367.3182)" class="st15" cx="497.9" cy="509.6" rx="29.5" ry="29.5"/>
		<g>
			<path class="st18" d="M513.5,507.9c0,1.8-0.3,3.5-0.9,5c-0.6,1.5-1.4,2.7-2.5,3.6c-1.1,0.9-2.3,1.3-3.7,1.3
				c-0.9,0-1.8-0.2-2.5-0.7c-0.7-0.5-1.2-1-1.6-1.8h-0.3c-1.4,1.6-3.1,2.5-5.2,2.5c-2.2,0-4-0.7-5.3-2c-1.3-1.4-1.9-3.2-1.9-5.6
				c0-2.7,0.9-4.8,2.6-6.5c1.7-1.6,3.9-2.5,6.7-2.5c1.1,0,2.3,0.1,3.6,0.3c1.3,0.2,2.4,0.5,3.2,0.8l-0.4,9.3c0,1.8,0.5,2.6,1.4,2.6
				c0.8,0,1.5-0.6,1.9-1.8c0.5-1.2,0.7-2.7,0.7-4.7c0-2-0.4-3.9-1.3-5.4c-0.9-1.6-2-2.8-3.6-3.6c-1.5-0.8-3.3-1.2-5.3-1.2
				c-2.6,0-4.8,0.5-6.7,1.6c-1.9,1.1-3.3,2.6-4.4,4.6c-1,2-1.5,4.3-1.5,6.9c0,3.5,0.9,6.2,2.8,8.1c1.9,1.9,4.6,2.8,8.1,2.8
				c1.3,0,2.8-0.1,4.4-0.4c1.6-0.3,3.2-0.7,4.8-1.3v3.7c-2.7,1.2-5.7,1.7-9,1.7c-4.8,0-8.6-1.3-11.3-3.8c-2.7-2.5-4-6.1-4-10.6
				c0-3.1,0.7-6,2.1-8.5c1.4-2.6,3.3-4.6,5.9-6c2.5-1.5,5.5-2.2,8.8-2.2c2.8,0,5.3,0.6,7.5,1.7c2.2,1.1,3.9,2.8,5.1,4.9
				C512.9,502.7,513.5,505.2,513.5,507.9z M494,510.3c0,2.7,1.1,4,3.3,4c1.1,0,2-0.4,2.6-1.2c0.6-0.8,1-2.1,1.1-3.9l0.2-4.2
				c-0.6-0.1-1.4-0.2-2.2-0.2c-1.6,0-2.8,0.5-3.7,1.5C494.4,507.2,494,508.6,494,510.3z"/>
		</g>
	</g>
	<g>
		<path class="st7" d="M349.9,0H165.1c-15,0-27.2,12.2-27.2,27.2c0,15,12.2,27.2,27.2,27.2h13.6l13.1,13.1L205,54.4h144.9
			c15,0,27.2-12.2,27.2-27.2C377.1,12.2,364.9,0,349.9,0z"/>
		<path class="st18" d="M297,35.8H175.4c-1.7,0-3-1.4-3-3l0,0c0-1.7,1.4-3,3-3H297c1.7,0,3,1.4,3,3l0,0
			C300.1,34.5,298.7,35.8,297,35.8z"/>
		<path class="st18" d="M259,19.1h-83.6c-1.7,0-3-1.4-3-3l0,0c0-1.7,1.4-3,3-3H259c1.7,0,3,1.4,3,3l0,0
			C262.1,17.8,260.7,19.1,259,19.1z"/>
	</g>
	<g>
		<path class="st11" d="M602.5,344.4c0,0-2.3,6.7-3.5,10.8c0,0,11.1-0.2,15-5.4l-4.1-9.9L602.5,344.4z"/>
		<g>
			<polygon class="st24" points="600.8,529.4 601.8,533.6 607.9,534 606.6,528.8 			"/>
			<path class="st12" d="M601.8,533.6c0,0-10.3,5.3-10.2,5.7c0.1,0.3,17.3-1.5,17.3-1.5l-1-3.9L601.8,533.6z"/>
		</g>
		<g>
			<polygon class="st24" points="652.5,520.9 654.9,524.5 660.8,522.6 657.7,518.2 			"/>
			<path class="st12" d="M654.9,524.5c0,0-7.6,8.7-7.4,9c0.2,0.3,15.6-7.6,15.6-7.6l-2.4-3.2L654.9,524.5z"/>
		</g>
		<path class="st15" d="M589.4,417.8c0,0-17.6,57.4,10.3,112.7h8.3c0,0-16.5-62.6,4.1-113.2L589.4,417.8z"/>
		<path class="st15" d="M604.7,419.8c0,0,2.7,60,47.6,102.7l7.8-2.8c0,0-36.6-53.4-34.1-108L604.7,419.8z"/>
		<g>
			<path class="st24" d="M596.7,284.8l0-3.5c0-0.2,0-0.3-0.1-0.5l-0.7-2.5l-2,0.5l-2.1-1.9c-0.9-0.8-2.3-0.5-2.8,0.5
				c-0.6,1.3-1.4,3.1-1.6,4.4c-0.1,0.5,0.1,1.1,0.4,1.4l3.1,3.4c0.5,0.5,1.1,0.7,1.8,0.5l2.5-0.7
				C596.1,286.2,596.7,285.5,596.7,284.8z"/>
			<path class="st25" d="M627,362.4c0,0-22.9-24.6-24.4-33.8c-1.5-9.2-4.9-43.4-4.9-43.4l-7.1,1.4c0,0-2.4,48.9-0.3,54.6
				c2.1,5.6,15.9,34.3,24.9,37C624.2,380.8,630.5,371.9,627,362.4z"/>
			<path class="st24" d="M595.1,321.8c0,0-5.2,17.2-1.9,21.5c3.3,4.3,15.3,0.4,20-6.5c4.7-6.9,5.6-22.6-2.3-23.9
				C603,311.7,597,314.9,595.1,321.8z"/>
			<path class="st25" d="M626.2,422.5c0,0,4.7-49.6,4.7-63.1c0-0.6,0-1.2,0-1.8c-3.5-8.7-12-8.6-15.5-7.9c-3.4,0.7-16.9,5-16.8,5.5
				l0,0c-4.6,3.4-8.2,7.4-8.5,8.3c0,0-12.4,25.8-1.6,56.9L626.2,422.5z"/>
			<path class="st24" d="M560.5,287.3l-0.6-3.5c0-0.2-0.1-0.3-0.1-0.4l-1.1-2.4l-1.9,0.9l-2.4-1.5c-1-0.6-2.3-0.1-2.6,1
				c-0.4,1.4-0.8,3.3-0.8,4.6c0,0.5,0.3,1,0.7,1.3l3.7,2.8c0.5,0.4,1.2,0.5,1.8,0.2l2.3-1.2C560.2,288.8,560.6,288.1,560.5,287.3z"
				/>
			<path class="st25" d="M603.9,358.4c0,0-26.9-20.2-30-28.9c-3.1-8.8-12.4-41.9-12.4-41.9l-6.7,2.6c0,0,6.2,48.6,9.3,53.8
				c3.1,5.2,21.7,31,31,32.1C604.4,377,609.1,367.2,603.9,358.4z"/>
			<path class="st12" d="M614.3,312.9c0,0-13.8-5.9-20.3,6.2c-3.4,7.6,7.6,0.3,9.6,2.8c2.1,2.4-2.8,7.2-1.4,9
				c1.4,1.7,3.8-3.1,5.2-0.3c1.4,2.8-2.1,3.1-4.5,6.2c-2.4,3.1,2.1,7.6-1.4,10.3c-3.4,2.8-13.1,4.8-7.2,19.6s-9.6,18.6-3.1,38.9
				c6.5,20.3,51,31.7,59.3,7.6c8.3-24.1-19.3-30-17.6-40.7c1.7-10.7,7.9-13.4-0.3-24.1c-8.3-10.7-13.4-16.9-11-23.8
				C623.9,317.7,617.4,312.9,614.3,312.9z"/>
		</g>
	</g>
	<path class="st26" d="M651.9,229.5c-16.4,0-29.6,13.3-29.6,29.6s13.3,29.6,29.6,29.6s29.6-13.3,29.6-29.6S668.2,229.5,651.9,229.5z
		 M636.9,256.9c0-2,1.6-3.6,3.6-3.6s3.6,1.6,3.6,3.6c0,2-1.6,3.6-3.6,3.6S636.9,258.9,636.9,256.9z M651.9,275.4
		c-4.8,0-8.7-3.5-9.3-8.1h18.7C660.6,271.8,656.6,275.4,651.9,275.4z M663.2,260.5c-2,0-3.6-1.6-3.6-3.6c0-2,1.6-3.6,3.6-3.6
		c2,0,3.6,1.6,3.6,3.6C666.8,258.9,665.2,260.5,663.2,260.5z"/>
	<polygon class="st6" points="211.7,470 209.9,466.5 256.9,443 316.2,444 380.5,419.7 429.7,419.7 482.1,402.2 482.6,402.3 
		524.7,407.1 548.4,394.7 550.2,398.2 525.4,411.1 524.8,411 482.6,406.2 430,423.6 380.9,423.6 316.8,447.9 316.5,447.9 
		257.8,446.9 	"/>
	<g>
		<path class="st12" d="M384.1,376.9c0,0,46.6,75.4,40.7,127.9l31.7,0.7l-13.6-7.9l3.9-0.7c0,0-11.6-81.3-22.6-110.2
			c-11.5-30.2-14.9-19-14.9-19L384.1,376.9z"/>
		<path class="st12" d="M367.3,372.2c0,0,2.6,52.4-1.3,72.4c-3.9,20-15.5,59.5-15.5,59.5l29.7,0.6l-7.8-5.5l-5-2.9
			c0,0,21.2-56.9,23.1-84.1c1.9-27.2,5.2-42.7,5.2-42.7L367.3,372.2z"/>
		<g>
			<polyline class="st11" points="428.1,217.2 433,213.8 435.1,205.8 432.7,205.3 431.3,208.2 432.7,194.4 430.3,194.9 427.9,208.2 
				425,214.5 427.6,216.2 			"/>
			<polygon class="st11" points="456.8,231.6 457.5,225.8 464.6,218.6 466.2,220.9 463.6,223.8 477.2,220.6 477.2,223.5 
				464.6,228.3 462,232.9 			"/>
			<g>
				<g>
					<g>
						<path class="st1" d="M424.8,212.3c0,0-55.2,67-61.6,80.4c0,0-2.7,4.8-2.7,18.8c0,13.9,4.8,65.4,4.8,65.4l56.3,3.2
							c0,0-18.2-62.7-18.8-64.3c-0.5-1.6-9.6-11.3-18.2-13.4l47.2-85.2L424.8,212.3z"/>
						<g>
							<path class="st11" d="M389.8,295.9c0,0,2.3,7,3.6,11.2c0,0-11.5-0.2-15.5-5.6l4.3-10.3L389.8,295.9z"/>
							<g>
								<path class="st11" d="M398.5,274.1c0,0,3.4,19.8,0,24.3c-3.4,4.5-15-3.1-19.9-10.3c-4.9-7.2-5.8-23.4,2.4-24.7
									C389.3,262,396.6,266.9,398.5,274.1z"/>
							</g>
						</g>
						<path class="st1" d="M393.3,310.8c0,0,44.3-27.8,47.8-33.6c3.6-5.7,13.6-48.2,13.6-48.2l8.6,2.1c0,0-5,47.5-6.4,52.5
							c-1.4,5-45,51.4-55,51.4C391.9,335,388.3,322.2,393.3,310.8z"/>
					</g>
				</g>
			</g>
		</g>
		<path class="st12" d="M395.4,269.7c0,0,2.3-7.8-2.6-11.6c-4.8-3.9-13.3-3.2-14.5-1.9c0,2.3,5.2,3.6,3.9,4.8
			c-1.3,1.3-8.1,0-9.7,6.8c-1.6,6.8,0.6,8.1,0.6,8.1s-3.6,4.2,0.6,10c4.2,5.8,13.7,10.6,16.1,10c2.4-0.6,1.1-9.7,1.1-9.7
			s-5.5-0.6-5.8-4.2c-0.3-3.6,2.6-3.9,3.9-2.6c1.3,1.3,1.6,4.2,2.6,3.6s-0.3-7.4-0.3-7.4S394.7,272.6,395.4,269.7z"/>
	</g>
	<g>
		<path class="st7" d="M421.4,467.8l-33.2,9.1c-9.1,2.5-14.6,12-12.1,21.2l6.3,22.9c2.5,9.1,12,14.6,21.2,12.1l10-2.7l9.8,9.7
			l3.5-13.3l10-2.7c9.1-2.5,14.6-12,12.1-21.2l-6.3-22.9C440.1,470.7,430.6,465.3,421.4,467.8z"/>
		<g>
			<path class="st18" d="M399.4,505.4c0.6,2-0.6,4.1-2.7,4.7c-2,0.6-4.1-0.6-4.7-2.7c-0.6-2,0.6-4.1,2.7-4.7
				C396.8,502.1,398.9,503.3,399.4,505.4z"/>
			<path class="st18" d="M416.2,500.8c0.6,2-0.6,4.1-2.7,4.7c-2,0.6-4.1-0.6-4.7-2.7c-0.6-2,0.6-4.1,2.7-4.7
				S415.6,498.7,416.2,500.8z"/>
			<path class="st18" d="M433,496.2c0.6,2-0.6,4.1-2.7,4.7c-2,0.6-4.1-0.6-4.7-2.7c-0.6-2,0.6-4.1,2.7-4.7
				C430.3,493,432.4,494.2,433,496.2z"/>
		</g>
	</g>
	<circle class="st15" cx="257" cy="444" r="6.1"/>
	<circle class="st25" cx="482.7" cy="404.5" r="6.1"/>
</g>
</svg>
