<?xml version="1.0" encoding="utf-8"?>
<!-- Generator: Adobe Illustrator 23.0.1, SVG Export Plug-In . SVG Version: 6.00 Build 0)  -->
<svg version="1.1" id="Objects" xmlns="http://www.w3.org/2000/svg" xmlns:xlink="http://www.w3.org/1999/xlink" x="0px" y="0px"
	 viewBox="0 0 430.2 263.7" style="enable-background:new 0 0 430.2 263.7;" xml:space="preserve">
<style type="text/css">
	.st0{fill:none;stroke:#274D79;stroke-width:0.782;stroke-miterlimit:10;}
	.st1{fill:#03AA99;}
	.st2{fill:#3B55CE;}
	.st3{fill:#000E5B;}
	.st4{fill:#3DC19A;}
	.st5{fill:none;stroke:#3B55CE;stroke-width:1.575;stroke-linecap:round;stroke-miterlimit:10;}
	.st6{fill:#91DBAC;}
	.st7{fill:#638BE2;}
	.st8{fill:#E5F7FF;}
	.st9{fill:#1E4174;}
	.st10{fill:#FF9A8D;}
	.st11{fill:#8FC9C6;}
	.st12{fill:none;stroke:#AAEEED;stroke-width:0.9245;stroke-linecap:round;stroke-miterlimit:10;}
	.st13{fill:#AAEEED;}
	.st14{fill:#BA5964;}
	.st15{fill:#001C45;}
	.st16{fill:none;stroke:#001C45;stroke-width:1.7149;stroke-linecap:round;stroke-miterlimit:10;}
	.st17{fill:#3ED9C7;}
	.st18{fill:none;stroke:#274D79;stroke-width:2.1;stroke-linecap:round;stroke-miterlimit:10;}
	.st19{fill:#85B8ED;}
	.st20{fill:#4E7EAC;}
	.st21{clip-path:url(#XMLID_4_);fill:none;stroke:#274D79;stroke-width:0.782;stroke-miterlimit:10;}
	.st22{fill:#E09B36;}
	.st23{fill:#FABA50;}
</style>
<g id="XMLID_3484_">
	
		<image style="overflow:visible;opacity:0.5;" width="463" height="297" xlink:href="513088CA.png"  transform="matrix(1 0 0 1 -16.0757 -16.3907)">
	</image>
	<g>
		<g>
			<g id="XMLID_1018_">
				<g id="XMLID_1033_">
					<g id="XMLID_1036_">
						<g id="XMLID_1037_">
							<defs>
								<path id="XMLID_1038_" d="M287,204.1c0,0-39.6-13.7-54.3-19.1c-14.7-5.4-36.2-16.2-44.8-7.1c-8.5,9-1.4,22.5,19.1,29.9
									c20.5,7.3,78.3,9.6,78.3,9.6C287,213.1,287.6,208.7,287,204.1z"/>
							</defs>
							<clipPath id="XMLID_3_">
								<use xlink:href="#XMLID_1038_"  style="overflow:visible;"/>
							</clipPath>
						</g>
					</g>
				</g>
			</g>
		</g>
		<g>
			<g id="XMLID_927_">
				<path id="XMLID_1017_" class="st0" d="M310.6,59.8c0,0,13.7-16.5,40-6c26.3,10.5,52,53.8,28.1,106.1"/>
				<path id="XMLID_1016_" class="st1" d="M313.2,71.3c-1.2,3.1-13.1-1.6-11.9-4.6l1.7-4.3c1.3-3.3,5-4.9,8.3-3.6l0,0
					c3.3,1.3,4.9,5,3.6,8.3L313.2,71.3z"/>
				<path id="XMLID_1015_" class="st2" d="M301.3,66.6c-1.4,3,10.7,7.7,11.9,4.6C314.2,68.9,302.3,64.5,301.3,66.6z"/>
				<g id="XMLID_1014_">
					<path class="st3" d="M306,69c-0.1,0.4-0.7,0.5-1.3,0.3c-0.6-0.2-0.9-0.7-0.8-1.1c0.1-0.4,0.7-0.5,1.3-0.3
						C305.8,68.1,306.2,68.6,306,69z"/>
				</g>
				<g id="XMLID_1013_">
					<path class="st3" d="M310.3,70.5c-0.1,0.4-0.7,0.5-1.3,0.3c-0.6-0.2-0.9-0.7-0.8-1.1c0.1-0.4,0.7-0.5,1.3-0.3
						C310,69.7,310.4,70.1,310.3,70.5z"/>
				</g>
				<g id="XMLID_1010_">
					<path id="XMLID_1012_" class="st4" d="M376.7,221.5c0,0-5.2-1.4-8.5-6.1c-3.4-4.7-1.6-16,4.3-19.2c5.8-3.2,10.3-7,9.4-15.8
						c-0.9-8.8,2-15.7,9.4-16.6c7.4-0.9,10.3-1,17.7-7.7c7.4-6.7,13.5-7.7,16.4-4c2.9,3.8,0.7,8.9-0.9,13.4c-1.6,4.5,4,9.1,5.2,13.7
						c1.1,4.5,0.2,10.4-5.6,13.7c-5.8,3.2-9.9,5.8-9.2,11.7c0.7,5.9-2.7,14.8-15.3,17H376.7z"/>
					<path id="XMLID_1011_" class="st5" d="M416.1,161.4c0,0-27.4,21.5-32.2,60"/>
				</g>
				<g id="XMLID_1007_">
					<path id="XMLID_1009_" class="st6" d="M351.1,145.4c-4.3,2.7-4,7.4-3.8,13.4c0.2,6-1.5,8.1-4.9,12.1c-3.4,4-1.6,10,4.4,12.7
						c5.9,2.7,11.1,6.9,8,13.9c-3.1,7-2,19.8,13.5,24l19.9,0c0,0,14-8.1,15.8-23c1.8-14.9-10.1-16.2-13.5-21.1
						c-3.4-5-2.4-11.7-2.3-18.6c0.1-6.8-5.1-10.3-12.1-9.9c-7,0.4-9.7,0-13.3-2.5C359.2,144,354.7,143.2,351.1,145.4z"/>
					<path id="XMLID_1008_" class="st5" d="M358.1,154.3c0,0.2,24.2,16.6,23.1,67.1"/>
				</g>
				<g id="XMLID_1006_">
					<path class="st7" d="M414,224.4H1.6c-0.9,0-1.6-0.7-1.6-1.6l0,0c0-0.9,0.7-1.6,1.6-1.6H414c0.9,0,1.6,0.7,1.6,1.6l0,0
						C415.6,223.7,414.9,224.4,414,224.4z"/>
				</g>
				<g id="XMLID_1005_">
					<path class="st8" d="M357.1,263.7H102c-17.5,0-31.6-14.2-31.6-31.6v-7.7h318.3v7.7C388.7,249.5,374.6,263.7,357.1,263.7z"/>
				</g>
				<g id="XMLID_942_">
					<g id="XMLID_945_">
						<g id="XMLID_1004_">
							<path class="st9" d="M207,207.8c3.4,2.7,13,13.6,49.7,13.6c10.2,0,21.3,0.4,30.3-2c23.2-6.3,38.5-14.8,38.5-14.8l-45-15.3
								l-40.3,0.2L207,207.8z"/>
						</g>
						<g id="XMLID_994_">
							<g id="XMLID_1003_">
								<polygon class="st10" points="237.9,201.4 220.4,204.8 221,214.3 240.7,213.8 								"/>
							</g>
							<g id="XMLID_1002_">
								<path class="st9" d="M237.9,201.4c0,0,42.6-12.1,55.9-15.4c15.2-3.9,38.2-14.3,45.9-4.6c7.8,9.7-1.7,22.6-22.7,28.3
									c-21,5.7-78.4,5.1-78.4,5.1L237.9,201.4z"/>
							</g>
							<g id="XMLID_995_">
								<g id="XMLID_1001_">
									<path class="st11" d="M203.8,198.9c0,0-0.7,2.2-0.6,6.9c0.1,4.7,2.5,8.2,2.7,15c0,0,2.6-4.3,2.5-11.4
										C208.3,202.3,203.8,198.9,203.8,198.9z"/>
								</g>
								<g id="XMLID_1000_">
									<path class="st1" d="M229.3,214.5c-2.8,0.3-7.4,2.4-10.2,3.9c-2.8,1.5-4.3,3.1-9.4,3c0,0,0-13.3-0.6-17.4
										c-0.5-4.1-1.4-4.8-1.4-4.8s4.7,0.3,7,1.5c2.3,1.2,2.6,1.8,6.7,2c4.1,0.2,5.8,0.4,7.6,0.3
										C231.8,207.3,230.7,212.5,229.3,214.5z"/>
								</g>
								<g id="XMLID_999_">
									<path class="st12" d="M217.4,216.1c0,0,1.6-6.9-0.7-11.6"/>
								</g>
								<g id="XMLID_998_">
									<path class="st12" d="M220.3,215.3c0,0,1.5-5.3-0.7-10.3"/>
								</g>
								<g id="XMLID_997_">
									<path class="st12" d="M223.5,214c0,0,1.4-3.5-0.5-8.7"/>
								</g>
								<g id="XMLID_996_">
									<path class="st13" d="M209.8,221.5c-1.6,0-3.5-0.1-3.8-0.7c-0.3-0.7,1.6-4.6,0.9-12.5c-0.4-4.2-3.4-9.2-3-9.3
										c0.4-0.1,2.7-1,4,0.3C209.1,200.6,215.7,209.2,209.8,221.5z"/>
								</g>
							</g>
						</g>
						<g id="XMLID_993_">
							<path class="st10" d="M315.4,113.4c5.5-3.9,17.5-13,23.8-32.6c2-6.2,2.2-10.5,2.1-13.3c-3.2-2.7-2.9-7.9-5.9-11.1
								c-4.2-4.5-7.9-10.2,0.2-10.2c4.5,0,8.7,0.2,10.9,2.3c1.8,1.7,5.1,6.8,5.7,8.5c1.4,4-0.2,9-0.4,15.1
								c-0.2,6.1-4.2,44-33.4,59.9L315.4,113.4z"/>
						</g>
						<g id="XMLID_992_">
							<path class="st10" d="M251.9,99.1c0,0-0.1,4.9-0.6,6.9c-0.4,2,0,3.1-6.1,4.1c0,0,2.5,8,13.1,9.4c10.6,1.4,14.9-7,14.6-7
								c-0.3,0-3.3-1.2-4.2-1.8c-0.9-0.6-0.2-12.3-0.2-12.3L251.9,99.1z"/>
						</g>
						<path id="XMLID_991_" class="st14" d="M268.4,101.3c0,0-1.3,4.1-7.7,4.5c-6.4,0.4-8.8-3.6-8.8-3.6l0.1-3.1l16.6-0.7
							L268.4,101.3z"/>
						<g id="XMLID_969_">
							<g id="XMLID_975_">
								<g id="XMLID_987_">
									<g id="XMLID_990_">
										<path class="st10" d="M241.8,81.5c0,0-3.3-0.5-4.8,1.9c-1.5,2.4,0.4,7,3.8,7.8c3.3,0.7,4.4-1.1,4.4-1.1L241.8,81.5z"/>
									</g>
									<g id="XMLID_989_">
										<path class="st14" d="M238.9,83.9c0.8-0.4,2-0.5,2.7-0.1c0.3,0.2-0.1,0.6-0.3,0.6c-1.4-0.3-3.1-0.2-3.6,1.5
											c0,0.1-0.1,0-0.1,0C237.7,85,238.1,84.3,238.9,83.9z"/>
									</g>
									<g id="XMLID_988_">
										<path class="st14" d="M239.6,83.9c0.1-0.1,0.5,0.2,0.5,0.3c-0.2,0.1-0.5,0.4-0.7,0.8c-0.2,0.5-0.2,1-0.1,1.6
											c0.3,1.3,1.2,2.2,2.5,2.3c0,0,0.1,0.1,0,0.1c-1.1,0.4-2.6-0.6-3-1.6C238.5,86.4,238.3,84.7,239.6,83.9z"/>
									</g>
								</g>
								<g id="XMLID_983_">
									<g id="XMLID_986_">
										<path class="st10" d="M274,75.3c0,0,2.9-1.7,5.2,0c2.3,1.7,2.3,6.7-0.7,8.6c-2.8,1.9-4.5,0.6-4.5,0.6L274,75.3z"/>
									</g>
									<g id="XMLID_985_">
										<path class="st14" d="M277.6,76.5c-0.9-0.1-2,0.3-2.5,1c-0.2,0.3,0.3,0.6,0.5,0.4c1.2-0.8,2.8-1.3,3.9,0.1
											c0.1,0.1,0.1,0,0.1-0.1C279.1,77,278.5,76.6,277.6,76.5z"/>
									</g>
									<g id="XMLID_984_">
										<path class="st14" d="M277,76.8c-0.2,0-0.4,0.4-0.4,0.5c0.2,0,0.6,0.2,0.9,0.5c0.4,0.4,0.6,0.8,0.7,1.4
											c0.2,1.4-0.3,2.5-1.5,3.1c0,0,0,0.1,0,0.1c1.2,0,2.2-1.5,2.2-2.6C278.9,78.6,278.4,77,277,76.8z"/>
									</g>
								</g>
								<g id="XMLID_982_">
									<path class="st10" d="M262.1,59.2c-2.6-0.9-5.3-1.2-8-0.7c-2.6,0.5-5.3,1.7-7.3,3.5c-4.8,4.2-6.7,10.7-5.5,16.9
										c0,0,0,0,0,0c0.3,1.8,0.8,3.5,1.3,5.2l0.8,2.4c0.6,1.9,1.9,5.4,4.1,8.7c4.2,6.5,11.1,7.6,15.1,6.8c4-0.8,9.9-4.3,11.5-11.9
										c0.8-3.8,0.7-7.6,0.5-9.6l-0.2-2.5c-0.1-1.8-0.4-3.6-0.7-5.3c0,0,0,0,0,0C272.4,66.5,268.1,61.2,262.1,59.2z"/>
								</g>
								<g id="XMLID_976_">
									<g id="XMLID_981_">
										<path class="st15" d="M264.4,77.6c-0.2-0.9,0.4-1.8,1.4-2c0.9-0.2,1.8,0.4,2,1.4c0.2,0.9-0.4,1.8-1.4,2
											C265.5,79.1,264.6,78.5,264.4,77.6z"/>
									</g>
									<g id="XMLID_980_">
										<path class="st15" d="M264.9,71.3l8.1,1.5c0,0-0.6-2.2-3.5-3.4c-1.3-0.5-2.7-0.5-3.5,0C264.7,70.2,264.9,71.3,264.9,71.3z
											"/>
									</g>
									<g id="XMLID_979_">
										<path class="st15" d="M250.9,73.8l-5.9,5.7c0,0-0.7-2.2,1-4.7c0.8-1.1,2-1.9,3-1.9C250.4,72.8,250.9,73.8,250.9,73.8z"/>
									</g>
									<g id="XMLID_977_">
										<g>
											<path id="XMLID_978_" class="st15" d="M253.6,79.9c-0.2-0.9-1.1-1.5-2-1.4c-0.9,0.2-1.5,1.1-1.4,2c0.2,0.9,1.1,1.5,2,1.4
												C253.2,81.7,253.8,80.8,253.6,79.9z"/>
										</g>
									</g>
								</g>
							</g>
							<path id="XMLID_974_" class="st14" d="M259.6,78.2c-0.8,0.2-1.4,8.2-0.3,9.4c0.4,0.5,1.6,0.8,2.2,0.6
								c0.6-0.1,1.6-0.8,1.8-1.4C263.9,85.3,260.4,78.1,259.6,78.2z"/>
							<g id="XMLID_971_">
								<g id="XMLID_973_">
									<path class="st16" d="M232.7,63.8c0,0,6.2-1.2,8.5,2"/>
								</g>
								<path id="XMLID_972_" class="st16" d="M232.5,57.8c0,0,7.6,1.3,8.8,8.6"/>
							</g>
							<path id="XMLID_970_" class="st15" d="M243.8,65.8c0,0,4.3,6.5,11.4,8.4c7.1,1.9,11.1-6.3,10.4-10c0,0,6.9,11.1,8.5,11.1
								c0,0,1.7-4.5,1.1-9.5c-0.6-5-2.9-7.5-5.5-9.4c-2.4-1.8-4.8-0.7-5.8-0.1c-1.3-2.4-5.1-7.6-12.6-6.7
								c-8.4,0.9-11.6,6.7-10.4,15.5c0,0-3.1-0.9-5,2.8c-1.9,3.6,0.2,10.7,2.7,14.1c0,0,2.2-0.7,3.2-0.5c0,0-1.5-5.8-0.1-10.9
								C242.8,66.4,243.8,65.8,243.8,65.8z"/>
						</g>
						<g id="XMLID_968_">
							<path class="st17" d="M247.9,109.5c0.7,3,5,7.8,11.2,8.1c6.2,0.3,11.3-3.9,12.2-5.7c5.2,0.5,11.8,1.9,14,2.3
								c3.1,0.6,6.2,3.4,5,12.2c-1.1,8.6-7.9,62.7-7.9,62.7s-17.9,7-42.2,0.6c0,0-14.7-58.7-16-63.8c-1.3-5.1-2.9-10.4,1.7-12
								S247.9,109.5,247.9,109.5z"/>
						</g>
						<path id="XMLID_967_" class="st1" d="M267.9,172c0.3,0.1,0.7,0.1,1,0.2c3.4,0.4,1.9-3.5,0.8-5c-1.6-2.3-13-11.1-13-11.1
							l-8.8,0.7l-10,4.1l-4.1,3.2c0.8,3.3,1.6,6.5,2.4,9.5c3.7-2.3,12.7-7.9,14.7-8c1.2-0.1,2.4,0.3,3.5,0.8
							c1.6,0.7,3.2,1.3,4.9,1.9c0.8,0.3,1.5,0.5,2.2,0.9c1.3,0.6,2.5,1.5,3.8,2.1C266.2,171.5,267,171.8,267.9,172z"/>
						<line id="XMLID_966_" class="st18" x1="306.1" y1="153.5" x2="312.6" y2="156.5"/>
						<line id="XMLID_965_" class="st18" x1="303.4" y1="158.8" x2="309.8" y2="161.9"/>
						<path id="XMLID_964_" class="st0" d="M213.5,181.4c8.5,1.2,23.5,1.5,36.8-10.5c10.7-9.7,20.4-28.1,45.2-20"/>
						<path id="XMLID_963_" class="st1" d="M307.1,150c2.9,1.6-3.1,12.9-6,11.3l-4.1-2.2c-3.1-1.7-4.3-5.5-2.7-8.7l0,0
							c1.7-3.1,5.5-4.3,8.7-2.7L307.1,150z"/>
						<g id="XMLID_962_">
							<path class="st10" d="M219.4,122.6c0,0-20.1,36.3-23.7,42.4c-3.6,6.1-2.9,13-2.1,14.7s11.2,2.9,20.7-0.8
								c9.6-3.6,34.2-16.1,36-17.1c0,0,2.3,1.5,4.7,2.7c3.3,1.6,5.9,1.6,8.1,3.2c2.1,1.6,4.5,4.7,8.6,2.7c2.4-1.2-3-8.8-5.4-13
								c-2.4-2-10.9-5.5-15.1-4.9c-6,0.9-36.2,11.1-36.2,11.1l10.9-18.9L219.4,122.6z"/>
						</g>
						<path id="XMLID_961_" class="st17" d="M227,113.4c-4.9,1.5-6.8,4-11.7,12.7c-4.8,8.8-11.2,19.4-11.2,19.4s5.2,8.1,16.6,10.4
							l7.8-13.1L227,113.4z"/>
						<path id="XMLID_960_" class="st17" d="M285.3,114.2c5.9,1,20.9,5.4,30.1-0.8c0,0,6.1,9.2,5,20.8c0,0-12.4,11.1-31.9,6.6
							L285.3,114.2z"/>
						<g id="XMLID_950_">
							<g id="XMLID_959_">
								<polygon class="st10" points="287,204.1 304.3,208.9 302.9,218.4 283.3,216.3 								"/>
							</g>
							<g id="XMLID_958_">
								<path class="st19" d="M287,204.1c0,0-39.6-13.7-54.3-19.1c-14.7-5.4-36.2-16.2-44.8-7.1c-8.5,9-1.4,22.5,19.1,29.9
									c20.5,7.3,78.3,9.6,78.3,9.6C287,213.1,287.6,208.7,287,204.1z"/>
							</g>
							<g id="XMLID_951_">
								<g id="XMLID_957_">
									<path class="st11" d="M321.2,204.4c0,0,0.5,2.2,0,6.9c-0.5,4.6-3.1,8-3.9,14.7c0,0-2.3-4.5-1.6-11.6
										S321.2,204.4,321.2,204.4z"/>
								</g>
								<g id="XMLID_956_">
									<path class="st1" d="M294.6,217.9c2.7,0.5,7.1,3,9.8,4.7c2.7,1.7,4.1,3.4,9.1,3.8c0,0,1.1-13.3,2-17.3
										c0.9-4.1,1.8-4.7,1.8-4.7s-4.7-0.1-7.1,1c-2.4,1.1-2.7,1.6-6.8,1.4c-4.1-0.2-5.8-0.1-7.6-0.3
										C292.7,210.6,293.4,215.8,294.6,217.9z"/>
								</g>
								<g id="XMLID_955_">
									<path class="st12" d="M306.3,220.5c0,0-1-7,1.7-11.5"/>
								</g>
								<g id="XMLID_954_">
									<path class="st12" d="M303.5,219.4c0,0-1.1-5.4,1.5-10.2"/>
								</g>
								<g id="XMLID_953_">
									<path class="st12" d="M300.4,217.9c0,0-1.1-3.6,1.1-8.6"/>
								</g>
								<g id="XMLID_952_">
									<path class="st13" d="M313.5,226.4c1.6,0.1,3.5,0.2,3.9-0.4c0.3-0.6-1.2-4.8,0.2-12.5c0.7-4.2,4.1-8.9,3.7-9.1
										c-0.4-0.2-2.6-1.2-4,0C315.8,205.6,308.6,213.7,313.5,226.4z"/>
								</g>
							</g>
						</g>
						<g id="XMLID_949_">
							<path class="st20" d="M287,211.3h-0.9c0,0-25.8-1.7-53.5-6.2c-27.2-4.5-45.6-13.6-48-20.4c-1.2,8.1,6.6,17.5,22.5,23.2
								c20.5,7.3,78.3,9.6,78.3,9.6C286,215.6,286.6,213.6,287,211.3z"/>
						</g>
						<g id="XMLID_946_">
							<defs>
								<path id="XMLID_947_" d="M287,204.1c0,0-39.6-13.7-54.3-19.1c-14.7-5.4-36.2-16.2-44.8-7.1c-8.5,9-1.4,22.5,19.1,29.9
									c20.5,7.3,78.3,9.6,78.3,9.6C287,213.1,287.6,208.7,287,204.1z"/>
							</defs>
							<clipPath id="XMLID_4_">
								<use xlink:href="#XMLID_947_"  style="overflow:visible;"/>
							</clipPath>
							<path id="XMLID_948_" class="st21" d="M281.9,201.8c0,3.6-0.8,11.6-2.3,16.6"/>
						</g>
					</g>
					<g id="XMLID_944_">
						<path class="st1" d="M228.5,142.9c0,0,3.1-8.2,1-20.2c0,0,3.9,14.7-0.3,22.8L228.5,142.9z"/>
					</g>
					<g id="XMLID_943_">
						<path class="st1" d="M288.5,140.9c0,0,1.1-9.3-0.9-18c0,0,2.5,5,2.3,18.3L288.5,140.9z"/>
					</g>
				</g>
				<g id="XMLID_934_">
					<g id="XMLID_941_">
						<path class="st22" d="M165.2,188.5c3.6-0.7,9.9-1.4,14.3,2.5c2.9,2.5,1.5,2.9-1,2.9c-4.3-0.1-7.7,3.5-7.7,3.5s-5.6,0.6-7-3.8
							C161.9,187.3,165.2,188.5,165.2,188.5z"/>
					</g>
					<g id="XMLID_940_">
						<path class="st23" d="M151.6,221.2h27.6c6.3,0.1,10.6-0.3,13.7-3.1c3.6-3.2,4.2-8.8,3.6-13.2c-0.7-1.7-4.5-0.5-9.2-1.2
							c-4.3-0.7-6.7-2.6-9.2-5.9c-2.4-3.2-3.7-4.5-8.5-6.9c-2.6-1.3-4.8-1.2-4.8-1.2s1.7-3.7,4.3-6.1c3.1-2.9-2.4-4-8.7-1.2
							c-3.7,1.7-7.7,5-10.4,8.1c-1.8,2-6.5,1.7-11.5-2.2c-5.1-3.9-22.8-20-42.2-17.3c-19.4,2.7-32.9,18.6-34.9,30.1
							c-2,11.4,1.8,17.9,5.1,20L151.6,221.2z"/>
					</g>
					<g id="XMLID_939_">
						<path class="st23" d="M63,201.4c-5.4-2.9-19.2-3.1-29.6,5.2c-10.2,8.1-14.4,25-6,37.7c8.4,12.7,24.9,13.1,27.1,11.3
							c2.1-1.8-8.8-8.3-11.8-16.6c0,0,5.9,3.8,9.3,4.1c3.4,0.4-5.2-8.4-6.1-17.6c-0.9-9.3,3.7-19.4,14.9-19L63,201.4z"/>
					</g>
					<g id="XMLID_938_">
						<path class="st15" d="M196.2,211.1c-0.6,0.1-0.4-3.2-1.1-2.9c-0.7,0.3,0.5,2,0.5,2c-2.1-0.5-5-3.5-3.9-5.4
							c1.2-1.9,4.6-1,5.4-0.7C198.2,204.7,199.1,208.7,196.2,211.1z"/>
					</g>
					<path id="XMLID_937_" class="st22" d="M92.9,185.8c0,0,7.5,0.6,10.3,8.7c2.9,8.1-0.3,12.9-2.7,15.5c0,0,10.6-1,15.3,2.1
						c4.7,3.1,4.3,9.1,4.3,9.1l2.6,0c0,0,0.1-7.4-4.8-10.5c-5-3.1-9.1-3.5-11.9-3.3c0,0,2.9-6.3-0.4-13.7
						C102.2,186.4,95.8,185.4,92.9,185.8z"/>
					<path id="XMLID_936_" class="st22" d="M131.8,209.5c0,0,11-1.2,15.7,2.3c4.7,3.5,4.1,9.4,4.1,9.4l2.6,0c0,0,0.7-6.3-4.1-10.1
						C145.4,207.3,134.9,208.5,131.8,209.5z"/>
					<g id="XMLID_935_">
						<path class="st15" d="M163.4,204.5c0,0-0.5-2.7,2.8-3.5c3.5-0.8,4.4,1.8,4.4,1.8s-1.8-0.7-4.1-0.1
							C164.9,203.1,163.4,204.5,163.4,204.5z"/>
					</g>
				</g>
				<path id="XMLID_931_" class="st2" d="M176.7,22.2l21.2,22l-7.1,8l-23.5-19.4L176.7,22.2z M204.9,49.8c0.6,0.6,1.1,1.2,1.5,1.9
					c0.3,0.7,0.5,1.5,0.6,2.3c0,0.8-0.1,1.5-0.3,2.3c-0.2,0.8-0.6,1.5-1.2,2.1c-0.6,0.6-1.2,1.1-1.9,1.5c-0.7,0.3-1.5,0.5-2.3,0.6
					c-0.8,0-1.5-0.1-2.3-0.3c-0.8-0.2-1.5-0.7-2.1-1.2c-0.6-0.6-1.1-1.2-1.5-1.9c-0.4-0.7-0.6-1.5-0.6-2.3c0-0.8,0.1-1.6,0.3-2.3
					c0.2-0.8,0.6-1.5,1.2-2.1c0.6-0.6,1.2-1.1,1.9-1.4c0.7-0.3,1.5-0.5,2.3-0.6c0.8,0,1.6,0.1,2.3,0.3
					C203.6,48.8,204.3,49.2,204.9,49.8z"/>
				<path id="XMLID_928_" class="st2" d="M220.7,29.7l-9.5,2.4c-0.6-2-0.9-3.6-0.9-5.1c0-1.4,0.2-2.7,0.6-3.7c0.4-1,0.9-1.9,1.5-2.7
					c0.6-0.7,1.2-1.4,1.9-2c0.6-0.6,1.2-1.1,1.6-1.6c0.5-0.5,0.7-1.1,0.8-1.7c0-0.4,0-0.8-0.2-1.2c-0.2-0.4-0.5-0.8-0.9-1.1
					c-0.4-0.3-1-0.5-1.7-0.6c-0.7-0.1-1.6,0-2.6,0.2c-0.7,0.2-1.5,0.4-2.4,0.8c-0.9,0.4-1.8,0.8-2.8,1.3c-0.9,0.5-1.9,1.1-2.8,1.7
					c-0.9,0.6-1.7,1.2-2.3,1.9l-4-10.7c0.6-0.6,1.3-1.2,2-1.9c0.8-0.7,1.6-1.3,2.6-1.9c1-0.6,2-1.2,3.2-1.7c1.2-0.5,2.5-1,3.9-1.3
					c2.3-0.6,4.6-0.8,6.8-0.7c2.2,0.1,4.2,0.6,6.1,1.5c1.8,0.9,3.4,2.1,4.8,3.7c1.4,1.6,2.3,3.5,2.9,5.9c0.4,1.8,0.5,3.3,0.3,4.5
					c-0.2,1.2-0.7,2.3-1.3,3.1c-0.6,0.9-1.3,1.7-2.2,2.4s-1.7,1.5-2.5,2.2c-0.8,0.8-1.5,1.7-2,2.7C221.1,27,220.8,28.2,220.7,29.7z
					 M224,36.8c0.2,0.8,0.2,1.6,0.1,2.4c-0.1,0.8-0.4,1.5-0.8,2.2c-0.4,0.7-0.9,1.2-1.6,1.7c-0.6,0.5-1.4,0.8-2.2,1
					c-0.8,0.2-1.6,0.2-2.4,0.1c-0.8-0.1-1.5-0.4-2.2-0.8c-0.7-0.4-1.2-0.9-1.7-1.6c-0.5-0.6-0.8-1.4-1-2.2c-0.2-0.8-0.2-1.6-0.1-2.4
					c0.1-0.8,0.4-1.5,0.8-2.2c0.4-0.7,0.9-1.3,1.6-1.7c0.6-0.5,1.4-0.8,2.2-1.1c0.8-0.2,1.6-0.2,2.4-0.1c0.8,0.1,1.5,0.4,2.2,0.8
					c0.7,0.4,1.3,0.9,1.8,1.6C223.4,35.2,223.8,36,224,36.8z"/>
			</g>
		</g>
		<g>
			<g id="XMLID_834_">
				<g id="XMLID_850_">
					<g id="XMLID_853_">
						<g id="XMLID_854_">
							<defs>
								<path id="XMLID_855_" d="M287,204.1c0,0-39.6-13.7-54.3-19.1c-14.7-5.4-36.2-16.2-44.8-7.1c-8.5,9-1.4,22.5,19.1,29.9
									c20.5,7.3,78.3,9.6,78.3,9.6C287,213.1,287.6,208.7,287,204.1z"/>
							</defs>
							<clipPath id="XMLID_5_">
								<use xlink:href="#XMLID_855_"  style="overflow:visible;"/>
							</clipPath>
						</g>
					</g>
				</g>
			</g>
		</g>
	</g>
</g>
</svg>
