<?xml version="1.0" encoding="utf-8"?>
<!-- Generator: Adobe Illustrator 23.0.1, SVG Export Plug-In . SVG Version: 6.00 Build 0)  -->
<svg version="1.1" id="Layer_1" xmlns="http://www.w3.org/2000/svg" xmlns:xlink="http://www.w3.org/1999/xlink" x="0px" y="0px"
	 viewBox="0 0 541.8 472.2" style="enable-background:new 0 0 541.8 472.2;" xml:space="preserve">
<style type="text/css">
	.st0{fill:#FFFFFF;stroke:#282B5C;stroke-width:2;stroke-miterlimit:10;}
	.st1{fill:#5755A1;}
	.st2{fill:none;stroke:#5755A1;stroke-width:3;stroke-linecap:round;stroke-miterlimit:10;}
	.st3{fill:#FFFFFF;}
	.st4{fill:#C7C1E2;}
	.st5{fill:none;stroke:#282B5C;stroke-width:2;stroke-miterlimit:10;}
	.st6{fill:#282B5C;}
	.st7{fill:none;stroke:#282B5C;stroke-width:2;stroke-linecap:round;stroke-miterlimit:10;}
	.st8{fill:#EE7AAB;stroke:#282B5C;stroke-width:2;stroke-miterlimit:10;}
	.st9{fill:#EE7AAB;}
</style>
<g>
	<g>
		<g>
			
				<ellipse transform="matrix(0.381 -0.9246 0.9246 0.381 104.4406 369.5187)" class="st0" cx="328.2" cy="106.8" rx="12.8" ry="12.8"/>
			<path class="st1" d="M336.1,104.1c0-3.3-2.7-5.9-5.9-5.9c-3.3,0-5.9,2.7-5.9,5.9s2.7,5.9,5.9,5.9
				C333.5,110,336.1,107.4,336.1,104.1z"/>
			<path class="st2" d="M319.2,58.1c0,0,14.8,17.5,11.9,43.2"/>
		</g>
		<g>
			<g>
				<path class="st3" d="M327.8,115.4c0-14.3-0.2-79.1-36.9-79.1c-36.7,0-50.2,32.6-50.2,79.1c0,2.3,0.1,4.8,0.2,7.4l-5.2,95.5
					l27.2,19.3l30.6-19.3l-1.7-32.2C334.6,185.3,327.8,129.7,327.8,115.4z"/>
				<path class="st4" d="M307.8,42.3c-7.8-2.7-20.6-3.5-32.7-3.6c-22.3,7.5-32.3,31.7-34.1,64.8l3.3-3c1,0.3,17-14.7,16.6-29.4
					c0,0,43,9.6,51.5-16.6c0.6-1.9,2.1-2.9,2.4-4.1C312.8,47.3,310.5,44.5,307.8,42.3z"/>
				<path class="st4" d="M286.4,222.8l7.1-4.5l-1.7-31.6c-10.1-3.1-22.4-7.8-28.9-14c-12.2-11.7-13.1-26.3-13.1-26.3
					s-4.3,21.2,3.7,32.3c7.9,11.1,11.3,24.5,7.4,36.6L286.4,222.8z"/>
			</g>
			<g>
				<path class="st5" d="M327.8,115.4c0-14.3-0.2-79.1-36.9-79.1c-36.7,0-50.2,32.6-50.2,79.1c0,2.3,0.1,4.8,0.2,7.4l-5.2,95.5
					l27.2,19.3l30.6-19.3l-1.7-32.2C334.6,185.3,327.8,129.7,327.8,115.4z"/>
			</g>
		</g>
		<g>
			<path class="st6" d="M305.8,93c0-2.9-2.3-5.2-5.2-5.2c-2.9,0-5.2,2.3-5.2,5.2c0,2.9,2.3,5.2,5.2,5.2
				C303.5,98.2,305.8,95.9,305.8,93z"/>
			<path class="st6" d="M287.1,93c0-2.9-2.3-5.2-5.2-5.2c-2.9,0-5.2,2.3-5.2,5.2c0,2.9,2.3,5.2,5.2,5.2
				C284.8,98.2,287.1,95.9,287.1,93z"/>
			<path class="st7" d="M290.6,89.5c0,19.7,8.7,27.3,11.7,30.1c3,2.8,1.9,10.2-6.9,9.2l5.2,14.4c0,0-17.8,6.4-28.2-4.4"/>
			<path class="st7" d="M272.4,146.4c3.4,3,8.7,4.4,12.1,3.7"/>
		</g>
		<path class="st6" d="M240.6,101.8c0,0,18.6-24.2,14.6-42.5c0,0,13.9,9,47,6.3c33.1-2.7,60.8-55.9,25.9-64s-26.6,18.3-58.5,22.6
			c-31.9,4.3-82.6,40.4-29.6,121.1L240.6,101.8z"/>
		<g>
			
				<ellipse transform="matrix(0.7071 -0.7071 0.7071 0.7071 -5.0108 201.431)" class="st0" cx="240.6" cy="106.8" rx="12.8" ry="12.8"/>
			<path class="st1" d="M243.1,109.4c0-3.3-2.7-5.9-5.9-5.9c-3.3,0-5.9,2.7-5.9,5.9c0,3.3,2.7,5.9,5.9,5.9
				C240.4,115.4,243.1,112.7,243.1,109.4z"/>
			<path class="st2" d="M237.1,108c-3.4-7.8-19-50.9-2.8-67"/>
		</g>
		<g>
			<path class="st2" d="M308.3,160.8c20.7,10.5,45.6-0.2,23.2-41.3"/>
			<path class="st6" d="M312.3,160.7c0-3.3-2.7-5.9-5.9-5.9c-3.3,0-5.9,2.7-5.9,5.9c0,3.3,2.7,5.9,5.9,5.9
				C309.7,166.6,312.3,164,312.3,160.7z"/>
		</g>
	</g>
	<g>
		<path class="st6" d="M351.3,433H177.9l-16.1-190c0-19.1,15.5-34.6,34.6-34.6h136.4c19.1,0,34.6,15.5,34.6,34.6L351.3,433z"/>
		<g>
			<polygon class="st3" points="264.6,210.1 297,226.5 296.9,199 232.3,199 232.2,226.5 			"/>
			<polygon class="st5" points="264.6,210.1 297,226.5 296.9,199 232.3,199 232.2,226.5 			"/>
		</g>
		<g>
			<path class="st3" d="M268.3,229.1c0-2.1-1.7-3.7-3.7-3.7c-2.1,0-3.7,1.7-3.7,3.7c0,2.1,1.7,3.7,3.7,3.7
				C266.6,232.8,268.3,231.1,268.3,229.1z"/>
			<path class="st3" d="M268.3,246.4c0-2.1-1.7-3.7-3.7-3.7c-2.1,0-3.7,1.7-3.7,3.7c0,2.1,1.7,3.7,3.7,3.7
				C266.6,250.1,268.3,248.5,268.3,246.4z"/>
			<path class="st3" d="M268.3,264.5c0-2.1-1.7-3.7-3.7-3.7c-2.1,0-3.7,1.7-3.7,3.7c0,2.1,1.7,3.7,3.7,3.7
				C266.6,268.3,268.3,266.6,268.3,264.5z"/>
		</g>
	</g>
	<g>
		<g>
			<path class="st3" d="M195.3,215.5l-0.3-0.2c-8.1-5.4-19.1-3.2-24.4,4.9L69.1,372.7c-5.4,8.1-3.2,19.1,4.9,24.4l0.3,0.2
				c8.1,5.4,19.1,3.2,24.4-4.9L200.2,240C205.6,231.8,203.4,220.9,195.3,215.5z"/>
			<path class="st4" d="M149.6,306.3c-12.2,19.7-22.4,35.3-48.3,36.7c-5.5,0.3-10.9,2.2-15.8,5l-16.3,24.5
				c-5.4,8.2-3.2,19.2,4.9,24.7c8.2,5.4,19.2,3.2,24.7-4.9l82.7-124.3C172.1,277.7,157.5,293.6,149.6,306.3z"/>
			<path class="st5" d="M195.3,215.5l-0.3-0.2c-8.1-5.4-19.1-3.2-24.4,4.9L69.1,372.7c-5.4,8.1-3.2,19.1,4.9,24.4l0.3,0.2
				c8.1,5.4,19.1,3.2,24.4-4.9L200.2,240C205.6,231.8,203.4,220.9,195.3,215.5z"/>
		</g>
		<g>
			<g>
				<path class="st3" d="M220.1,362.9h19.7c0,0,3.8-23-6.9-31.1C222.1,323.7,228.2,352.8,220.1,362.9z"/>
				<path class="st5" d="M220.1,362.9h19.7c0,0,3.8-23-6.9-31.1C222.1,323.7,228.2,352.8,220.1,362.9z"/>
			</g>
			<path class="st3" d="M94.3,353.2h140.1c15.7,0,28.5,12.8,28.5,28.5l0,0c0,15.7-12.8,28.5-28.5,28.5H94.3
				c-15.7,0-28.5-12.8-28.5-28.5l0,0C65.8,366,78.6,353.2,94.3,353.2z"/>
			<path class="st4" d="M94.3,410.2h140.1c11.5,0,21.5-6.9,25.9-16.8c-51.7,0-131.3,0-158.9,0c-24,0-27.9-17.3-26.3-32.8
				c-5.7,5.2-9.3,12.7-9.3,21l0,0C65.8,397.4,78.6,410.2,94.3,410.2z"/>
			<path class="st5" d="M94.3,353.2h140.1c15.7,0,28.5,12.8,28.5,28.5l0,0c0,15.7-12.8,28.5-28.5,28.5H94.3
				c-15.7,0-28.5-12.8-28.5-28.5l0,0C65.8,366,78.6,353.2,94.3,353.2z"/>
			<g>
				<rect x="189.2" y="353.2" class="st5" width="22.8" height="56.4"/>
				<circle class="st6" cx="200.6" cy="366.5" r="3.6"/>
				<line class="st5" x1="200.6" y1="381.4" x2="200.6" y2="410.2"/>
			</g>
		</g>
	</g>
	<g>
		<g>
			<path class="st3" d="M335.9,215.5l0.3-0.2c8.1-5.4,19.1-3.2,24.4,4.9l101.5,152.5c5.4,8.1,3.2,19.1-4.9,24.4l-0.3,0.2
				c-8.1,5.4-19.1,3.2-24.4-4.9L331,240C325.6,231.8,327.8,220.9,335.9,215.5z"/>
			<path class="st4" d="M381.6,306.3c12.2,19.7,22.4,35.3,48.3,36.7c5.5,0.3,10.9,2.2,15.8,5l16.3,24.5c5.4,8.2,3.2,19.2-4.9,24.7
				c-8.2,5.4-19.2,3.2-24.7-4.9l-82.7-124.3C359.1,277.7,373.7,293.6,381.6,306.3z"/>
			<path class="st5" d="M335.9,215.5l0.3-0.2c8.1-5.4,19.1-3.2,24.4,4.9l101.5,152.5c5.4,8.1,3.2,19.1-4.9,24.4l-0.3,0.2
				c-8.1,5.4-19.1,3.2-24.4-4.9L331,240C325.6,231.8,327.8,220.9,335.9,215.5z"/>
		</g>
		<g>
			<path class="st3" d="M436.9,353.2H296.8c-15.7,0-28.5,12.8-28.5,28.5l0,0c0,15.7,12.8,28.5,28.5,28.5h140.1
				c15.7,0,28.5-12.8,28.5-28.5l0,0C465.4,366,452.6,353.2,436.9,353.2z"/>
			<path class="st4" d="M436.9,410.2H296.8c-11.5,0-21.5-6.9-25.9-16.8c51.7,0,131.3,0,158.9,0c24,0,27.9-17.3,26.3-32.8
				c5.7,5.2,9.3,12.7,9.3,21l0,0C465.4,397.4,452.6,410.2,436.9,410.2z"/>
			<path class="st5" d="M436.9,353.2H296.8c-15.7,0-28.5,12.8-28.5,28.5l0,0c0,15.7,12.8,28.5,28.5,28.5h140.1
				c15.7,0,28.5-12.8,28.5-28.5l0,0C465.4,366,452.6,353.2,436.9,353.2z"/>
			<g>
				
					<rect x="319.2" y="353.2" transform="matrix(-1 -1.224647e-16 1.224647e-16 -1 661.2599 762.8575)" class="st5" width="22.8" height="56.4"/>
				<circle class="st6" cx="330.6" cy="366.5" r="3.6"/>
				<line class="st5" x1="330.6" y1="381.4" x2="330.6" y2="410.2"/>
			</g>
		</g>
	</g>
</g>
<g>
	<g>
		<rect y="409.6" class="st1" width="541.8" height="62.5"/>
		<line class="st5" x1="0" y1="434.3" x2="340" y2="434.3"/>
		<line class="st5" x1="541.8" y1="443.7" x2="406.4" y2="443.7"/>
		<line class="st5" x1="483.8" y1="460.1" x2="205.5" y2="460.1"/>
		<line class="st5" x1="241.4" y1="443.7" x2="48.9" y2="443.7"/>
		<line class="st5" x1="541.8" y1="425.5" x2="460" y2="425.5"/>
	</g>
	<g>
		<rect x="285.3" y="404.4" class="st8" width="197.2" height="10.8"/>
		<path class="st8" d="M475,274.8H292.8c-4.2,0-7.5,3.4-7.5,7.5V399h197.2V282.4C482.5,278.2,479.1,274.8,475,274.8z"/>
		<g>
			<path class="st3" d="M397,337.7c-1,0.3-2.1,0.5-3.2,0.5c-6.5,0-11.6-5.1-11.4-11.5c0.1-1.9,0.6-3.7,1.5-5.3
				c-6.9,0.4-12.6,6-12.8,12.9c-0.1,2.4,0.6,4.5,1.6,6.4c-3,2.8-4.8,6.8-5,11.1c-0.2,8.7,6.8,15.8,15.7,15.8c8.9,0,16.3-7,16.5-15.7
				c0.1-4.3-1.6-8.2-4.4-11.1C396.2,339.8,396.6,338.8,397,337.7z"/>
			<path class="st3" d="M399.1,306.2L399.1,306.2c-7.3,0-13.3,5.8-13.5,12.9l0,0l0,0C392.9,319.1,398.9,313.4,399.1,306.2
				L399.1,306.2z"/>
		</g>
	</g>
	<g>
		<g>
			<path class="st6" d="M69.5,350.2v8.4c-11.7,0-30.9-7.1-30.9,21.3c0,28.4,19.2,21.3,30.9,21.3v8.4c-16.4,0-39.3,7.3-39.3-29.7
				S53.1,350.2,69.5,350.2z"/>
		</g>
		<path class="st6" d="M60.2,342.9h52.7c1.5,0,2.7,1.2,2.7,2.7v69.6h-58v-69.6C57.6,344.1,58.7,342.9,60.2,342.9z"/>
		<path class="st9" d="M73,315.6c-30.3,3.1-12-18.3,13.1-22c25.1-3.7,10.7-7.8,10.7-7.8c10.7,1.3,16.5,8.9,0,9.4
			c-16.5,0.5-29.3,11.2-18,11.8c11.3,0.5,35.5-2.9,37,3.9c1.6,6.8-18.6,7.3-29.8,8.6c-11.2,1.3-18.8,6.5-3.7,6.8
			c15.2,0.3,11.8,12.3,11.8,12.3c-4.1-11.5-27.2-5-28-13.1C65.4,317.4,103.3,312.4,73,315.6z"/>
		
			<rect x="108.7" y="348.5" transform="matrix(-1 -1.224647e-16 1.224647e-16 -1 220.7171 758.5254)" class="st3" width="3.4" height="61.6"/>
	</g>
</g>
</svg>
