<?xml version="1.0" encoding="utf-8"?>
<!-- Generator: Adobe Illustrator 23.0.1, SVG Export Plug-In . SVG Version: 6.00 Build 0)  -->
<svg version="1.1" id="Layer_1" xmlns="http://www.w3.org/2000/svg" xmlns:xlink="http://www.w3.org/1999/xlink" x="0px" y="0px"
	 viewBox="0 0 254.7 49.9" style="enable-background:new 0 0 254.7 49.9;" xml:space="preserve">
<style type="text/css">
	.st0{fill:#FFFFFF;}
	.st1{font-family:'BerlinSansFB-Bold';}
	.st2{font-size:15.87px;}
	.st3{fill:#DB0C5C;}
	.st4{font-size:16.13px;}
</style>
<title>logo</title>
<path class="st0" d="M59.4,22.3l-1.7-0.5c-0.9-0.3-1.8-0.4-2.7-0.5c-2.9-0.2-5.4,2-5.6,4.8c0,0.3,0,0.5,0,0.8
	c-0.1,1.5,0.5,3,1.7,4.1c1.2,1,2.7,1.6,4.3,1.5c1,0,1.9-0.2,2.8-0.6c0.5-0.2,1-0.4,1.5-0.6c0.3,0,0.7,1.2,1.2,3.6
	c0.3,1.4,0.6,2.9,0.7,4.4c0,0.7-1.2,1.3-3.5,1.8c-1.4,0.3-2.9,0.5-4.4,0.6c-3.9,0.1-7.6-1.4-10.3-4.2c-2.7-2.8-4.2-6.6-4-10.5
	c-0.1-3.9,1.4-7.7,4.1-10.5c2.7-2.8,6.4-4.3,10.3-4.2c2.6-0.1,5.2,0.6,7.4,1.8c0.5,0.3,0.7,0.5,0.7,0.8c-0.2,1.1-0.5,2.3-0.8,3.4
	c-0.5,1.9-0.9,3.1-1,3.5S59.6,22.3,59.4,22.3z"/>
<path class="st0" d="M90.4,27c0.2,3.9-1.3,7.7-4,10.5c-2.8,2.7-6.5,4.2-10.4,4c-3.8,0.1-7.5-1.3-10.3-4c-2.7-2.7-4.1-6.4-4-10.2
	c-0.2-3.9,1.2-7.8,3.9-10.7c2.6-2.7,6.1-4.1,10.4-4.1c3.9-0.2,7.6,1.3,10.4,4C89.1,19.3,90.5,23.1,90.4,27z M81.1,27
	c0-1.5-0.5-2.9-1.4-4c-0.9-1.1-2.2-1.8-3.6-1.7c-1.4,0-2.8,0.6-3.7,1.8c-0.9,1.1-1.4,2.5-1.4,4c0,1.5,0.4,2.9,1.4,4
	c1.6,2,4.6,2.3,6.6,0.7c0.3-0.2,0.5-0.5,0.7-0.7C80.6,29.9,81.1,28.4,81.1,27z"/>
<path class="st0" d="M122.1,0.7c0-0.4-0.1,0.2-0.2,1.9c-0.2,2.1-0.4,4.8-0.5,8.1c-0.2,3.7-0.2,7.9-0.2,12.7
	c-0.1,5.6,0.1,11.2,0.7,16.7c0,0.4,0.1,0.6,0.1,0.7s-0.1,0.3-0.4,0.4c-0.7,0.1-3.2,0.1-7.5,0.1c-1,0-1.6-0.2-1.8-0.6
	c0-0.7-0.1-1.4-0.1-2.2c0-0.2-0.1-0.3-0.2-0.5c-0.2,0.1-0.3,0.2-0.4,0.3c-2,2-4.8,3.1-7.7,3c-3.7,0.1-7.2-1.4-9.6-4.2
	c-2.3-2.8-3.6-6.4-3.4-10.1c-0.1-3.7,1.1-7.3,3.4-10.2c2.4-2.8,5.9-4.4,9.6-4.3c2.5-0.1,5,0.9,6.7,2.7c0.3,0.3,0.4,0.4,0.6,0.4
	s0.3-0.2,0.3-0.7c0-1.5,0-3.6-0.1-6.5S111,3.4,111,2c0-0.5,0.2-0.9,0.4-0.9c1.2-0.1,2.9-0.2,5-0.3c1.7-0.1,3.3-0.4,5-0.7
	C121.9,0,122.1,0.2,122.1,0.7z M111.4,26.8c0-1.5-0.5-2.9-1.6-3.9c-1-1.1-2.3-1.7-3.8-1.7c-1.4-0.1-2.8,0.6-3.7,1.7
	c-0.9,1.1-1.4,2.5-1.4,4c0,1.4,0.5,2.8,1.4,3.9c0.9,1.1,2.3,1.7,3.7,1.7c1.5,0,2.8-0.6,3.8-1.7C110.9,29.7,111.4,28.2,111.4,26.8z"
	/>
<path class="st0" d="M149.6,25.6c0,1.9-0.6,3-1.8,3.3c-0.2,0-2.2,0.3-5.9,0.6c-2.2,0.2-5.6,0.5-10,0.9c0.3,1.3,1.2,2.3,2.4,2.8
	c1.2,0.5,2.5,0.8,3.8,0.8c1.8,0,3.5-0.5,5.1-1.4l2.2-1.4c0.4,0.2,1.1,1.2,2,2.9c0.7,1,1.1,2.1,1.4,3.3c0,0.1-0.1,0.3-0.4,0.7
	c-2.3,2.5-5.9,3.7-10.8,3.7c-4.5,0-8.1-1.3-10.9-4c-2.8-2.6-4.2-6.2-4.3-10.7c-0.2-3.9,1.2-7.8,3.8-10.7c2.7-2.9,6.5-4.5,10.4-4.3
	c3.5,0,6.9,1.4,9.3,4C148.2,18.6,149.6,22,149.6,25.6z M139.6,23.8c0-1.2-0.4-2.3-1.3-3.1c-0.8-0.9-1.9-1.4-3-1.3
	c-1.2,0-2.3,0.6-2.9,1.5c-0.7,0.9-1.1,2.1-1.1,3.3c0,0.4,0.2,0.7,0.6,0.8c0.1,0,0.1,0,0.2,0c2.2-0.1,4.4-0.3,6.5-0.7
	C139.3,24.2,139.6,24,139.6,23.8L139.6,23.8z"/>
<path class="st0" d="M170.7,22.3l-1.7-0.5c-0.9-0.3-1.8-0.4-2.7-0.5c-1.5-0.1-2.9,0.5-4,1.5c-1,1.1-1.6,2.5-1.5,4
	c-0.1,1.5,0.5,3,1.6,4.1c1.2,1,2.7,1.6,4.3,1.5c1,0,1.9-0.2,2.8-0.6c0.5-0.2,1-0.4,1.5-0.6c0.3,0,0.7,1.2,1.2,3.6
	c0.3,1.4,0.6,2.9,0.7,4.4c0,0.7-1.2,1.3-3.5,1.8c-1.4,0.3-2.9,0.5-4.4,0.6c-3.9,0.1-7.6-1.4-10.3-4.2c-2.7-2.8-4.1-6.6-4-10.5
	c-0.1-3.9,1.4-7.7,4.1-10.5c2.7-2.8,6.4-4.3,10.3-4.2c2.6-0.1,5.2,0.6,7.4,1.8c0.5,0.3,0.7,0.5,0.7,0.8c-0.2,1.1-0.5,2.3-0.9,3.4
	c-0.5,1.9-0.9,3.1-1,3.5S170.9,22.3,170.7,22.3z"/>
<path class="st0" d="M203.6,15.2c0,1.4-0.1,3.5-0.2,6.3s-0.2,4.9-0.2,6.3c0,1.4,0,3.4,0.1,6.1c0.1,2.7,0.1,4.7,0.1,6.1
	c0.1,0.5-0.3,0.9-0.7,1c-1.5,0.2-3,0.3-4.6,0.3c-1.4,0-2.9,0-4.3-0.2c-0.4-0.1-0.6-0.3-0.7-0.7c-0.1-0.6-0.1-1.1-0.2-1.7
	c-0.1-0.9-0.2-1.3-0.4-1.3c0.3,0-0.7,0.6-2.9,1.9c-1.8,1.2-3.8,1.8-5.9,1.9c-5,0-8-2.3-8.9-6.8c-0.5-3-0.7-6.1-0.6-9.1
	c-0.1-3.4,0.3-6.9,1.1-10.2c0.2-0.8,0.6-1.2,1.2-1.2h4h4c0.6,0,0.9,0.3,0.9,0.7c0,0.2,0,0.4-0.1,0.6c-0.4,2.6-0.6,5.2-0.6,7.8
	c-0.1,2.3,0,4.5,0.3,6.8c0.1,1.9,1.7,3.3,3.6,3.1c0,0,0.1,0,0.1,0c1-0.1,2-0.5,2.7-1.1c0.8-0.5,1.4-1.3,1.5-2.3
	c0-0.7,0.1-5.4,0.1-14.3c0-0.4,0-0.8,0.1-1.1c0.1-0.2,0.4-0.3,1-0.3h4.2h4.2c0.6,0,0.9,0.1,1,0.4C203.6,14.7,203.6,14.9,203.6,15.2z
	"/>
<path class="st0" d="M223.1,18c-0.1,0.3-0.2,0.6-0.4,0.8c-0.5-0.1-1.1-0.2-1.6-0.2c-1,0-2,0.2-2.8,0.7c-0.9,0.5-1.4,1.4-1.4,2.4
	c0.2,1,0.7,1.9,1.4,2.5c1,1,1.9,2,2.7,3.1c1,1.4,1.5,3,1.4,4.7c0,1-0.2,2.1-0.6,3.1c-0.3,1-0.9,1.9-1.6,2.6
	c-1.5,1.3-3.1,2.3-4.9,3.1c-1.8,0.8-3.7,1.2-5.6,1.3c-0.4,0-1.2-1-2.5-3.1s-2-3.3-2-3.8c0-0.2,0.1-0.3,0.3-0.3l4-0.7
	c1.7-0.5,2.5-1.4,2.5-2.6c-0.1-1.1-0.6-2.1-1.4-2.9c-1.7-1.9-2.6-2.9-2.7-3c-0.9-1.2-1.4-2.8-1.4-4.3c0-2.8,1.4-5.3,4.3-7.2
	c2.4-1.7,5.3-2.6,8.3-2.6c0.3,0,1,1,2.2,3C222.1,15.5,222.7,16.7,223.1,18z"/>
<path class="st0" d="M254.7,27.3c0.1,3.7-1.1,7.3-3.6,10.1c-2.4,2.8-6,4.3-9.7,4.1c-1.6,0-3.2-0.4-4.7-1.1c-0.8-0.3-1.6-0.6-2.3-1.1
	c-0.3,0-0.4,0.3-0.4,0.8c0,1,0.1,2.4,0.1,4.3s0.1,3.4,0.1,4.4c0.1,0.4-0.3,0.9-0.7,0.9c-0.1,0-0.1,0-0.2,0h-5.8
	c-0.8,0-1.7,0-2.5-0.1c-0.5-0.1-0.9-0.5-0.9-1l0.1-21.8c0.1-3.7-0.3-7.5-1-11.1c0-0.2-0.1-0.3-0.1-0.5c0-0.2,0.1-0.5,0.3-0.6
	c1.4-0.4,2.8-0.7,4.2-0.9c1.5-0.3,2.9-0.4,4.4-0.5c0.7,0,1.1,0.5,1.3,1.5s0.2,1.5,0.4,1.5c-0.2,0,0.6-0.5,2.4-1.6
	c1.5-0.9,3.2-1.5,4.9-1.5c3.7-0.2,7.3,1.3,9.8,4C253.6,19.9,254.9,23.6,254.7,27.3z M244.2,27.3c0-1.5-0.5-2.9-1.4-4
	c-0.9-1.1-2.3-1.8-3.7-1.8c-1.4,0-2.8,0.6-3.6,1.8c-0.8,1.2-1.2,2.6-1.2,4c-0.1,1.4,0.4,2.8,1.3,4c0.9,1.2,2.2,1.8,3.7,1.7
	C242.6,33,244.2,31.1,244.2,27.3z"/>
<text transform="matrix(1 0 0 1 6.6 32.07)" class="st0 st1 st2">{ }</text>
<path class="st3" d="M30.6,20.7h-1.9c-0.4,0-0.8,0-1.1,0.1v-4.2c0-0.2,0-0.4-0.1-0.7c2.2-1.7,2.6-4.8,0.9-7c-1.1-1.5-3-2.2-4.8-1.9
	c-1-1.1-2.5-1.7-4-1.6C18,3,14.8,2.4,12.4,4c-0.3,0.2-0.5,0.4-0.7,0.6c-0.3-0.1-0.5-0.2-0.8-0.3l-0.3-0.1c-0.3,0-0.5-0.1-0.8-0.1
	c-0.4,0-0.8,0-1.1,0H8.6C6.5,4.4,4.7,5.7,3.8,7.6c-2.5,0.5-4.2,3-3.7,5.5C0.4,14.3,1,15.3,2,16c0,0.2,0,0.3,0,0.5v25.3
	c0,1.9,1.5,3.4,3.4,3.4h18.8c1.9,0,3.4-1.5,3.4-3.4v-5.2c0.4,0.1,0.7,0.1,1.1,0.1h1.9c3.4,0,6.2-2.8,6.2-6.2v-3.7
	C36.7,23.4,34,20.7,30.6,20.7z M25.3,41.8c0,0.6-0.5,1.1-1.1,1.1H5.3c-0.6,0-1.1-0.5-1.1-1.1V16.6c0-0.6,0.5-1.1,1.1-1.1h18.9
	c0.6,0,1.1,0.5,1.1,1.1l0,0L25.3,41.8z M26.3,14L26.3,14c-0.6-0.5-1.3-0.8-2.1-0.8H5.3c-0.8,0-1.6,0.3-2.2,0.9
	c-0.5-0.5-0.9-1.1-0.9-1.8c0-1.3,1.1-2.4,2.4-2.4h0.9l0.2-0.9c0.4-1.3,1.6-2.3,3-2.4H10c0.5,0,1,0.2,1.4,0.5l0.9,0.6l0.6-0.9
	c0.5-0.8,1.5-1.3,2.4-1.3c1.1,0,2.1,0.7,2.6,1.7l0.4,0.8l0.9-0.2c1.2-0.2,2.3,0.3,3,1.2l0.5,0.7l0.8-0.3c1.4-0.5,3,0.2,3.5,1.6
	c0.1,0.3,0.2,0.7,0.2,1C27.3,12.7,26.9,13.5,26.3,14L26.3,14z M33.3,30.6c0,1.5-1.3,2.8-2.8,2.8c0,0,0,0,0,0h-1.8
	c-0.4,0-0.8-0.1-1.1-0.2v-8.9c0.3-0.2,0.7-0.3,1.1-0.3h1.9c1.5,0,2.8,1.3,2.8,2.8L33.3,30.6z"/>
<rect x="4.2" y="15.4" class="st3" width="21.1" height="27.5"/>
<text transform="matrix(1 0 0 1 6.68 33.85)" class="st0 st1 st4">{ }</text>
</svg>
