<?xml version="1.0" encoding="utf-8"?>
<!-- Generator: Adobe Illustrator 23.0.1, SVG Export Plug-In . SVG Version: 6.00 Build 0)  -->
<svg version="1.1" id="Layer_1" xmlns="http://www.w3.org/2000/svg" xmlns:xlink="http://www.w3.org/1999/xlink" x="0px" y="0px"
	 viewBox="0 0 1280 300" style="enable-background:new 0 0 1280 300;" xml:space="preserve">
<style type="text/css">
	.st0{fill:#CADAF2;}
	.st1{fill:none;stroke:#CADAF2;stroke-linecap:round;stroke-linejoin:round;}
	.st2{fill:none;stroke:#CADAF2;stroke-linecap:round;stroke-linejoin:round;stroke-dasharray:3.9929,3.9929;}
	.st3{fill:#5D8BC8;}
	.st4{fill:none;stroke:#194899;stroke-linecap:round;stroke-linejoin:round;stroke-miterlimit:10;}
	.st5{fill:#07AEA0;}
	.st6{fill:none;stroke:#07AEA0;stroke-linecap:round;stroke-linejoin:round;stroke-miterlimit:10;}
	.st7{fill:#315AA6;}
	.st8{fill:#66C0B3;}
	.st9{opacity:0.2;fill:#5476A2;}
	.st10{fill:#8DCDC6;}
	.st11{fill:#47509E;}
	.st12{fill:none;stroke:#194899;stroke-linecap:round;stroke-linejoin:round;stroke-miterlimit:10;stroke-dasharray:4;}
	.st13{fill:none;stroke:#CADAF2;stroke-linecap:round;stroke-linejoin:round;stroke-miterlimit:10;stroke-dasharray:4;}
	.st14{fill:#194899;}
	.st15{fill:#FFFFFF;}
	.st16{fill:#17253F;}
	.st17{fill:#F0832B;}
	.st18{fill:#F7B8A4;}
	.st19{fill:#038077;}
	.st20{fill:#089791;}
	.st21{fill:#D8732A;}
	.st22{fill:#F6A02D;}
	.st23{fill:#FBFBFB;}
	.st24{fill:#9C9B9B;}
	.st25{fill:#B4B4B4;}
	.st26{fill:#979797;}
	.st27{fill:#020203;}
	.st28{fill:#A2CAE3;}
	.st29{fill:#FAC39D;}
	.st30{fill:#1857A1;}
	.st31{fill:#F6AC80;}
	.st32{fill:#1E1E1C;}
	.st33{fill:#575757;}
	.st34{fill:#AEADAD;}
	.st35{fill:#D3D2D1;}
	.st36{fill:#E4E9F7;}
	.st37{fill:#7AB3E2;}
	.st38{fill:#3F65AE;}
	.st39{fill:#C9D6EF;}
	.st40{opacity:0.2;fill:#424261;}
	.st41{opacity:0.21;fill:#E4E9F7;}
	.st42{fill:#FAFCFD;}
	.st43{fill:#7C6EB0;}
	.st44{fill:#A488BE;}
	.st45{fill:#6056A1;}
	.st46{fill:#CFD4ED;}
	.st47{fill:#F8D3A9;}
	.st48{fill:#4F4F9D;}
	.st49{fill:#F18846;}
	.st50{fill:#CED2EB;}
	.st51{fill:#FCC141;}
	.st52{fill:#91C141;}
	.st53{fill:#E94F26;}
	.st54{fill:#E94B45;}
	.st55{fill:#3EC0F0;}
	.st56{fill:#EB5C9D;}
	.st57{fill:#FCC259;}
	.st58{fill:#CB62A2;}
	.st59{fill:#F39A75;}
	.st60{fill:#EA5073;}
	.st61{fill:#FEC702;}
	.st62{fill:#DB0E5C;}
	.st63{fill:#3AAA35;}
	.st64{fill:#F5DE17;}
	.st65{fill:#1973B7;}
	.st66{fill:#35AADD;}
	.st67{fill:#EBEBEB;}
	.st68{fill:#BE1622;}
	.st69{fill:#2178BD;}
	.st70{opacity:0.5;fill:#3C3C3B;}
</style>
<g>
	<ellipse class="st0" cx="143" cy="334.1" rx="38.6" ry="3.6"/>
	<ellipse class="st0" cx="341.5" cy="334.1" rx="38.6" ry="3.6"/>
	<g>
		<g>
			<g>
				<path class="st1" d="M423.2,79.9c-0.1-0.7-0.2-1.3-0.4-2"/>
				<path class="st2" d="M421.9,74C415,50.6,393,52.8,373.1,52.9c-21.4,0-352.5,0.7-352.5,0.7c-33.3,0.1-30.1,48.1-4,48.1
					c15,0,20.7,28.1-5.2,28.2c-15.5,0-16,19.7-5.6,23.7"/>
				<path class="st1" d="M7.7,154c0.6,0.1,1.3,0.2,2,0.2"/>
			</g>
		</g>
		<path class="st3" d="M13.8,153.3c0.4,2.6-1.3,5.1-3.9,5.5c-2.6,0.4-5.1-1.3-5.5-3.9c-0.4-2.6,1.3-5.1,3.9-5.5
			C10.9,148.9,13.3,150.6,13.8,153.3z"/>
		<path class="st3" d="M427.9,82c-0.5,2.6-3,4.3-5.6,3.9c-2.6-0.5-4.3-3-3.9-5.6c0.5-2.6,3-4.3,5.6-3.9
			C426.6,77,428.4,79.4,427.9,82z"/>
	</g>
	<g>
		<g>
			<path class="st3" d="M62.6,118.3c-0.7,3.9-1.7,7.7-2.9,11.4c-2.7,8.1-6.3,15.9-10,23.6c-1.9,4-9.8,13.3-14,15.1
				c0.5-10.5,0.5-22.7-0.7-33.3c-1.2-10.2,2.5-17.9-1.5-27.4c-0.5-1.2-1-2.4-1.6-3.6c-2-4.5-4-9-4.6-13.9C26.6,84,28.5,77,33.8,73.8
				c3.8-2.3,8.8-2.2,12.9-0.4c4.1,1.8,7.4,5.1,9.9,8.8C63.5,92.6,64.8,106,62.6,118.3z"/>
			<path class="st4" d="M44,84.3c7.8,11.1,8.5,23.9,9.2,37.5c0.7,13.5-2.6,27.2-9.3,39"/>
		</g>
		<g>
			<path class="st5" d="M43.7,288.3c-5.5-4.9-11-9.8-15.1-15.9c-3.5-5.3-5.8-11.3-8.9-16.9c-2-3.6-4.3-7.1-5.5-11.1
				c-1.2-4-0.9-8.7,1.9-11.7c2.9-3.1,8-3.6,12-2c4,1.6,7,5,9.4,8.6c3.1,4.8,5.2,10.3,6,15.9c0.8,5.1,0.6,10.4,1.4,15.5
				c0.7,4.8,2.3,9.4,4.4,13.7c1.8,4,6.5,11,7.7,15.1C53.6,301.2,46,290.3,43.7,288.3z"/>
			<path class="st6" d="M24.5,238c5.2,2.3,7.3,8.5,8.4,14.1c1.2,6.4,1,13.3,3.9,19c5.5,10.9,12.7,23.3,18,27"/>
		</g>
		<g>
			<path class="st7" d="M16.7,273.4c-4.6-1.8-10.6-2.5-13.6,1.4c-2.4,3.3-1.2,8,0.5,11.7c1.4,3.2,3.2,6.4,6.2,8.1
				c2.1,1.2,4.5,1.5,6.8,1.8c6.5,0.8,13.1,1.2,19.7,1.1c7.6,0,16.9,3.1,23.2,7.9C51.5,290.2,32,279.4,16.7,273.4z"/>
			<path class="st4" d="M8.7,283.2c5.8,0.2,11.6,0.7,17.2,2.3c5.7,1.7,27.6,11.7,31,16"/>
		</g>
		<g>
			<path class="st8" d="M66.3,242.4c-5.9-9.3-16.1-15.8-27-17.2c-8.1-1.1-16.4,0.4-24.3-1.3c-8.4-1.8-15.9-7.1-20.3-14.5
				c-4.4-7.3-5.5-16.5-3-24.7c1.9-6.2,6.1-12.1,12.3-14.1c3.4-1.1,7.1-0.9,10.5-0.1c3.2,0.8,6.1,2.1,8.8,3.8
				c6.2,3.9,11.2,10,15,16.4c3.4,5.9,11.9,15,17.7,20.9c3.4,3.5,5.8,5.8,5.8,5.8C65.9,222.4,64,236.6,66.3,242.4z"/>
			<path class="st6" d="M2.3,188.6c19.4,8.7,40.5,20.2,54.2,36.4"/>
		</g>
		<g>
			<path class="st9" d="M58.4,222.8c0,0-28.9-23.4-34.9-48.5c6.2,3.9,11.2,10,15,16.4c3.4,5.9,11.9,15,17.7,20.9
				C56.8,214.8,57.5,218.5,58.4,222.8z"/>
			<path class="st9" d="M59.7,129.7c-2.7,8.1-6.3,15.9-10,23.6c-1.9,4-9.8,13.3-14,15.1c0.5-10.5,0.5-22.7-0.7-33.3
				c-1.2-10.2,2.5-17.9-1.5-27.4c-0.5-1.2-1-2.4-1.6-3.6c0.4,0.1,0.7,0.3,1.1,0.4c6.6,2.8,9.6,9.8,10.2,16.5
				c0.5,5.6-0.5,11.2-1.3,16.7c-0.3,2.6-0.6,5.2-0.1,7.7c0,0,0,0.1,0,0.1c0.7,3,5.1,2.8,5.6-0.2l1.8-9.3c0.5-2.8,1.1-5.7,3.4-7.6
				c0.9-0.8,2.1-1.3,3.2-1.2C57.7,127.2,58.9,128.3,59.7,129.7z"/>
			<path class="st10" d="M58.4,217c-4.6-23.8-7-27.5-5-33.4c2.6-7.6,1.1-15.3,3.5-22.9c2.4-7.7,4.1-15.9,2.1-23.7
				c-0.6-2.5-1.9-5.1-4.8-5.2c-1.2,0-2.3,0.4-3.2,1.2c-2.3,1.9-2.9,4.9-3.4,7.6l-1.7,9.3c-0.6,3-4.9,3.2-5.6,0.2c0,0,0-0.1,0-0.1
				c-0.6-2.5-0.3-5.1,0.1-7.7c0.7-5.6,1.8-11.1,1.3-16.7C41,118.8,38,111.8,31.4,109c-2.3-1-5-1.2-7.4-0.6
				c-6.9,1.8-8.7,8.5-7.6,14.2c0.7,4,2.6,7.7,4.3,11.5c4.2,9.1,1.1,17.4,1.7,27.4C23.9,189.1,58.4,217,58.4,217z"/>
			<path class="st6" d="M27.7,115.6c3.4,16.9,6.8,34,13.4,50c1.9,4.7,2.9,10.8,14,23.6"/>
		</g>
		<g>
			<path class="st3" d="M159.9,120c-3.5-4-6.8-8.1-10.2-12c-2.2-2.6-4.5-5-7-7.4c-1.2-1.2-2.5-2.3-3.8-3.4c-7.9-6.5-16.8-12-26.2-16
				c-5.7-2.4-11.7-4.4-16.6-8.3c-4.8-3.9-8.3-10.3-6.7-16.3c1.2-4.3,4.8-7.7,9.1-9.2c4.2-1.5,8.9-1.4,13.2-0.5
				c12.2,2.6,22.4,11.4,29.3,21.8c0.1,0.2,0.3,0.4,0.4,0.6c5.1,7.8,8.6,16.4,11.7,25.2c1,2.8,1.9,5.7,2.9,8.5
				C157.4,107,161.7,115.8,159.9,120z"/>
			<path class="st4" d="M104.1,57c13.3,2.5,22.7,11.4,32.6,20.6s17,21.4,20.4,34.5"/>
		</g>
		<g>
			<path class="st9" d="M149.8,107.9c-0.1,1.4-0.1,2.8,0.2,4.2c-3.3-0.8-5.6-5.9-7.2-11.6c-1.5-5.5-2.2-11.4-2.5-14.1
				c-0.4-5.8-0.1-11.6,1.1-17.3c5.1,7.8,8.6,16.4,11.7,25.2c-1.1,3.2-2,6.3-2.7,9.6C150.1,105.2,149.9,106.6,149.8,107.9z"/>
			<path class="st8" d="M172.9,59.9c-1.1,5-4.1,9.3-6.8,13.7c-1.4,2.3-2.7,4.7-3.9,7.1c-3.9,7.7-6.9,15.8-8.9,24.2
				c-0.6,2.8-1,5.4-0.5,8.2c-6.6-1.5-9.2-20.1-9.6-25.7c-0.8-10,0.9-20.2,5-29.4c1.8-4,4.1-8,7.7-10.5c3.6-2.6,8.6-3.5,12.4-1.2
				c2.3,1.3,3.7,3.6,4.4,6.1C173.4,54.8,173.4,57.5,172.9,59.9z"/>
			<path class="st6" d="M150.3,107.6c-4.1-10.2-1.6-31.9,4.9-45.6c2-4.1,4.8-8,8.7-10.3"/>
		</g>
		<g>
			<path class="st9" d="M172.9,59.9c-1.1,5-4.1,9.3-6.8,13.7c-1.4,2.3-2.7,4.7-3.9,7.1c-1.8-3-3-6.4-3.4-9.8
				c-0.6-5.8,1.7-12,6.4-15.5c2.2-1.6,4.8-2.5,7.5-2.9C173.4,54.8,173.4,57.5,172.9,59.9z"/>
			<path class="st5" d="M210.7,103.3c-0.3,1.9-0.9,3.7-1.7,5.5c-2.9,6.3-9,11.7-18.2,16.1c0,0-0.5-10-0.6-12.6
				c-0.4-11.4-12.8-17.7-20.7-26.1c-4-4.2-7-9.6-7.6-15.4c-0.6-5.8,1.7-12,6.4-15.5c4-2.9,9.1-3.5,14-3.1
				c7.9,0.6,15.8,3.9,20.7,10.1c0.2,0.2,0.4,0.5,0.6,0.7c3,4.1,4.5,9.1,5.7,14C211.3,85.6,212.1,94.6,210.7,103.3z"/>
			<path class="st6" d="M171.7,61.5c8.6,4.4,17.2,9.8,22.2,18.1c7,11.5,5.4,26.5,0.1,38.9"/>
		</g>
		<g>
			<path class="st8" d="M354.2,176.9c5.5-9,2.7-20.6,4.6-30.9c1.5-8,5.9-15.3,12.2-20.4c4-3.2,9.6-5.4,14.1-3c1,0.5,2.1,1.2,3.1,0.7
				c0.6-0.3,0.8-1,0.9-1.7c1.1-5.6-1.5-11.7,0.6-17c1.2-2.8,3.6-5,6.2-6.6c5-3.2,10.8-5,16.8-5.3c1.6-0.1,3.2,0,4.6,0.7
				c2.5,1.3,3.7,4.4,3.4,7.3c-0.3,2.8-1.9,5.3-3.6,7.6c-5.7,7.5-14.2,14-15.3,23.4c-0.1,1.2-0.1,2.4,0.4,3.5c0.5,1,1.5,1.8,2.1,2.8
				c1.8,3.2-1.6,6.9-5,8.5c-3,1.5-6.4,2.4-9.7,2.7c-2.3,0.2-4.9,0.3-6.5,2c-2.9,3.2,0.4,8.2-0.2,12.5c-0.4,2.7-2.3,4.8-4.2,6.6
				c-3.6,3.4-7.5,6.5-11.7,9.2c-3.4,2.2-7,4.1-10,6.8c-3,2.7-5.4,6.3-5.6,10.3"/>
			<path class="st6" d="M361.4,168.2c0.9-4.4,2.9-8.4,4.9-12.4c3.1-6.2,6.3-12.5,11.1-17.6c3.6-3.9,8-6.9,11.7-10.7
				c2.6-2.7,4.8-5.8,6.6-9.1c0.9-1.8,1.8-3.7,3-5.3c1.5-1.9,3.6-3.2,5.4-4.9c2.4-2.2,4.4-4.9,5.7-7.9"/>
		</g>
		<g>
			<path class="st3" d="M432.7,183.2c-1.2,4.7-3.1,9.4-6.2,13.2c-2.2,2.6-4.9,4.6-7.8,6.3c-1.5,0.9-3.1,1.6-4.7,2.3
				c-6.3,2.6-13,4.1-19.8,4.4c-9.9,0.4-20-1.8-29.5,1c-4.4,1.3-8.4,3.6-11.7,6.8c-2.1,1.9-3.8,4.2-5.2,6.6l1.3-8.2
				c2.4-8.8,4.8-17.8,9.7-25.5c3.1-5,7.2-9.4,11.6-13.4c7-6.4,14.7-12.1,23.2-16.2c6.9-3.3,14.5-5.7,22.1-4.8
				c7.6,0.9,15,5.7,17.4,13C434.6,173.3,434,178.4,432.7,183.2z"/>
			<path class="st4" d="M355.6,209.3c7.3-10.7,18.1-19,30.4-23.1c7.7-2.6,15.8-3.5,23.5-5.8c7.8-2.2,15.5-6,20.1-12.7"/>
		</g>
		<g>
			<path class="st8" d="M360.3,288.1c0.4-11,6.1-21.2,13.1-29.8c5.8-7.2,12.7-13.7,21.3-17c2.7-1,5.7-1.7,8.5-1
				c2.8,0.7,5.3,3.1,5.4,6c0,2.4-1.6,4.6-3.3,6.3c-5.7,5.7-13,9.3-19.8,13.4c-11.8,7.1-23,16.6-27.7,29.6"/>
			<path class="st6" d="M364.7,278.4c7.2-16.1,25.8-30.4,38.1-32.2"/>
		</g>
		<g>
			<path class="st5" d="M355.8,296.9c-0.1-1.8,5.9-6.7,7.3-7.9c7.5-6.8,16.5-11.8,25.9-14.8c3.8-1.2,7.9-2.1,11.7-1.1
				c3.8,0.9,7.3,4.1,7.7,8.2c0.4,4-2.3,7.9-5.7,9.9c-3.4,1.9-7.4,2.2-11.3,2c-5.9-0.3-11.7-1.8-17.6-1.8S359.6,291.9,355.8,296.9z"
				/>
			<path class="st6" d="M362,291.2c12.1-6.6,30.4-10.8,43.7-9.2"/>
		</g>
		<g>
			<path class="st9" d="M210.7,103.3c-0.3,1.9-0.9,3.7-1.7,5.5c-4.2-9-8-20.8-8.9-35.2c-0.2-3.9,0.8-7.9,2.9-11.3
				c0.2,0.2,0.4,0.5,0.6,0.7c3,4.1,4.5,9.1,5.7,14C211.3,85.6,212.1,94.6,210.7,103.3z"/>
			<path class="st10" d="M252.6,102.8c9-3.2,18.4-5.8,26.7-10.7c2.5-1.5,4.9-3.2,6.6-5.5c1.8-2.3,2.8-5.2,2.5-8.1
				c-0.4-2.9-2.3-5.7-1.6-8.6c0.4-1.9,1.8-3.4,2.9-5c2.6-3.8,3.4-8.8,2-13.3c-1.4-4.8-5-8.6-7-13.1c-1.7-3.7-2.3-7.9-1.7-11.9
				c-7.6,0.1-14.5,4.2-22,5.6c-5.7,1.1-11.6,0.5-17.3,1.8c-10.3,2.4-18.7,11.4-20.3,21.9c-4.8-0.8-9.9,0.9-13.3,4.4
				c-3.5,3.8-5.5,9.1-5.2,14.3c2.3,37.4,23.8,57,23.8,57S249.2,104,252.6,102.8z"/>
			<g>
				<path class="st6" d="M232.4,102.5c-0.9-9.2,2.3-18.4,6-26.9c3.6-8.3,7.8-16.4,13.3-23.5c5.6-7.1,12.7-13.2,21-16.7"/>
				<path class="st6" d="M240.4,41.1c-0.9,8.2-0.3,18.1,1.9,26.2"/>
				<path class="st6" d="M243.8,64.3c9.4-6,23.9-9.7,35-9.1"/>
				<path class="st6" d="M220.8,65.9c11.3,4.8,11.8,21.4,12.1,26.1"/>
				<path class="st6" d="M236,81.4c8.7-6.2,21.2-8.1,30.4-5.8"/>
				<path class="st6" d="M259.6,36.9c-2.6,3.2-3.3,7-3,9.7"/>
				<path class="st6" d="M259.1,44.2c4-2,9.3-2.5,15-1.1"/>
			</g>
		</g>
		<g>
			<path class="st11" d="M36.5,62.3c1.1-0.1,8.3-5.4,11.1-7.2c0.8-0.5,1.6-1,2.1-1.8s0.8-1.8,0.4-2.6c-0.5-1.1-1.3-2.1-3.4-2.1
				c-3.6,0-4.9,1.2-6.6,3C34.3,57.5,36.5,62.3,36.5,62.3z"/>
			<path class="st11" d="M69,84c3.2,1.4,6.5,2.8,10,2.4c1.3-0.2,2.8-0.8,3.2-2c0.4-1.1-0.1-2.3-1-3.1c-0.9-0.8-2-1.1-3.1-1.4
				c-4.2-1-10.1-0.5-14.3,0.7C63.8,80.5,67.1,83.1,69,84z"/>
			<path class="st11" d="M89.8,37.3c-1.4-0.9-3-2.1-3-3.7c0-1.7,1.7-2.9,3.4-3s3.2,0.9,4.5,2c5.3,4.7,4.7,10,4.7,10
				S91.4,38.3,89.8,37.3z"/>
			<path class="st11" d="M94,23.1c-1.2-0.5-2.5-1.2-3.2-2.3c-0.4-0.6-0.6-1.3-0.3-1.9c0.4-1,1-2,3.6-1.5c8.2,1.5,10,7.1,10,7.1
				S96.2,24,94,23.1z"/>
			<path class="st11" d="M118.1,35.6c3.3-0.3,6.7-1.9,8.8-4.5c0.8-1,1.5-2.1,1.8-3.3c0.3-1.2,0-2.6-1-3.5c-1.2-1-3-0.8-4.3,0
				c-1.3,0.8-2.1,2.2-2.8,3.6C119.8,29.8,118.1,35.6,118.1,35.6z"/>
			<path class="st4" d="M59.1,156.2c-8-7.1-16-14.1-24-21.2c-4.3-3.8-8.6-7.6-11.3-12.6c-5.8-10.8-2.5-24.8,5.4-34.1
				c7.9-9.4,19.4-14.9,30.9-19c11.6-4,23.6-6.9,34.6-12.2c6.9-3.3,13.9-8.3,15.7-15.8c1.1-4.5,0.2-9.4-2.5-13.2
				c-2.7-3.7-7.2-6.1-11.8-6.4"/>
			<path class="st4" d="M123.7,27.9c-2.2,6.7-10.7,10.8-14.6,16.6"/>
			<path class="st4" d="M93.1,35.6c1.7,1.8,3.7,3.2,5.2,5.2c3.1,4.1,3.4,10.8-1.2,15"/>
			<path class="st4" d="M50,73.3c7.1,5.4,16.4,9.1,25.3,9.4"/>
			<path class="st4" d="M33.8,83.2c-3.3-9.6,0.3-21.1,8.4-27.2"/>
		</g>
		<g>
			<path class="st11" d="M292.2,42.6c-0.4-1.2-0.4-2.6,0.5-3.5c0.7-0.7,1.9-1,2.8-0.6c7,3.1,6.3,14.1,6.3,14.1
				S295.1,51.6,292.2,42.6z"/>
			<path class="st11" d="M292,63.2c-4.5,8.2,11.6,7.6,17.4,2.8C309.5,65.9,296,56.1,292,63.2z"/>
			<path class="st11" d="M312.5,43.2c-1.1-1.5-1.5-3.7-0.3-5.2c0.9-1.1,2.4-1.4,3.8-1.1c1.4,0.3,3.4,1.5,4.3,2.6
				c5.3,6.6,2.8,13.1,2.8,13.1S314.3,45.7,312.5,43.2z"/>
			<path class="st11" d="M376.7,63.6c-0.4-1.3-0.3-2.8,0.7-3.7c0.6-0.6,1.5-0.8,2.4-0.7c0.8,0.1,1.6,0.4,2.4,0.7
				c1.6,0.8,2.9,2.1,3.7,3.7c2,4.1,0.6,9.2,0.6,9.2S377.6,66.8,376.7,63.6z"/>
			<path class="st11" d="M356.5,78.7c-2.9-2.5-7.2-3.3-10.7-1.7c-0.9,0.4-1.7,0.9-2.3,1.7c-1.3,1.8-0.8,4.3,0.5,6.1
				c1.3,1.7,3.3,2.8,5.3,3.7c3.6,1.6,9.2,2,13,2.9C362.3,91.4,362.3,83.8,356.5,78.7z"/>
			<path class="st4" d="M297.2,44.4c2.4,7.8,9.1,13.7,16.6,16.8c7.5,3.2,15.7,4,23.9,4.5c8.1,0.5,16.3,0.8,24.2,2.9
				c7.7,2.1,15.3,6.4,18.6,13.6c4,8.8,0.5,19.3-5.2,27.1c-5.6,7.9-13.2,14.2-18.6,22.2c-2.5,3.7-4.6,8-4.1,12.4
				c0.7,5.9,5.6,10.2,10.2,13.9"/>
			<path class="st4" d="M316,41.5c5.4,6,9.7,15.3,10.7,23.2"/>
			<path class="st4" d="M297.9,64.5c3.1,0.8,6.2,1.6,9.4,1.6c3.2,0,6.9-1.8,9.2-4"/>
			<path class="st4" d="M381.9,64.1c2.9,2.8,4.6,6.7,4.8,10.7c0.2,4-2.1,8.9-4.7,11.9"/>
			<path class="st4" d="M351.8,82.3c5.8,5.3,10.8,9.6,17.2,14.1c2.9,2.1,8.7,4.7,11.3,4"/>
		</g>
		<g>
			<path class="st9" d="M418.7,202.7c-1.5,0.9-3.1,1.6-4.7,2.3c-6.3,2.6-13,4.1-19.8,4.4c-9.9,0.4-20-1.8-29.5,1
				c-4.4,1.3-8.4,3.6-11.7,6.8c-0.3,0.2-0.7,0.3-1,0.5c-0.8-6.7,15.9-15.4,21-17.7c9.2-4.1,19.4-5.9,29.4-5.1
				c4.4,0.4,8.9,1.2,12.5,3.7C416.4,199.6,417.7,201.1,418.7,202.7z"/>
			<path class="st8" d="M402.4,198.9c4.4,0.3,8.9,1.2,12.5,3.7c3.6,2.5,6.2,6.9,5.3,11.3c-1,5-6.2,8.3-11.2,8.9
				c-5.1,0.6-10.2-0.8-15.2-1.8c-11.1-2.3-22.5-2.8-33.8-1.5c-2.8,0.3-5.5,0.9-7.9,2.3c-0.8-6.7,15.9-15.4,21-17.7
				C382.2,199.9,392.4,198.1,402.4,198.9z"/>
			<path class="st6" d="M356.4,217.5c8.3-7.3,29.5-12.2,44.6-10.6c4.5,0.5,9.1,1.8,12.6,4.8"/>
		</g>
	</g>
	<path class="st12" d="M340.9,135.7l80.9-0.2c9.5,0,17.2,7.7,17.2,17.2v0c0,9.5-7.7,17.2-17.2,17.2l-55.3,0.1"/>
	<path class="st12" d="M96.2,195l-56.6,0.1c-5.4,0-9.7,4.4-9.7,9.7l0,0c0,5.4,4.4,9.7,9.7,9.7l16.5,0"/>
	<g>
		<path class="st13" d="M5.9,238.9c-19.4,0-19.8,28.9,4.9,28.9c24.7-0.1,348.1-0.7,363.4-0.7c15.3,0,16.9-23.8-2-23.8
			c-37.5,0.1-38.8-17.8-17.9-17.9"/>
		<path class="st3" d="M10.4,238c0.4,2.6-1.3,5.1-3.9,5.5c-2.6,0.4-5.1-1.3-5.5-3.9c-0.4-2.6,1.3-5.1,3.9-5.5
			C7.5,233.7,10,235.4,10.4,238z"/>
		<path class="st14" d="M363.5,225.5c0.4,2.6-1.3,5.1-3.9,5.5c-2.6,0.4-5.1-1.3-5.5-3.9c-0.4-2.6,1.3-5.1,3.9-5.5
			C360.6,221.1,363.1,222.9,363.5,225.5z"/>
	</g>
	<g>
		<path class="st9" d="M368.7,309l-300.9,0.6c-4,0-7.3-3.2-7.3-7.3l-0.4-199.3c0-4,3.2-7.3,7.3-7.3l300.9-0.6c4,0,7.3,3.2,7.3,7.3
			l0.4,199.3C376,305.8,372.7,309,368.7,309z"/>
		<g>
			<path class="st15" d="M362.8,305.2l-300.9,0.6c-4,0-7.3-3.2-7.3-7.3L54.2,99.3c0-4,3.2-7.3,7.3-7.3l300.9-0.6
				c4,0,7.3,3.2,7.3,7.3l0.4,199.3C370.1,302,366.8,305.2,362.8,305.2z"/>
			<path class="st7" d="M361.9,91.4L62.3,92c-4.4,0-7.9,3.6-7.9,7.9l0,6.9l315.4-0.7l0-6.9C369.8,94.9,366.3,91.4,361.9,91.4z"/>
			<path class="st0" d="M62.7,305.9l45.3-0.1l-0.4-199.1l-53.2,0.1L54.7,298C54.7,302.3,58.3,305.9,62.7,305.9z"/>
			<g>
				<path class="st7" d="M362.5,93.4c2.9,0,5.3,2.4,5.3,5.3l0.4,199.3c0,1.4-0.5,2.7-1.5,3.7c-1,1-2.3,1.5-3.7,1.6L62,303.9
					c-2.9,0-5.3-2.4-5.3-5.3L56.3,99.3c0-1.4,0.5-2.7,1.5-3.7c1-1,2.3-1.5,3.7-1.6L362.5,93.4L362.5,93.4 M362.5,91.4
					C362.5,91.4,362.5,91.4,362.5,91.4L61.6,92c-4,0-7.3,3.3-7.3,7.3l0.4,199.3c0,4,3.3,7.3,7.3,7.3c0,0,0,0,0,0l300.9-0.6
					c4,0,7.3-3.3,7.3-7.3l-0.4-199.3C369.7,94.6,366.5,91.4,362.5,91.4L362.5,91.4z"/>
			</g>
			<path class="st15" d="M100.3,290.6l-34.9,0.1c-1.5,0-2.8-1.2-2.8-2.8l0-0.3c0-1.5,1.2-2.8,2.8-2.8l34.9-0.1
				c1.5,0,2.8,1.2,2.8,2.8l0,0.3C103.1,289.4,101.8,290.6,100.3,290.6z"/>
			<path class="st15" d="M96.1,155.6l-29.7,0.1c-2.8,0-5.1-2.3-5.1-5.1l-0.1-29.7c0-2.8,2.3-5.1,5.1-5.1l29.7-0.1
				c2.8,0,5.1,2.3,5.1,5.1l0.1,29.7C101.2,153.3,98.9,155.6,96.1,155.6z"/>
			<path class="st0" d="M223.2,244.6l-103.5,0.2c-2,0-3.6-1.6-3.6-3.6l0-0.5c0-2,1.6-3.6,3.6-3.6l103.5-0.2c2,0,3.6,1.6,3.6,3.6
				l0,0.5C226.9,242.9,225.3,244.5,223.2,244.6z"/>
			<path class="st0" d="M217.3,126.7l-81.8,0.2c-2,0-3.6-1.6-3.6-3.6l0-0.5c0-2,1.6-3.6,3.6-3.6l81.8-0.2c2,0,3.6,1.6,3.6,3.6l0,0.5
				C220.9,125,219.3,126.7,217.3,126.7z"/>
			<path class="st0" d="M346.5,209.4l-109,0.2c-2,0-3.6-1.6-3.6-3.6l0-0.5c0-2,1.6-3.6,3.6-3.6l109-0.2c2,0,3.6,1.6,3.6,3.6l0,0.5
				C350.2,207.7,348.5,209.4,346.5,209.4z"/>
			<path class="st0" d="M223.3,260.5l-103.5,0.2c-2,0-3.6-1.6-3.6-3.6l0-0.5c0-2,1.6-3.6,3.6-3.6l103.5-0.2c2,0,3.6,1.6,3.6,3.6
				l0,0.5C226.9,258.9,225.3,260.5,223.3,260.5z"/>
			<path class="st0" d="M223.3,276.5l-103.5,0.2c-2,0-3.6-1.6-3.6-3.6l0-0.5c0-2,1.6-3.6,3.6-3.6l103.5-0.2c2,0,3.6,1.6,3.6,3.6
				l0,0.5C226.9,274.9,225.3,276.5,223.3,276.5z"/>
			<path class="st0" d="M344.3,286.9L240,287.2c-3.3,0-6-2.7-6-6l-0.1-44.8c0-3.3,2.7-6,6-6l104.3-0.2c3.3,0,6,2.7,6,6l0.1,44.8
				C350.3,284.2,347.6,286.9,344.3,286.9z"/>
			<path class="st0" d="M71.7,99.2c0,1.4-1.1,2.6-2.5,2.6s-2.6-1.1-2.6-2.5c0-1.4,1.1-2.6,2.5-2.6C70.6,96.7,71.7,97.8,71.7,99.2z"
				/>
			<circle class="st0" cx="79.9" cy="99.2" r="2.5"/>
			<path class="st0" d="M93.3,99.2c0,1.4-1.1,2.6-2.5,2.6s-2.6-1.1-2.6-2.5c0-1.4,1.1-2.6,2.5-2.6C92.1,96.6,93.3,97.8,93.3,99.2z"
				/>
			
				<ellipse transform="matrix(9.966175e-02 -0.995 0.995 9.966175e-02 -13.8808 230.637)" class="st0" cx="120.5" cy="123" rx="7.4" ry="7.4"/>
			<path class="st15" d="M98.2,161.8l-32.6,0.1c-0.8,0-1.4-0.6-1.4-1.4l0-0.2c0-0.8,0.6-1.4,1.4-1.4l32.6-0.1c0.8,0,1.4,0.6,1.4,1.4
				l0,0.2C99.5,161.2,98.9,161.8,98.2,161.8z"/>
			<path class="st15" d="M98.2,168l-32.6,0.1c-0.8,0-1.4-0.6-1.4-1.4l0-0.2c0-0.8,0.6-1.4,1.4-1.4l32.6-0.1c0.8,0,1.4,0.6,1.4,1.4
				l0,0.2C99.5,167.4,98.9,168,98.2,168z"/>
			<path class="st0" d="M135.6,181.2l-9.2,0.1l0.1,38.7l-8,0c-2.8,0-5.1-2.3-5.1-5.1l-0.1-71.5c0-2.8,2.3-5.1,5.1-5.2l17.1,0
				L135.6,181.2z"/>
			<g>
				<path class="st0" d="M195.4,138.1v1c2.8,0,5,2.2,5,5l0.1,69.7c0,1.3-0.5,2.6-1.5,3.5s-2.2,1.5-3.5,1.5l-76.3,0.2
					c-2.8,0-5-2.2-5-5l-0.1-69.7c0-1.3,0.5-2.6,1.5-3.5c0.9-0.9,2.2-1.5,3.5-1.5l76.3-0.2L195.4,138.1 M195.4,138.1
					C195.4,138.1,195.4,138.1,195.4,138.1l-76.3,0.2c-3.3,0-6,2.7-6,6l0.1,69.7c0,3.3,2.7,6,6,6c0,0,0,0,0,0l76.3-0.2
					c3.3,0,6-2.7,6-6l-0.1-69.7C201.5,140.8,198.8,138.1,195.4,138.1L195.4,138.1z"/>
			</g>
		</g>
		<path class="st0" d="M322.8,195.5l-101.7-23c-3.2-0.7-5.3-4-4.5-7.2l11.4-50.6c0.7-3.2,4-5.3,7.2-4.5l101.7,23
			c3.2,0.7,5.3,4,4.5,7.2L330,191C329.2,194.2,326,196.2,322.8,195.5z"/>
		<g>
			<polygon class="st7" points="125.9,333.2 111.7,333.2 108.2,315.1 129.3,315 			"/>
			<path class="st0" d="M112.1,315.1c0,1.5-0.3,4,0.7,4c1,0,0.6-2.4,1.7-2.3c0.7,0-0.3,7.9,2.4,8.1c1.9,0.1,1.5-3.8,1.7-6.3
				c0.1-1.7,2.3-1.4,2.3-0.2c0,1.2-0.1,2.1,0,3.5c0.1,2.4,3.7,1.7,3.6-1.4c-0.1-3.2,0-5.3,0-5.3L112.1,315.1z"/>
			<g>
				<path class="st16" d="M108.7,326c-0.3,0-0.6,0-0.8-0.1c-1-0.2-1.8-0.8-2.2-1.6c-1.5-3.1,2.4-8.8,2.5-9.1l0.2,1
					c0,0.1-3.4,5-2.1,7.8c0.3,0.7,0.9,1.1,1.7,1.2c0.2,0,0.5,0.1,0.7,0.1c5.1,0,13.9-9.6,14-9.7c0.4-0.4,1,0,0.8,0.3
					C123.2,316.5,114.2,326,108.7,326z"/>
			</g>
		</g>
		<g>
			<path class="st9" d="M258.3,78.1c-20.2-0.8-48.1,14.2-38.2,50.8c-0.2,3.1,1.6,5.3,3.6,4.7c2-0.6,0.2-6.5,0.2-6.5
				c3.4-27.2,9.7-31.9,20.4-31.8l25.1-0.1c6.2,0.9,17.5,5.3,19.2,27l6.2,1.2C295.3,107.6,291.5,79.3,258.3,78.1z"/>
			<path class="st17" d="M258.3,74.9c-20.2-0.8-48.1,14.2-38.2,50.8l3.8-1.8c3.4-27.2,9.7-31.9,20.4-31.8l25.1-0.1
				c6.2,0.9,17.8,6.4,19.5,28.2l5.9,0C295.3,104.5,291.5,76.1,258.3,74.9z"/>
			<path class="st18" d="M254.2,75.5l-3,6.6c0,0,0.4,3.7,4,3.6c3.6-0.1,4.1-1.8,4.1-1.8l0.5-7.6L254.2,75.5z"/>
			<path class="st18" d="M269.6,70c-3.4,6.1-4.9,7.9-9.4,8.8c-5.8,1.2-12.3-2.7-9.3-12.4c2.5-7.9,6.2-6.7,9.9-6.4
				C264.4,60.4,273.3,63.4,269.6,70z"/>
			<path class="st16" d="M256,65.2c-0.9-0.5-2.1-0.1-2.8,0.7c-0.7,0.8-1.1,1.9-0.8,2.9c-1.4,0-2.6,1.4-2.5,2.8
				c-1-2.2-0.4-4.6-0.6-6.8c-0.2-2.3,0.1-4.8,1.5-6.5c0.6-0.7,1.4-1.3,2.2-1.7c3.2-1.7,7.1-1.7,10.3-0.1c0.7,0.3,2.3,1.4,4.6,0.8
				c4.4-1.1,7,1.9,4.3,4.7c0.9,0.3,1.8,0.7,2.2,1.5c0.1,0.2,0.1,0.5,0,0.7c-0.1,0.1-0.3,0.2-0.4,0.3c-0.7,0.3-1.6,0.3-2.3,0.2
				c0.3,0.3,1.9,0.4,2.4,1.3c1.3,2.5-3.9,1.3-4.7,1c0.9,0.2,3.3,2.1,2.5,3.4c-0.2,0.3-3.4,2.1-6.8-1.8c-0.8-0.9-1.8-1.8-2.9-2.1
				c-0.9-0.2-1.9,0.1-2.8,0.4c-0.6,0.2-2.3,1.2-2.8,0.6C256.4,66.7,257.1,65.7,256,65.2z"/>
			<path class="st18" d="M289.5,120.2c-0.9,3.1-1.8,3.4-0.7,3.9c1.1,0.5,2-1.2,2-1.2l5,1c0,0-1.1-3.3-1.9-3.7
				C293.1,119.8,289.5,120.2,289.5,120.2z"/>
			<path class="st18" d="M223.9,123.9c0.7,1.6,0.8,1.6,1.7,3.6c1.7,3.7-2.3,9.7-4.9,3.2c-0.7-1.8-0.7-5-0.7-5L223.9,123.9z"/>
		</g>
		<g>
			<g>
				<path class="st16" d="M263.1,56.9c3.4,0.2,7.7-2.2,10.3,0.9c0.2,0.3,0.7-0.1,0.5-0.4c-2.6-3.7-7.3-0.9-10.9-1
					C262.8,56.3,262.8,56.8,263.1,56.9L263.1,56.9z"/>
				<path class="st16" d="M264.5,55c-2.3,0.4-4.6-0.7-7-0.3c-1.9,0.3-3.6,1.3-5.1,2.5c-0.4,0.3,0.1,1,0.5,0.7c2-1.3,4-2.5,6.5-2.3
					c1.8,0.1,3.4,0.7,5.2,0.1C265.2,55.6,265,54.9,264.5,55L264.5,55z"/>
				<path class="st16" d="M251.2,58.2c-1.7,1-2.6,2.4-2.8,4.4c-0.1,1.4-0.2,4.7,1.2,5.5c0.3,0.2,0.7-0.3,0.4-0.5
					c-0.9-0.9-1-3.4-0.9-4.6c0.1-1.8,0.9-3.2,2.3-4.3C251.7,58.4,251.4,58,251.2,58.2L251.2,58.2z"/>
				<path class="st16" d="M276.6,63.8c-0.8-1.5-3-2.8-4.7-1.8c-0.3,0.1-0.1,0.5,0.1,0.6c0.7,0,1.4-0.1,2.1,0.1
					c0.8,0.2,1.5,0.7,2,1.4C276.3,64.3,276.7,64.1,276.6,63.8L276.6,63.8z"/>
			</g>
		</g>
		<g>
			<path class="st14" d="M165.3,216.4c10.6,3.9,19.8,16.1,17.7,24.9c-2.4,10-9.3,14.3-9.3,14.3l-2.2-4c0,0,5.5-8.6,5-12.7
				c-0.8-6.5-9-10.9-9-10.9L165.3,216.4z"/>
			<path class="st16" d="M139.2,329.1c0,0-6.5,2.6-8.1,4.1l12.9,0l0-4.1L139.2,329.1z"/>
			<path class="st16" d="M167.7,328.8c0,0,1.8,2.1,2.2,4.3l-8.8,0c0.2-1.5,0.8-2.9,1.6-4.3L167.7,328.8z"/>
			<path class="st19" d="M168.2,329l-6,0c0.1-7.1-1.3-31.2-2.8-49.3c-0.8-10.6-1.7-19.1-2.1-20.8l3.2-0.7l12.1-2.7
				C174.8,265.1,170,308.7,168.2,329z"/>
			<path class="st20" d="M146.1,258.6c-4.7,7.4-5.9,60.7-7.9,70.6l5.7,0.3c0,0,6.5-33.6,20.5-71.5L146.1,258.6z"/>
			<path class="st9" d="M166.8,258.1c-2.8,7.5-5.2,14.8-7.4,21.7c-0.8-10.6-1.7-19.1-2.1-20.8l3.2-0.7L166.8,258.1z"/>
			<path class="st20" d="M146.1,258.6c-4.7,7.4-5.9,60.7-7.9,70.6l5.7,0.3c0,0,6.5-33.6,20.5-71.5L146.1,258.6z"/>
			<path class="st18" d="M149.7,199c0,0-3.6,13.9,5.5,13.9l-0.5,3.6l6.9,0.8l-1.5-5c0,0,1.4-8.7,1.5-10.3
				C161.7,199,153.4,193.8,149.7,199z"/>
			<g>
				
					<rect x="124.5" y="183.4" transform="matrix(1 -1.973264e-03 1.973264e-03 1 -0.3729 0.2487)" class="st16" width="2.7" height="11.3"/>
				<path class="st7" d="M133.5,183.4l-15.4,0c-1.1,0-2-0.9-2-1.9l0-0.4c0-1.1,0.9-2,2-2l15.4,0c1.1,0,2,0.9,2,1.9l0,0.4
					C135.5,182.5,134.6,183.4,133.5,183.4z"/>
			</g>
			<path class="st18" d="M123.8,197.8c-0.1-2.6-2.2-1.9-1-6.1c0.7-2.6,6.1,0.4,5.4,2.2c-0.7,1.8-1.4,4.6-1.4,4.6L123.8,197.8z"/>
			<path class="st7" d="M155.2,215.6c-13.6,0.9-14.5,5.5-20.6,4.8c-9-1.1-7.4-17.8-6.3-23.8l-5.4,0c0,0-9.7,38.2,21,31.1
				c-1.2,6.7,6.5,17.6-0.9,30.9c11.7,3.2,22.5,3.9,31.8-0.1c-1.6-2.2,3.3-24.4-6.4-40.4C166.5,215.1,156.2,215.6,155.2,215.6z"/>
			<path class="st7" d="M155.2,215.6c-13.6,0.9-14.5,5.5-20.6,4.8c-9-1.1-7.4-17.8-6.3-23.8l-5.4,0c0,0-9.7,38.2,21,31.1
				c-1.2,6.7,6.5,17.6-0.9,30.9c11.7,3.2,22.5,3.9,31.8-0.1c-1.6-2.2,3.3-24.4-6.4-40.4C166.5,215.1,156.2,215.6,155.2,215.6z"/>
			<path class="st17" d="M153.4,201.7c0.9,0.2,1.9,0.4,2.4,1.2c0.3,0.5,0.3,1.1,0.3,1.7c0.2-0.6,0.8-1,1.5-1
				c0.6,0.1,1.2,0.6,1.2,1.3c0,0.3-0.1,0.6-0.2,0.8c-0.3,0.7-0.6,1.3-1,1.9c1.1,0.4,2,3.7,2.6,4.7c1.9-0.5,6-2.1,6.4-8.7
				c0.2-3.1-0.8-6.8-4.1-8.8c-2.4-1.5-6.3-1.5-9-0.8c-2.2,0.6-5.7,2.8-4.1,5.3C150.1,200.6,151.9,201.3,153.4,201.7z"/>
			<path class="st17" d="M165,197.5c1.3-0.4,2.9-0.2,3.6,0.9c0.6,0.8,0.5,1.9,0.7,2.9c0.1,0.5,0.3,1,0.6,1.3
				c0.4,0.4,1.1,0.5,1.7,0.5c1.5,0.1,3-0.1,4.4,0.1c1.4,0.2,2.9,1.1,3.3,2.4c0.2,0.7,0.1,1.6,0.4,2.3c0.4,1.1,1.6,1.7,2.6,2.4
				c2.2,1.4,4,3.2,5.4,5.3c0.8,1.3,1.5,2.8,1.6,4.4c0.1,1.6,1.2,3.6,0.9,5.2c-0.3,1.7-2,3.9-5.2,5c-5.6,1.8-7.4,2.6-12.7-0.6
				c-0.6-0.4-1.9-1.7-2.5-2.2c-0.5-0.4-0.8-0.9-0.9-1.5c-0.4-1.5,0.1-3.2,0.9-4.6c0.8-1.4,1.9-2.6,2.7-4c0.5-0.8,0.9-1.8,0.8-2.7
				c0-0.4-0.1-0.7-0.4-1c-0.2-0.2-0.6-0.3-0.9-0.4c-1.2-0.2-2.5,0-3.5-0.5c-1-0.5-1.6-1.8-1.3-2.8c0.2-0.7,0.8-1.3,0.9-2.1
				c0.2-1.1-0.4-2.1-1.4-2.8c-0.9-0.6-2.1-0.9-3.2-1c-0.5-0.1-1.1-0.2-1.6-0.5c-0.5-0.4-0.8-1.1-0.8-1.7
				C161.4,199.7,163.1,198.1,165,197.5z"/>
		</g>
		<g>
			<g>
				<path class="st17" d="M164,203.1c6.7,1.5-1.8,7.8,1.8,10.9c1,0.9,2.2,0.6,3.4,0.8c4.6,0.6,2.1,3.7,1.8,6.2
					c0,0.4,0.6,0.4,0.6,0.1c0.4-1.7,1.9-3.7,1.1-5.5c-0.7-1.6-2.4-1.4-3.9-1.4c-1.8-0.1-3.8,0-3.1-3.6c0.1-0.8,0.8-1.6,1.1-2.3
					c0.4-0.9,0.6-1.7,0.4-2.6c-0.3-1.6-1.7-2.5-3.2-2.8C163.9,202.7,163.8,203,164,203.1L164,203.1z"/>
			</g>
		</g>
		<g>
			<g>
				<path class="st17" d="M150.1,194.8c5.2-2.6,10.4-2.1,14.8,1.8c0.3,0.3,0.7-0.1,0.4-0.4c-3.9-4.3-10.7-5.1-15.4-1.6
					C149.8,194.7,150,194.9,150.1,194.8L150.1,194.8z"/>
			</g>
		</g>
		<g>
			<polygon class="st18" points="324.8,211.1 322.5,215.6 328,217.9 328.6,212.7 			"/>
			<path class="st18" d="M328.1,196.4c-12.5,5.4-7.4,18.6,0.2,17.1c3.7-0.8,5.6-12.7,5.6-12.7L328.1,196.4z"/>
			<path class="st11" d="M332.3,194.5c-0.4-0.8-0.8-1.6-1.5-2.1c-0.7-0.5-1.7-0.7-2.4-0.1c-0.8,0.8-0.3,2.2,0.5,3
				c-0.7,0.1-1.6-0.4-2.1,0.1c-0.4,0.4-0.3,1.1,0,1.6c0.6,1.2,1.5,2.2,2.6,2.9c-0.6,0.4-1.4,1.1-1,1.7c0.1,0.2,0.3,0.3,0.4,0.5
				c0.2,0.4,0,0.9-0.2,1.3c-0.4,0.7-0.8,1.3-1.3,1.9c0.4-0.6,1.5-0.3,1.8,0.3s0,1.5-0.4,2c-0.3,0.3-0.6,0.6-1,0.6
				c-0.3,0.1-1.9,4.8-0.7,5.7c1.5,1.1,6.4,0.1,7.1-1.1c0.7,0.8,1.8,1.4,2.8,1.2s1.8-1.5,1.3-2.4c1.1,0.4,2.5,0,3.3-0.9
				c0.8-0.9,0.9-2.3,0.3-3.4c0.6-0.2,0.7-1,0.6-1.6c-0.3-1.3-1.3-2.3-2.6-2.7c0.6,0,1.1-0.6,1.2-1.3c0-0.6-0.3-1.2-0.7-1.7
				c-1.2-1.4-2.6-1.8-4.3-2.1C334,197.7,333,195.9,332.3,194.5z"/>
			<path class="st16" d="M320.6,328.2c0,0-7.3,3.5-8.3,4.6c0,0,14.4,0.6,15.5,0c1.1-0.7-2.3-4.6-2.3-4.6L320.6,328.2z"/>
			<path class="st16" d="M347.8,324.2c0,0-6.4,4.9-7.2,6.2c0,0,15.2-2.3,15.2-3.2c0-1-3.2-4-3.2-4L347.8,324.2z"/>
			<path class="st21" d="M327.6,260.4c-0.3,1.5-10.3,41,18.4,64.7l8.3-1.9c0,0-9.7-9.1-14.2-25.3c-4.3-15.4-0.9-16.9,1.7-25.4
				c2.9-9.4,0.7-16.2,0.7-16.2L327.6,260.4z"/>
			<path class="st17" d="M313.9,260.3c-4.5,10.8-12.3,47.8,4.7,68.6l8.5,0c0,0-6.7-7.3-7.4-24.3c-0.7-17,3.6-24.4,6.6-30.1
				c3-5.6,5.9-15.1,5.9-15.1L313.9,260.3z"/>
			<path class="st14" d="M308,193.1c-2.3,7.9-3,22.6,8.3,28.5l7.6-1.8c0,0-13.6-7.1-10.7-25.2L308,193.1z"/>
			<path class="st7" d="M287.1,189l5.9-0.7c0,0-0.7,24.6,27.7,26.7c21.7,1.6,23.4,42.3,23.4,42.3c-7,4.7-18.7,6.1-33.8,5.1
				c0,0,1-29.1-1.4-37C308.9,225.3,285.3,217.9,287.1,189z"/>
			<path class="st18" d="M280,184.5c-1,1.2,3.2,2.6,7.2,4.5l5.1-0.6c0,0,0.1-1,0-2.1c-0.1-1.1-0.6-1.7-1.2-0.8
				c-0.6,0.9-3.2,1.2-4.4,0.4C285.4,185.1,281,183.4,280,184.5z"/>
			<path class="st18" d="M308,193.1c-1.9-1.9-1.4-1.7-1.4-1.7l5.8,1.3c0,0,1.3-2.8,2.3-2.9c1.1-0.1-0.8,1.9-0.4,2.7
				c0.4,0.7-1.2,2.2-1.2,2.2L308,193.1z"/>
		</g>
		<g>
			<g>
				<path class="st11" d="M335.5,197.2c1.2,0.3,2.4,0.4,3.4,1.2c1,0.8,1.4,2.2,0.7,3.3c-0.3,0.5,0.5,0.9,0.8,0.5
					c0.9-1.2,0.6-2.8-0.2-3.9c-1-1.3-3-1.8-4.6-1.6C335.3,196.7,335.2,197.1,335.5,197.2L335.5,197.2z"/>
			</g>
		</g>
		<g>
			<g>
				<path class="st11" d="M340.7,207.9c0.8,0.5,1.4,1.2,1.1,2.2c-0.3,0.9-1.2,1.4-1.9,1.9c-0.4,0.2,0,0.8,0.3,0.6
					c1.1-0.6,2.2-1.4,2.4-2.7c0.1-1.1-0.6-2-1.6-2.5C340.7,207.1,340.3,207.7,340.7,207.9L340.7,207.9z"/>
			</g>
		</g>
		<g>
			<g>
				<path class="st11" d="M327.6,213.8c2.7,1.6,6.4,1.4,8.6-0.9c0.3-0.3-0.1-0.8-0.4-0.6c-2.4,1.8-5.1,2.3-7.9,1.1
					C327.5,213.4,327.3,213.7,327.6,213.8L327.6,213.8z"/>
			</g>
		</g>
		<g>
			<g>
				<path class="st11" d="M341,198.9c1.5,1.4,0,3.4-1,4.7c-0.2,0.3,0.1,0.6,0.4,0.4c0.9-0.8,1.7-1.7,1.9-3c0.1-0.9-0.3-1.8-1.1-2.3
					C341.1,198.7,340.9,198.8,341,198.9L341,198.9z"/>
			</g>
		</g>
	</g>
	<g>
		<polygon class="st14" points="171.9,16.3 169.5,10.5 192.2,1.9 		"/>
		<polygon class="st3" points="173,12.7 192.2,1.9 178.8,15.5 		"/>
		<polygon class="st3" points="164.4,8.2 192.2,1.9 169.5,10.5 		"/>
		<polygon class="st7" points="173,12.7 171.9,16.3 175.3,13.8 		"/>
	</g>
	<path class="st13" d="M169.2,15.5c-5.9-1-13.9,5-10.5,11.2c1.2,2.1,7.2,1.2,6.8-1.1c-0.2-1.1-1.6-1.6-2.7-1.5
		c-6.6,0.8-6.9,6.3-6.6,7.7c1.5,7.3,12.7,4.8,16.4,3.8"/>
</g>
<g id="OBJECTS">
	<g>
		<g>
			<g>
				<path class="st22" d="M857,156.9h-26.6c-0.4,0-0.8,0.4-0.8,0.8v20.1c0,5.9,4.8,10.6,10.6,10.6h7c5.9,0,10.6-4.8,10.6-10.6v-20.1
					C857.8,157.2,857.4,156.9,857,156.9z"/>
				<path class="st22" d="M853.7,185.1c6-3.4,16.4-13.4,14.6-20.4c-0.4-1.9-1.6-3.3-3.3-4.1c-4-1.9-9.6,0.4-10.3,0.6l1.9,4
					c1.4-0.5,4.7-1.5,6.3-0.7c0.3,0.2,0.6,0.4,0.8,1.3c1,4.1-7,12.8-12.5,15.7L853.7,185.1z"/>
			</g>
			<path class="st23" d="M662.9,173.3H523.3c-1.7,0-3.1-1.4-3.1-3.1V89.3c0-1.7,1.4-3.1,3.1-3.1h139.6c1.7,0,3.1,1.4,3.1,3.1v80.9
				C666.1,172,664.6,173.3,662.9,173.3z"/>
			<path class="st24" d="M609.7,184.8c-0.5-1.4-0.7-2.9-0.7-4.4v-6.9h-15.6h-0.7h-14v6.9c0,1.5-0.2,3-0.7,4.4
				c-0.7,2-2.2,4.1-4.7,4.1h19.5h0.7h21.1C611.7,188.9,610.3,186.7,609.7,184.8z"/>
			<path class="st25" d="M891.3,198.2H453c-1.2,0-2-0.8-2-2v-5.5c0-1.2,0.8-2,2-2h438.4c1.2,0,2,0.8,2,2v5.5
				C893.2,197.2,892.4,198.2,891.3,198.2z"/>
			<rect x="526.7" y="198.2" class="st26" width="10.1" height="89.2"/>
			<rect x="801.2" y="198.2" class="st26" width="10.1" height="89.2"/>
			<path class="st27" d="M662.9,159.5H523.3c-1.7,0-3.1-1.4-3.1-3.1V75.5c0-1.7,1.4-3.1,3.1-3.1h139.6c1.7,0,3.1,1.4,3.1,3.1v80.9
				C666.1,158,664.6,159.5,662.9,159.5z"/>
			<rect x="525.8" y="77.1" class="st23" width="134.8" height="76.6"/>
			<path class="st23" d="M816.1,173.3H676.5c-1.7,0-3.1-1.4-3.1-3.1V89.3c0-1.7,1.4-3.1,3.1-3.1h139.6c1.7,0,3.1,1.4,3.1,3.1v80.9
				C819.2,172,817.8,173.3,816.1,173.3z"/>
			<path class="st24" d="M762.7,184.8c-0.5-1.4-0.7-2.9-0.7-4.4v-6.9h-15.6h-0.8h-14v6.9c0,1.5-0.2,3-0.7,4.4
				c-0.7,2-2.2,4.1-4.7,4.1h19.4h0.7h21.1C764.9,188.9,763.5,186.7,762.7,184.8z"/>
			<path class="st27" d="M816.1,159.5H676.5c-1.7,0-3.1-1.4-3.1-3.1V75.5c0-1.7,1.4-3.1,3.1-3.1h139.6c1.7,0,3.1,1.4,3.1,3.1v80.9
				C819.2,158,817.8,159.5,816.1,159.5z"/>
			<rect x="679" y="77.1" class="st28" width="134.8" height="76.6"/>
			<path class="st15" d="M842.8,149.1c0.9-0.3,1.8-0.8,2.5-1.4c0.7-0.5,1.4-1.3,1.8-2.1c0.4-0.7,0.3-1.6-0.1-2.2
				c-0.4-0.6-1.2-1.2-1.9-1.6c-0.7-0.4-1.6-0.8-2.5-1.2c-0.4-0.2-0.9-0.4-1.5-0.5c-0.5-0.2-1-0.4-1.5-0.7c-2-1.2-3.9-2.7-5.2-4.6
				c-1.4-1.9-2.6-4.1-3.3-6.5c-0.6-2.4-0.9-5-0.4-7.9c0.3-1.4,0.6-2.8,1.4-4.2c0.7-1.4,1.8-2.8,3.1-4c1.3-1.2,3-2,4.7-2.5
				c1.7-0.5,3.4-0.7,4.9-0.7h1.7c3.9-0.1,7,3,7.1,6.9c0.1,3.9-3,7-6.9,7.1c-1.2,0-2.2-0.3-3.1-0.7c-0.8-0.4-1.3-0.6-1.8-0.6
				c-0.5,0-1.4,0.4-2,1.5c-0.6,1-1,2.4-1,4c-0.1,1.5,0.2,3.1,0.7,4.7c0.5,1.5,1.5,3,2.7,4.2c0.3,0.3,0.6,0.5,0.9,0.8
				c0.4,0.3,0.6,0.5,1.2,0.8c0.8,0.6,1.7,1.3,2.5,2.1c0.7,0.8,1.5,1.7,2,2.9c0.2,0.5,0.3,1.3,0.2,1.9c-0.1,0.6-0.4,1.3-0.6,1.7
				c-0.6,0.9-1.5,1.6-2.3,2.2s-1.8,1-2.7,1.4c-0.2,0.1-0.4,0-0.5-0.2C842.6,149.5,842.7,149.2,842.8,149.1L842.8,149.1L842.8,149.1z
				"/>
			<g>
				<path class="st23" d="M786.4,144.1h-78c-3.3,0-5.9-2.6-5.9-5.9V92c0-3.3,2.6-5.9,5.9-5.9h78c3.3,0,5.9,2.6,5.9,5.9v46.1
					C792.3,141.5,789.7,144.1,786.4,144.1z"/>
				<g>
					<rect x="734.2" y="109.8" class="st28" width="15.5" height="3.4"/>
					<rect x="755.9" y="124.9" class="st28" width="26.3" height="3.4"/>
					<rect x="769" y="132.5" class="st28" width="13.1" height="3.4"/>
					<rect x="734.2" y="124.9" class="st28" width="15.1" height="3.4"/>
					<rect x="734.2" y="117.4" class="st28" width="21.7" height="3.4"/>
					<rect x="734.2" y="132.5" class="st28" width="8.9" height="3.4"/>
					<polygon class="st28" points="749.3,135.7 762.9,135.7 762.9,135.7 762.9,132.5 749.3,132.5 					"/>
					<rect x="762.9" y="117.4" class="st28" width="12.9" height="3.4"/>
					<rect x="755.9" y="109.8" class="st28" width="13.1" height="3.4"/>
					<rect x="714.7" y="92.4" class="st28" width="4.9" height="3.4"/>
					<rect x="722.8" y="92.4" class="st28" width="4.9" height="3.4"/>
					<rect x="730.9" y="92.4" class="st28" width="4.9" height="3.4"/>
					<rect x="714.7" y="109.8" class="st28" width="6.1" height="3.4"/>
					<rect x="714.7" y="117.4" class="st28" width="6.1" height="3.4"/>
					<rect x="714.7" y="124.9" class="st28" width="6.1" height="3.4"/>
					<rect x="714.7" y="132.5" class="st28" width="6.1" height="3.4"/>
				</g>
			</g>
			<path class="st27" d="M602.9,139.6c0.1,0.1,0.3,0,0.4-0.1l2.5-2.5l1.9,3.7c0.1,0.1,0.2,0.2,0.3,0.2c0.1,0,0.1,0,0.2,0l1.5-0.8
				c0.1,0,0.2-0.1,0.2-0.2s0-0.2,0-0.3l-1.8-3.4h3.4c0.2,0,0.3-0.1,0.4-0.3c0.1-0.2,0-0.3-0.1-0.4l-8.5-7.8
				c-0.1-0.1-0.3-0.1-0.4-0.1c-0.1,0.1-0.2,0.2-0.2,0.4v11.3C602.8,139.3,602.8,139.5,602.9,139.6z"/>
			<g>
				<rect x="538.8" y="93.7" class="st28" width="21.2" height="10.8"/>
				<rect x="565.3" y="93.7" class="st28" width="57.8" height="10.8"/>
				<rect x="538.8" y="109.8" class="st28" width="84.3" height="3.1"/>
				<rect x="538.8" y="118.2" class="st28" width="84.3" height="3.1"/>
				<rect x="538.8" y="126.6" class="st28" width="43.7" height="3.1"/>
				<rect x="538.8" y="135" class="st28" width="43.7" height="3.1"/>
			</g>
		</g>
		<g>
			<g>
				<path class="st29" d="M682.4,184.7l-77.1,4.9c-6.7,0.4-12.4-4.6-12.8-11.2l0,0c-0.4-6.7,4.6-12.4,11.2-12.8l77.1-4.9
					c4-0.3,7.5,2.8,7.8,6.8l0.5,9.4C689.6,181,686.5,184.5,682.4,184.7z"/>
				<path class="st30" d="M633.2,139L595,165.8c-5,3.6-6.4,10.5-3,15.6l0,0c2.5,4,7.3,5.9,11.9,4.9c16.8-3.4,55.5-11.2,55-12.6
					c-0.3-1-4.6-16.4-8.1-28.6C648.8,137.5,639.8,134.3,633.2,139z"/>
				<path class="st29" d="M659.2,184.7l77.1,4.9c6.7,0.4,12.4-4.6,12.8-11.2l0,0c0.4-6.7-4.6-12.4-11.2-12.8l-77.1-4.9
					c-4-0.3-7.5,2.8-7.8,6.8l-0.5,9.4C652,181,655.1,184.5,659.2,184.7z"/>
				<path class="st30" d="M708.3,139l38.2,26.8c5,3.6,6.4,10.5,3,15.6l0,0c-2.5,4-7.3,5.9-11.9,4.9c-16.8-3.4-55.5-11.2-55-12.6
					c0.3-1,4.6-16.4,8.1-28.6C692.9,137.5,701.8,134.3,708.3,139z"/>
				<g>
					<path class="st31" d="M640.9,89.7c-4.1,0-7.5,3.5-7.5,7.8s3.4,7.8,7.5,7.8s7.5-3.5,7.5-7.8S645,89.7,640.9,89.7z"/>
					<path class="st31" d="M697.3,89.7c-4.1,0-7.5,3.5-7.5,7.8s3.4,7.8,7.5,7.8c4.1,0,7.5-3.5,7.5-7.8S701.5,89.7,697.3,89.7z"/>
					<path class="st29" d="M666.8,139.1L666.8,139.1c0.7,0.1,1.5,0.2,2.3,0.2l0,0c2.3,0,4.7-0.3,6.9-0.8c0,0,0,0,0-0.1
						c12.2-3.1,21.3-14.7,21.3-28.4V75.6c0-16.2-12.7-13.6-28.1-13.6l0,0c-15.6,0-28.1-2.5-28.1,13.6v34.3
						C640.9,125.2,652.4,137.8,666.8,139.1z"/>
					<path class="st32" d="M691.7,98.5v9.3h-10.1c0,0-2.4-6.7-12.5-6.7c-10.1,0-12.5,6.7-12.5,6.7h-10v-9.3c0-3.7-3.4-4.9-5.8-5.2
						v16.6c0,15.4,11.3,28,25.9,29.1l-0.1,0.1c0.7,0.1,1.6,0.1,2.3,0.1s1.6,0,2.3-0.1l-0.1-0.1c14.5-1.3,25.9-13.8,25.9-29.1V93.4
						C695,93.7,691.7,94.8,691.7,98.5z"/>
					<path class="st32" d="M689.9,50.6c-7.7-1.2-19.7-1.3-28.5,6c-0.2,0.2-0.4,0.4-0.5,0.5h-7c-7.1,0-12.9,5-12.9,11.2v6.4v14.7
						v17.8c1.3,0,2.3-1.2,2.3-2.4V79.7c0,0,0.4-8,7.7-8h16.4h0.2h18.7c7.7,0,8.6,6.9,8.7,7.9v25.2c0,1.4,1,2.4,2.3,2.4V89.4V74.8V69
						l0.1-9.7C697.4,55,694.2,51.2,689.9,50.6z"/>
				</g>
				<rect x="642.4" y="67.7" class="st32" width="54.5" height="47.2"/>
			</g>
			<path class="st33" d="M684.4,286.4h-30.8c-21.5,0-38.9-18.9-38.9-42l9.7-84.2c3.4-22.4,24.1-36.9,45.2-36.9l0,0
				c21.3,0,42.2,14.7,45.3,37.5l8.5,83.4C723.3,267.7,706,286.4,684.4,286.4z"/>
			<path class="st34" d="M676.5,311H662c-1.4,0-2.5-1.2-2.5-2.5V195.9c0-1.4,1.2-2.5,2.5-2.5h14.5c1.4,0,2.5,1.2,2.5,2.5v112.7
				C679,309.8,677.8,311,676.5,311z"/>
			<path class="st27" d="M681.3,203.7h-25.1c-2.7,0-4.9-2.2-4.9-4.9v-11.1c0-2.7,2.2-4.9,4.9-4.9h25.1c2.7,0,4.9,2.2,4.9,4.9v11.1
				C686.2,201.5,684,203.7,681.3,203.7z"/>
		</g>
		<rect x="447.9" y="286.4" class="st35" width="449.6" height="67.4"/>
	</g>
</g>
<g id="DESIGNED_BY_FREEPIK">
</g>
<g>
	<g>
		<g>
			<path class="st36" d="M1216.6,308.7H922.3c-3.8,0-6.9-3.1-6.9-6.9V96.6c0-3.8,3.1-6.9,6.9-6.9h294.4c3.8,0,6.9,3.1,6.9,6.9v205.2
				C1223.6,305.6,1220.5,308.7,1216.6,308.7z"/>
			<path class="st37" d="M1214,305.8H924.9c-3,0-5.5-2.5-5.5-5.5V98c0-3,2.5-5.5,5.5-5.5H1214c3,0,5.5,2.5,5.5,5.5v202.3
				C1219.5,303.3,1217.1,305.8,1214,305.8z"/>
			<path class="st38" d="M1203.2,287H935.7c-1.9,0-3.4-1.5-3.4-3.4V106c0-1.9,1.5-3.4,3.4-3.4h267.4c1.9,0,3.4,1.5,3.4,3.4v177.6
				C1206.5,285.5,1205,287,1203.2,287z"/>
			<path class="st36" d="M907.8,297.3c-0.9,1.6-1.4,3.5-1.4,5.5c0,6.4,5.2,11.6,11.6,11.6h303c6.4,0,11.6-5.2,11.6-11.6
				c0-2-0.6-3.8-1.4-5.5H907.8z"/>
		</g>
		<path class="st39" d="M907.8,308.3c2,3.6,5.7,6.1,10.1,6.1h303c4.4,0,8.2-2.5,10.1-6.1H907.8z"/>
	</g>
	<path class="st40" d="M1209.8,89.7h-205.7v137.5c0,3,2.5,5.5,5.5,5.5h214V103.5C1223.6,95.8,1217.4,89.7,1209.8,89.7z"/>
	<path class="st41" d="M1249.7,226.4h-235.3c-1.5,0-2.8-1.2-2.8-2.8V76.5c0-1.5,1.2-2.8,2.8-2.8h235.3c1.5,0,2.8,1.2,2.8,2.8v147.2
		C1252.4,225.2,1251.2,226.4,1249.7,226.4z"/>
	<path class="st42" d="M1259.3,216.1h-235.3c-1.5,0-2.8-1.2-2.8-2.8V66.2c0-1.5,1.2-2.8,2.8-2.8h235.3c1.5,0,2.8,1.2,2.8,2.8v147.2
		C1262.1,214.9,1260.8,216.1,1259.3,216.1z"/>
	<path class="st40" d="M978.5,167.6h-27.8c-1,0-1.7-0.8-1.7-1.7v-29.2c0-1,0.8-1.7,1.7-1.7h27.8c1,0,1.7,0.8,1.7,1.7v29.2
		C980.3,166.8,979.5,167.6,978.5,167.6z"/>
	<path class="st37" d="M976.7,215.1h-27.8c-1,0-1.7-0.8-1.7-1.7v-29.2c0-1,0.8-1.7,1.7-1.7h27.8c1,0,1.7,0.8,1.7,1.7v29.2
		C978.5,214.3,977.7,215.1,976.7,215.1z"/>
	<path class="st37" d="M976.7,261.5h-27.8c-1,0-1.7-0.8-1.7-1.7v-29.2c0-1,0.8-1.7,1.7-1.7h27.8c1,0,1.7,0.8,1.7,1.7v29.2
		C978.5,260.8,977.7,261.5,976.7,261.5z"/>
	<g>
		<path class="st43" d="M969.7,241.6c0-4.1-3.3-7.4-7.4-7.4c-4.1,0-7.4,3.3-7.4,7.4c0,0-1,7.9,7.4,14.1
			C970.7,249.5,969.7,241.6,969.7,241.6z"/>
		<path class="st42" d="M962.7,247c-3.3,0.3-6.1-2.5-5.8-5.8c0.2-2.6,2.3-4.7,4.9-4.9c3.3-0.3,6.1,2.5,5.8,5.8
			C967.4,244.6,965.3,246.8,962.7,247z"/>
	</g>
	<g>
		<g>
			<g>
				<path class="st43" d="M972.4,198.3c0,5.7-4.6,10.3-10.3,10.3c-5.7,0-10.3-4.6-10.3-10.3c0-5.7,4.6-10.3,10.3-10.3
					C967.8,188,972.4,192.6,972.4,198.3z"/>
				<path class="st42" d="M970.4,198.3c0,4.6-3.7,8.3-8.3,8.3c-4.6,0-8.3-3.7-8.3-8.3c0-4.6,3.7-8.3,8.3-8.3
					C966.7,190,970.4,193.7,970.4,198.3z"/>
				<path class="st44" d="M962.1,190c3.8,0,6.9,2.5,8,5.9c0,0.1,0.2,0.2,0.3,0.2l0,0c0.2,0,0.4-0.2,0.3-0.4
					c-1.1-3.7-4.5-6.4-8.6-6.4c-4.1,0-7.5,2.7-8.6,6.4c-0.1,0.2,0.1,0.4,0.3,0.4l0,0c0.1,0,0.3-0.1,0.3-0.2
					C955.1,192.5,958.3,190,962.1,190z"/>
				<path class="st45" d="M971.3,198.6c-0.5,0-0.9,0.4-1,0.9c-0.5,4.1-4,7.2-8.2,7.2c-4.2,0-7.7-3.1-8.2-7.2c-0.1-0.5-0.5-0.9-1-0.9
					l0,0c-0.6,0-1.1,0.5-1,1.1c0.7,5,5,8.9,10.2,8.9c5.2,0,9.5-3.9,10.2-8.9C972.3,199.1,971.9,198.6,971.3,198.6L971.3,198.6z"/>
				<path class="st42" d="M970.4,198.3c0,4.6-3.7,8.3-8.3,8.3c-4.6,0-8.3-3.7-8.3-8.3c0-4.6,3.7-8.3,8.3-8.3
					C966.7,190,970.4,193.7,970.4,198.3z"/>
				<path class="st43" d="M970.2,201c-0.1,0-0.3,0.1-0.3,0.2c-1.2,3.2-4.2,5.4-7.8,5.4c-3.6,0-6.6-2.2-7.8-5.4
					c0-0.1-0.2-0.2-0.3-0.2l0,0c-0.2,0-0.4,0.2-0.3,0.4c1.3,3.4,4.6,5.8,8.4,5.8c3.9,0,7.1-2.4,8.4-5.8
					C970.6,201.2,970.4,201,970.2,201L970.2,201z"/>
			</g>
			<path class="st43" d="M962,199L962,199c-0.2,0-0.4-0.2-0.4-0.4v-5.8c0-0.2,0.2-0.4,0.4-0.4l0,0c0.2,0,0.4,0.2,0.4,0.4v5.8
				C962.4,198.9,962.3,199,962,199z"/>
			<path class="st43" d="M961.8,198.4L961.8,198.4c0.1-0.2,0.4-0.2,0.6,0l3.6,3c0.2,0.1,0.2,0.4,0,0.6l0,0c-0.1,0.2-0.4,0.2-0.6,0
				l-3.6-3C961.6,198.8,961.6,198.6,961.8,198.4z"/>
		</g>
		<g>
			<rect x="961.8" y="190.6" class="st46" width="0.3" height="0.8"/>
			<rect x="961.8" y="205.1" class="st46" width="0.3" height="0.8"/>
		</g>
		<g>
			
				<rect x="954.6" y="197.9" transform="matrix(6.123234e-17 -1 1 6.123234e-17 756.4604 1152.9639)" class="st46" width="0.3" height="0.8"/>
			
				<rect x="969.1" y="197.9" transform="matrix(6.123234e-17 -1 1 6.123234e-17 771.0045 1167.5078)" class="st46" width="0.3" height="0.8"/>
		</g>
		<g>
			
				<rect x="956.7" y="192.7" transform="matrix(0.7074 -0.7068 0.7068 0.7074 143.4758 732.8071)" class="st46" width="0.3" height="0.8"/>
			
				<rect x="967" y="203" transform="matrix(0.7071 -0.7071 0.7071 0.7071 139.4435 743.4342)" class="st46" width="0.3" height="0.8"/>
		</g>
		<g>
			
				<rect x="956.7" y="203" transform="matrix(-0.7071 -0.7071 0.7071 -0.7071 1489.5699 1023.8309)" class="st46" width="0.3" height="0.8"/>
			
				<rect x="967" y="192.7" transform="matrix(-0.7074 -0.7068 0.7068 -0.7074 1514.825 1013.2624)" class="st46" width="0.3" height="0.8"/>
		</g>
	</g>
	<g>
		<path class="st37" d="M976.7,166.6h-27.8c-1,0-1.7-0.8-1.7-1.7v-29.2c0-1,0.8-1.7,1.7-1.7h27.8c1,0,1.7,0.8,1.7,1.7v29.2
			C978.5,165.8,977.7,166.6,976.7,166.6z"/>
		<g>
			<polyline class="st47" points="945.7,163.2 948.2,161.4 949.4,157.2 948.1,156.9 947.3,158.5 948.1,151.1 946.8,151.4 
				945.5,158.5 944,161.8 945.4,162.7 			"/>
			<polygon class="st47" points="960.9,170.9 961.3,167.8 965.1,164 965.9,165.2 964.5,166.8 971.8,165 971.8,166.6 965.1,169.2 
				963.7,171.6 			"/>
			<g>
				<g>
					<polygon class="st48" points="913.8,247.4 927.9,316.2 938.5,315.1 931.3,312.4 934,311.7 930.2,247.4 					"/>
					<path class="st48" d="M936.3,246.3c0,0,17.9,16.7,15.2,36.9c-3,16-9.5,22.1-9.5,22.1l-1.9-0.4l2.9,7.8l-8.6-9.1
						c0,0,10.6-14.5,4-29.7c-6.6-15.1-20.8-20.5-20.8-20.5s12.3-11.1,13.1-10.8C931.6,242.8,936.3,246.3,936.3,246.3z"/>
					<g>
						<path class="st49" d="M943.9,160.6c0,0-29.4,35.6-32.8,42.8c0,0-1.4,2.6-1.4,10s2.6,34.8,2.6,34.8l29.9,1.7
							c0,0-9.7-33.4-10-34.2c-0.3-0.9-5.1-6-9.7-7.1l25.1-45.3L943.9,160.6z"/>
						<g>
							<path class="st47" d="M925.3,205.1c0,0,1.2,3.7,1.9,5.9c0,0-6.1-0.1-8.3-3l2.3-5.5L925.3,205.1z"/>
							<g>
								<path class="st47" d="M929.9,193.5c0,0,1.8,10.5,0,12.9c-1.8,2.4-8-1.7-10.6-5.5c-2.6-3.8-3.1-12.4,1.3-13.2
									C925,187.1,928.9,189.7,929.9,193.5z"/>
							</g>
						</g>
						<path class="st49" d="M927.1,213c0,0,23.6-14.8,25.5-17.9c1.9-3,7.2-25.6,7.2-25.6l4.6,1.1c0,0-2.7,25.3-3.4,27.9
							c-0.8,2.7-23.9,27.3-29.2,27.3C926.4,225.9,924.5,219.1,927.1,213z"/>
					</g>
				</g>
				<path class="st48" d="M917.2,188.3c0,0,3.1-4.3,8.6-3.3c5.5,1,6.9-0.2,6.9-0.2s-1.2,6-5,7.4c-3.8,1.4-4.8,1-4.8,1
					s2.1,2.1,2.6,3.6c0.5,1.5-1.7-1.9-2.6-0.7c-0.9,1.2,0,3.8,1.7,3.6c1.7-0.2,0.7,1.2,0,2.6c-0.7,1.4-1.7,3.1-2.8,2.6
					c-1-0.5-4.6-2.6-6-6.9C914.5,193.8,914.1,189.6,917.2,188.3z"/>
			</g>
		</g>
	</g>
	<path class="st36" d="M1107,201.2h-69.6c-0.7,0-1.3-0.6-1.3-1.3V80.7c0-0.7,0.6-1.3,1.3-1.3h69.6c0.7,0,1.3,0.6,1.3,1.3v119.2
		C1108.3,200.6,1107.7,201.2,1107,201.2z"/>
	<path class="st37" d="M1094.2,99.5h-44.7c-0.6,0-1-0.5-1-1v-8.2c0-0.6,0.5-1,1-1h44.7c0.6,0,1,0.5,1,1v8.2
		C1095.2,99,1094.8,99.5,1094.2,99.5z"/>
	<path class="st37" d="M1064.1,156.9h-9.3c-2.2,0-4-1.8-4-4l0,0c0-2.2,1.8-4,4-4h9.3c2.2,0,4,1.8,4,4l0,0
		C1068.1,155.1,1066.3,156.9,1064.1,156.9z"/>
	<path class="st43" d="M1090.9,156.9h-9.3c-2.2,0-4-1.8-4-4l0,0c0-2.2,1.8-4,4-4h9.3c2.2,0,4,1.8,4,4l0,0
		C1094.9,155.1,1093.1,156.9,1090.9,156.9z"/>
	<rect x="1047.4" y="109.8" class="st42" width="50.2" height="7.9"/>
	<rect x="1047.4" y="123.2" class="st42" width="50.2" height="7.9"/>
	<rect x="1058.3" y="136.1" class="st50" width="28.9" height="1.8"/>
	<path class="st43" d="M1257.2,178.6h-90.3c-5.6,0-10.1-4.5-10.1-10.1l0,0c0-5.6,4.5-10.1,10.1-10.1h90.3c5.6,0,10.1,4.5,10.1,10.1
		l0,0C1267.2,174.1,1262.7,178.6,1257.2,178.6z"/>
	<g>
		<path class="st36" d="M1179,93.3h-56.2c-4.6,0-8.3-3.7-8.3-8.3l0,0c0-4.6,3.7-8.3,8.3-8.3h56.2c4.6,0,8.3,3.7,8.3,8.3l0,0
			C1187.3,89.6,1183.6,93.3,1179,93.3z"/>
		<path class="st51" d="M1136.2,85.1c0,1.4-1.2,2.6-2.6,2.6s-2.6-1.2-2.6-2.6s1.2-2.6,2.6-2.6S1136.2,83.6,1136.2,85.1z"/>
		<path class="st52" d="M1153.9,85.1c0,1.4-1.2,2.6-2.6,2.6s-2.6-1.2-2.6-2.6s1.2-2.6,2.6-2.6S1153.9,83.6,1153.9,85.1z"/>
		<path class="st53" d="M1170.2,85.1c0,1.4-1.2,2.6-2.6,2.6s-2.6-1.2-2.6-2.6s1.2-2.6,2.6-2.6S1170.2,83.6,1170.2,85.1z"/>
	</g>
	<g>
		<circle class="st15" cx="962.5" cy="152.3" r="6.3"/>
		<g>
			<path class="st43" d="M969,144.7h-1.1l-1.6-2.2c-0.1-0.2-0.3-0.3-0.5-0.3h-6.3c-0.2,0-0.4,0.1-0.5,0.3l-1.6,2.2h-1.1
				c-1.7,0-3.1,1.4-3.1,3.1v9.1c0,1.7,1.4,3.1,3.1,3.1H969c1.7,0,3.1-1.4,3.1-3.1v-9.1C972.1,146.1,970.7,144.7,969,144.7z
				 M962.6,156.9c-2.5,0-4.6-2.1-4.6-4.6c0-2.5,2.1-4.6,4.6-4.6c2.5,0,4.6,2.1,4.6,4.6C967.2,154.8,965.1,156.9,962.6,156.9z"/>
			<circle class="st37" cx="962.6" cy="152.3" r="3.1"/>
		</g>
	</g>
	<g>
		<path class="st36" d="M1189.2,146.6h-51.3c-1.1,0-2-0.9-2-2v-32.3c0-1.1,0.9-2,2-2h51.3c1.1,0,2,0.9,2,2v32.3
			C1191.2,145.7,1190.3,146.6,1189.2,146.6z"/>
		<path class="st54" d="M1163.6,128.1h-0.1c-0.2,0-0.5-0.1-0.7-0.2l-21.3-11.9c-0.7-0.4-1-1.3-0.6-2c0.4-0.7,1.3-1,2-0.6l20.7,11.5
			l20.7-11.5c0.7-0.4,1.6-0.1,2,0.6c0.4,0.7,0.1,1.6-0.6,2l-21.3,11.9C1164.1,128.1,1163.9,128.1,1163.6,128.1z"/>
	</g>
	<path class="st48" d="M1270.6,142.9h-65c-1,0-1.8-0.8-1.8-1.8V55.9c0-1,0.8-1.8,1.8-1.8h65c1,0,1.8,0.8,1.8,1.8V141
		C1272.4,142,1271.6,142.9,1270.6,142.9z"/>
	<g>
		<path class="st55" d="M1219.1,66h-4.6c-0.2,0-0.4-0.4-0.4-0.9l0,0c0-0.5,0.2-0.9,0.4-0.9h4.6c0.2,0,0.4,0.4,0.4,0.9l0,0
			C1219.5,65.6,1219.3,66,1219.1,66z"/>
		<path class="st55" d="M1247.4,66h-26.2c-0.2,0-0.4-0.4-0.4-0.9l0,0c0-0.5,0.2-0.9,0.4-0.9h26.2c0.2,0,0.4,0.4,0.4,0.9l0,0
			C1247.8,65.6,1247.7,66,1247.4,66z"/>
		<path class="st56" d="M1229.6,69.7h-8.3c-0.2,0-0.4-0.4-0.4-0.9l0,0c0-0.5,0.2-0.9,0.4-0.9h8.3c0.2,0,0.4,0.4,0.4,0.9l0,0
			C1230,69.3,1229.8,69.7,1229.6,69.7z"/>
		<path class="st36" d="M1243.3,69.7h-12c-0.2,0-0.4-0.4-0.4-0.9l0,0c0-0.5,0.2-0.9,0.4-0.9h12c0.2,0,0.4,0.4,0.4,0.9l0,0
			C1243.8,69.3,1243.6,69.7,1243.3,69.7z"/>
		<path class="st36" d="M1247.4,87.4h-26.2c-0.2,0-0.4-0.4-0.4-0.9l0,0c0-0.5,0.2-0.9,0.4-0.9h26.2c0.2,0,0.4,0.4,0.4,0.9l0,0
			C1247.8,87.1,1247.7,87.4,1247.4,87.4z"/>
		<path class="st55" d="M1219.1,91.1h-4.6c-0.2,0-0.4-0.4-0.4-0.9l0,0c0-0.5,0.2-0.9,0.4-0.9h4.6c0.2,0,0.4,0.4,0.4,0.9l0,0
			C1219.5,90.7,1219.3,91.1,1219.1,91.1z"/>
		<path class="st36" d="M1229.6,91.1h-8.3c-0.2,0-0.4-0.4-0.4-0.9l0,0c0-0.5,0.2-0.9,0.4-0.9h8.3c0.2,0,0.4,0.4,0.4,0.9l0,0
			C1230,90.7,1229.8,91.1,1229.6,91.1z"/>
		<path class="st56" d="M1243.3,91.1h-12c-0.2,0-0.4-0.4-0.4-0.9l0,0c0-0.5,0.2-0.9,0.4-0.9h12c0.2,0,0.4,0.4,0.4,0.9l0,0
			C1243.8,90.7,1243.6,91.1,1243.3,91.1z"/>
		<path class="st56" d="M1253.9,73.3h-32.6c-0.2,0-0.4-0.4-0.4-0.9l0,0c0-0.5,0.2-0.9,0.4-0.9h32.6c0.2,0,0.4,0.4,0.4,0.9l0,0
			C1254.3,72.9,1254.1,73.3,1253.9,73.3z"/>
		<path class="st55" d="M1247.3,77h-8.1c-0.1,0-0.2-0.1-0.2-0.2v-1.3c0-0.1,0.1-0.2,0.2-0.2h8.1c0.1,0,0.2,0.1,0.2,0.2v1.3
			C1247.5,76.9,1247.4,77,1247.3,77z"/>
		<path class="st36" d="M1232.1,77h-10.8c-0.2,0-0.4-0.4-0.4-0.9l0,0c0-0.5,0.2-0.9,0.4-0.9h10.8c0.2,0,0.4,0.4,0.4,0.9l0,0
			C1232.5,76.6,1232.3,77,1232.1,77z"/>
		<path class="st55" d="M1237.9,77h-4.3c-0.2,0-0.4-0.4-0.4-0.9l0,0c0-0.5,0.2-0.9,0.4-0.9h4.3c0.2,0,0.4,0.4,0.4,0.9l0,0
			C1238.3,76.6,1238.1,77,1237.9,77z"/>
		<path class="st36" d="M1219.1,80.5h-4.6c-0.2,0-0.4-0.4-0.4-0.9l0,0c0-0.5,0.2-0.9,0.4-0.9h4.6c0.2,0,0.4,0.4,0.4,0.9l0,0
			C1219.5,80.1,1219.3,80.5,1219.1,80.5z"/>
		<path class="st36" d="M1253.9,80.5h-32.6c-0.2,0-0.4-0.4-0.4-0.9l0,0c0-0.5,0.2-0.9,0.4-0.9h32.6c0.2,0,0.4,0.4,0.4,0.9l0,0
			C1254.3,80.1,1254.1,80.5,1253.9,80.5z"/>
		<path class="st36" d="M1219.1,94.5h-4.6c-0.2,0-0.4-0.4-0.4-0.9l0,0c0-0.5,0.2-0.9,0.4-0.9h4.6c0.2,0,0.4,0.4,0.4,0.9l0,0
			C1219.5,94.1,1219.3,94.5,1219.1,94.5z"/>
		<path class="st36" d="M1250.5,94.5h-11.3c-0.2,0-0.3-0.1-0.3-0.3V93c0-0.2,0.1-0.3,0.3-0.3h11.3c0.2,0,0.3,0.1,0.3,0.3v1.2
			C1250.8,94.4,1250.7,94.5,1250.5,94.5z"/>
		<path class="st36" d="M1232.1,94.5h-10.8c-0.2,0-0.4-0.4-0.4-0.9l0,0c0-0.5,0.2-0.9,0.4-0.9h10.8c0.2,0,0.4,0.4,0.4,0.9l0,0
			C1232.5,94.1,1232.3,94.5,1232.1,94.5z"/>
		<path class="st36" d="M1237.9,94.5h-4.3c-0.2,0-0.4-0.4-0.4-0.9l0,0c0-0.5,0.2-0.9,0.4-0.9h4.3c0.2,0,0.4,0.4,0.4,0.9l0,0
			C1238.3,94.1,1238.1,94.5,1237.9,94.5z"/>
		<path class="st57" d="M1219.1,98h-4.6c-0.2,0-0.4-0.4-0.4-0.9l0,0c0-0.5,0.2-0.9,0.4-0.9h4.6c0.2,0,0.4,0.4,0.4,0.9l0,0
			C1219.5,97.6,1219.3,98,1219.1,98z"/>
		<path class="st55" d="M1226.9,98h-5.7c-0.2,0-0.4-0.4-0.4-0.9l0,0c0-0.5,0.2-0.9,0.4-0.9h5.7c0.2,0,0.4,0.4,0.4,0.9l0,0
			C1227.3,97.6,1227.1,98,1226.9,98z"/>
		<path class="st55" d="M1214.5,84.2c-0.2,0-0.4-0.4-0.4-0.9l0,0c0-0.5,0.2-0.9,0.4-0.9h4.6c0.2,0,0.4,0.4,0.4,0.9l0,0
			c0,0.5-0.2,0.9-0.4,0.9"/>
		<path class="st36" d="M1252,84.2h-12.8c-0.2,0-0.3-0.1-0.3-0.3v-1.2c0-0.2,0.1-0.3,0.3-0.3h12.8c0.2,0,0.3,0.1,0.3,0.3v1.2
			C1252.3,84,1252.2,84.2,1252,84.2z"/>
		<path class="st57" d="M1232.1,84.2h-10.8c-0.2,0-0.4-0.4-0.4-0.9l0,0c0-0.5,0.2-0.9,0.4-0.9h10.8c0.2,0,0.4,0.4,0.4,0.9l0,0
			C1232.5,83.8,1232.3,84.2,1232.1,84.2z"/>
		<path class="st57" d="M1237.9,84.2h-4.3c-0.2,0-0.4-0.4-0.4-0.9l0,0c0-0.5,0.2-0.9,0.4-0.9h4.3c0.2,0,0.4,0.4,0.4,0.9l0,0
			C1238.3,83.8,1238.1,84.2,1237.9,84.2z"/>
		<path class="st36" d="M1247.4,101.8h-26.2c-0.2,0-0.4-0.4-0.4-0.9l0,0c0-0.5,0.2-0.9,0.4-0.9h26.2c0.2,0,0.4,0.4,0.4,0.9l0,0
			C1247.8,101.4,1247.7,101.8,1247.4,101.8z"/>
		<path class="st36" d="M1229.6,105.4h-8.3c-0.2,0-0.4-0.4-0.4-0.9l0,0c0-0.5,0.2-0.9,0.4-0.9h8.3c0.2,0,0.4,0.4,0.4,0.9l0,0
			C1230,105,1229.8,105.4,1229.6,105.4z"/>
		<path class="st36" d="M1243.3,105.4h-12c-0.2,0-0.4-0.4-0.4-0.9l0,0c0-0.5,0.2-0.9,0.4-0.9h12c0.2,0,0.4,0.4,0.4,0.9l0,0
			C1243.8,105,1243.6,105.4,1243.3,105.4z"/>
		<path class="st36" d="M1247.4,123.2h-26.2c-0.2,0-0.4-0.4-0.4-0.9l0,0c0-0.5,0.2-0.9,0.4-0.9h26.2c0.2,0,0.4,0.4,0.4,0.9l0,0
			C1247.8,122.8,1247.7,123.2,1247.4,123.2z"/>
		<path class="st56" d="M1219.1,126.9h-4.6c-0.2,0-0.4-0.4-0.4-0.9l0,0c0-0.5,0.2-0.9,0.4-0.9h4.6c0.2,0,0.4,0.4,0.4,0.9l0,0
			C1219.5,126.5,1219.3,126.9,1219.1,126.9z"/>
		<path class="st55" d="M1229.6,126.9h-8.3c-0.2,0-0.4-0.4-0.4-0.9l0,0c0-0.5,0.2-0.9,0.4-0.9h8.3c0.2,0,0.4,0.4,0.4,0.9l0,0
			C1230,126.5,1229.8,126.9,1229.6,126.9z"/>
		<path class="st36" d="M1243.3,126.9h-12c-0.2,0-0.4-0.4-0.4-0.9l0,0c0-0.5,0.2-0.9,0.4-0.9h12c0.2,0,0.4,0.4,0.4,0.9l0,0
			C1243.8,126.5,1243.6,126.9,1243.3,126.9z"/>
		<path class="st56" d="M1219.1,109.1h-4.6c-0.2,0-0.4-0.4-0.4-0.9l0,0c0-0.5,0.2-0.9,0.4-0.9h4.6c0.2,0,0.4,0.4,0.4,0.9l0,0
			C1219.5,108.7,1219.3,109.1,1219.1,109.1z"/>
		<path class="st56" d="M1244.9,109.1h-23.8c-0.1,0-0.3-0.1-0.3-0.3v-1.2c0-0.1,0.1-0.3,0.3-0.3h23.8c0.1,0,0.3,0.1,0.3,0.3v1.2
			C1245.1,109,1245,109.1,1244.9,109.1z"/>
		<path class="st36" d="M1219.1,112.7h-4.6c-0.2,0-0.4-0.4-0.4-0.9l0,0c0-0.5,0.2-0.9,0.4-0.9h4.6c0.2,0,0.4,0.4,0.4,0.9l0,0
			C1219.5,112.3,1219.3,112.7,1219.1,112.7z"/>
		<path class="st36" d="M1232.1,112.7h-10.8c-0.2,0-0.4-0.4-0.4-0.9l0,0c0-0.5,0.2-0.9,0.4-0.9h10.8c0.2,0,0.4,0.4,0.4,0.9l0,0
			C1232.5,112.3,1232.3,112.7,1232.1,112.7z"/>
		<path class="st36" d="M1237.9,112.7h-4.3c-0.2,0-0.4-0.4-0.4-0.9l0,0c0-0.5,0.2-0.9,0.4-0.9h4.3c0.2,0,0.4,0.4,0.4,0.9l0,0
			C1238.3,112.3,1238.1,112.7,1237.9,112.7z"/>
		<path class="st36" d="M1219.1,116.3h-4.6c-0.2,0-0.4-0.4-0.4-0.9l0,0c0-0.5,0.2-0.9,0.4-0.9h4.6c0.2,0,0.4,0.4,0.4,0.9l0,0
			C1219.5,115.9,1219.3,116.3,1219.1,116.3z"/>
		<path class="st36" d="M1251.1,116.3h-30c-0.2,0-0.3-0.1-0.3-0.3v-1.2c0-0.2,0.1-0.3,0.3-0.3h30c0.2,0,0.3,0.1,0.3,0.3v1.2
			C1251.4,116.1,1251.3,116.3,1251.1,116.3z"/>
		<path class="st36" d="M1219.1,130.3h-4.6c-0.2,0-0.4-0.4-0.4-0.9l0,0c0-0.5,0.2-0.9,0.4-0.9h4.6c0.2,0,0.4,0.4,0.4,0.9l0,0
			C1219.5,129.9,1219.3,130.3,1219.1,130.3z"/>
		<path class="st36" d="M1253.9,130.3h-14.4c-0.2,0-0.4-0.4-0.4-0.9l0,0c0-0.5,0.2-0.9,0.4-0.9h14.4c0.2,0,0.4,0.4,0.4,0.9l0,0
			C1254.3,129.9,1254.1,130.3,1253.9,130.3z"/>
		<path class="st36" d="M1232.1,130.3h-10.8c-0.2,0-0.4-0.4-0.4-0.9l0,0c0-0.5,0.2-0.9,0.4-0.9h10.8c0.2,0,0.4,0.4,0.4,0.9l0,0
			C1232.5,129.9,1232.3,130.3,1232.1,130.3z"/>
		<path class="st36" d="M1237.9,130.3h-4.3c-0.2,0-0.4-0.4-0.4-0.9l0,0c0-0.5,0.2-0.9,0.4-0.9h4.3c0.2,0,0.4,0.4,0.4,0.9l0,0
			C1238.3,129.9,1238.1,130.3,1237.9,130.3z"/>
		<path class="st57" d="M1240.8,133.8h-19.7c-0.1,0-0.2-0.1-0.2-0.2v-1.3c0-0.1,0.1-0.2,0.2-0.2h19.7c0.1,0,0.2,0.1,0.2,0.2v1.3
			C1241,133.7,1240.9,133.8,1240.8,133.8z"/>
		<path class="st56" d="M1252.8,119.9h-13.5c-0.2,0-0.3-0.1-0.3-0.3v-1.2c0-0.2,0.1-0.3,0.3-0.3h13.5c0.2,0,0.3,0.1,0.3,0.3v1.2
			C1253.1,119.8,1253,119.9,1252.8,119.9z"/>
		<path class="st57" d="M1232.1,119.9h-10.8c-0.2,0-0.4-0.4-0.4-0.9l0,0c0-0.5,0.2-0.9,0.4-0.9h10.8c0.2,0,0.4,0.4,0.4,0.9l0,0
			C1232.5,119.5,1232.3,119.9,1232.1,119.9z"/>
		<path class="st57" d="M1237.9,119.9h-4.3c-0.2,0-0.4-0.4-0.4-0.9l0,0c0-0.5,0.2-0.9,0.4-0.9h4.3c0.2,0,0.4,0.4,0.4,0.9l0,0
			C1238.3,119.5,1238.1,119.9,1237.9,119.9z"/>
	</g>
	<g>
		<circle class="st58" cx="1266.9" cy="55.9" r="14.4"/>
		<g>
			<g>
				<path class="st42" d="M1265.8,54.6l-5.7,2.1l5.7,2.1v2.2l-8.2-3.1v-2.2l8.2-3.1V54.6z"/>
			</g>
			<g>
				<path class="st42" d="M1267.7,52.4l8.2,3.1v2.2l-8.2,3.1v-2.2l5.7-2.1l-5.7-2.1V52.4z"/>
			</g>
		</g>
	</g>
	<g>
		
			<ellipse transform="matrix(0.8276 -0.5613 0.5613 0.8276 33.7726 709.0521)" class="st51" cx="1171.3" cy="299.5" rx="15.7" ry="15.7"/>
		<g>
			<path class="st15" d="M1179.6,298.6c0,1-0.2,1.9-0.5,2.7c-0.3,0.8-0.7,1.4-1.3,1.9c-0.6,0.5-1.2,0.7-2,0.7
				c-0.5,0-0.9-0.1-1.3-0.4c-0.4-0.2-0.7-0.6-0.8-0.9h-0.2c-0.7,0.9-1.7,1.3-2.8,1.3c-1.2,0-2.1-0.4-2.8-1.1c-0.7-0.7-1-1.7-1-3
				c0-1.4,0.5-2.6,1.4-3.4c0.9-0.9,2.1-1.3,3.5-1.3c0.6,0,1.2,0.1,1.9,0.2c0.7,0.1,1.3,0.2,1.7,0.4l-0.2,5c0,0.9,0.3,1.4,0.8,1.4
				c0.4,0,0.8-0.3,1-0.9c0.3-0.6,0.4-1.5,0.4-2.5c0-1.1-0.2-2-0.7-2.9c-0.5-0.8-1.1-1.5-1.9-1.9c-0.8-0.4-1.8-0.7-2.8-0.7
				c-1.4,0-2.6,0.3-3.6,0.8c-1,0.6-1.8,1.4-2.3,2.4c-0.5,1.1-0.8,2.3-0.8,3.7c0,1.9,0.5,3.3,1.5,4.3c1,1,2.4,1.5,4.3,1.5
				c0.7,0,1.5-0.1,2.4-0.2c0.9-0.2,1.7-0.4,2.5-0.7v1.9c-1.4,0.6-3.1,0.9-4.8,0.9c-2.6,0-4.6-0.7-6-2c-1.4-1.4-2.2-3.2-2.2-5.6
				c0-1.7,0.4-3.2,1.1-4.5c0.7-1.4,1.8-2.4,3.1-3.2c1.4-0.8,2.9-1.2,4.7-1.2c1.5,0,2.8,0.3,4,0.9c1.2,0.6,2.1,1.5,2.7,2.6
				C1179.3,295.9,1179.6,297.2,1179.6,298.6z M1169.2,299.9c0,1.4,0.6,2.1,1.7,2.1c0.6,0,1.1-0.2,1.4-0.6c0.3-0.4,0.5-1.1,0.6-2.1
				l0.1-2.2c-0.3-0.1-0.7-0.1-1.2-0.1c-0.8,0-1.5,0.3-2,0.8C1169.4,298.3,1169.2,299,1169.2,299.9z"/>
		</g>
	</g>
	<g>
		<path class="st43" d="M1092.5,28.4h-98.3c-8,0-14.5,6.5-14.5,14.5c0,8,6.5,14.5,14.5,14.5h7.2l7,7l7-7h77.1
			c8,0,14.5-6.5,14.5-14.5C1107,34.9,1100.5,28.4,1092.5,28.4z"/>
		<path class="st15" d="M1064.4,47.5h-64.7c-0.9,0-1.6-0.7-1.6-1.6l0,0c0-0.9,0.7-1.6,1.6-1.6h64.7c0.9,0,1.6,0.7,1.6,1.6l0,0
			C1066,46.8,1065.3,47.5,1064.4,47.5z"/>
		<path class="st15" d="M1044.2,38.6h-44.5c-0.9,0-1.6-0.7-1.6-1.6l0,0c0-0.9,0.7-1.6,1.6-1.6h44.5c0.9,0,1.6,0.7,1.6,1.6l0,0
			C1045.8,37.9,1045.1,38.6,1044.2,38.6z"/>
	</g>
	<g>
		<path class="st47" d="M1226.9,211.6c0,0-1.2,3.6-1.9,5.7c0,0,5.9-0.1,8-2.9l-2.2-5.3L1226.9,211.6z"/>
		<g>
			<polygon class="st59" points="1226,310.1 1226.5,312.3 1229.8,312.5 1229.1,309.7 			"/>
			<path class="st48" d="M1226.5,312.3c0,0-5.5,2.8-5.4,3c0,0.2,9.2-0.8,9.2-0.8l-0.6-2.1L1226.5,312.3z"/>
		</g>
		<g>
			<polygon class="st59" points="1253.5,305.5 1254.8,307.5 1257.9,306.5 1256.3,304.1 			"/>
			<path class="st48" d="M1254.8,307.5c0,0-4.1,4.6-4,4.8c0.1,0.2,8.3-4,8.3-4l-1.3-1.7L1254.8,307.5z"/>
		</g>
		<path class="st51" d="M1220,250.7c0,0-9.4,30.5,5.5,60h4.4c0,0-8.8-33.3,2.2-60.2L1220,250.7z"/>
		<path class="st51" d="M1228.1,251.8c0,0,1.4,31.9,25.3,54.6l4.1-1.5c0,0-19.5-28.4-18.2-57.5L1228.1,251.8z"/>
		<g>
			<path class="st59" d="M1223.8,179.9l0-1.9c0-0.1,0-0.2,0-0.2l-0.4-1.3l-1.1,0.3l-1.1-1c-0.5-0.4-1.2-0.3-1.5,0.3
				c-0.3,0.7-0.7,1.6-0.8,2.3c0,0.3,0,0.6,0.2,0.8l1.7,1.8c0.2,0.3,0.6,0.4,1,0.3l1.3-0.4C1223.6,180.7,1223.8,180.3,1223.8,179.9z"
				/>
			<path class="st60" d="M1240,221.2c0,0-12.2-13.1-13-18c-0.8-4.9-2.6-23.1-2.6-23.1l-3.8,0.7c0,0-1.3,26-0.1,29
				c1.1,3,8.5,18.3,13.3,19.7C1238.5,231,1241.8,226.3,1240,221.2z"/>
			<path class="st59" d="M1223,199.6c0,0-2.8,9.2-1,11.5c1.7,2.3,8.2,0.2,10.6-3.5c2.5-3.7,3-12-1.2-12.7
				C1227.2,194.2,1224,196,1223,199.6z"/>
			<path class="st60" d="M1239.5,253.2c0,0,2.5-26.4,2.5-33.6c0-0.3,0-0.6,0-0.9c-1.8-4.6-6.4-4.6-8.2-4.2c-1.8,0.4-9,2.7-8.9,2.9
				l0,0c-2.5,1.8-4.3,3.9-4.5,4.4c0,0-6.6,13.8-0.8,30.3L1239.5,253.2z"/>
			<path class="st59" d="M1204.6,181.3l-0.3-1.9c0-0.1,0-0.2-0.1-0.2l-0.6-1.3l-1,0.5l-1.3-0.8c-0.5-0.3-1.2-0.1-1.4,0.5
				c-0.2,0.8-0.4,1.7-0.4,2.5c0,0.3,0.1,0.5,0.4,0.7l2,1.5c0.3,0.2,0.7,0.3,1,0.1l1.2-0.6C1204.4,182.1,1204.6,181.7,1204.6,181.3z"
				/>
			<path class="st60" d="M1227.7,219.1c0,0-14.3-10.7-16-15.4c-1.7-4.7-6.6-22.3-6.6-22.3l-3.6,1.4c0,0,3.3,25.9,5,28.6
				c1.7,2.8,11.6,16.5,16.5,17.1C1228,229,1230.4,223.8,1227.7,219.1z"/>
			<path class="st48" d="M1233.2,194.9c0,0-7.3-3.1-10.8,3.3c-1.8,4,4,0.2,5.1,1.5c1.1,1.3-1.5,3.9-0.7,4.8c0.7,0.9,2-1.7,2.8-0.2
				c0.7,1.5-1.1,1.7-2.4,3.3c-1.3,1.7,1.1,4-0.7,5.5c-1.8,1.5-7,2.6-3.9,10.5c3.1,7.9-5.1,9.9-1.7,20.7c3.5,10.8,27.1,16.9,31.5,4
				c4.4-12.8-10.3-16-9.4-21.6c0.9-5.7,4.2-7.2-0.2-12.8c-4.4-5.7-7.2-9-5.9-12.7C1238.3,197.4,1234.8,194.9,1233.2,194.9z"/>
		</g>
	</g>
	<path class="st61" d="M1253.2,150.5c-8.7,0-15.8,7.1-15.8,15.8s7.1,15.8,15.8,15.8c8.7,0,15.8-7.1,15.8-15.8
		S1261.9,150.5,1253.2,150.5z M1245.2,165.1c0-1.1,0.9-1.9,1.9-1.9c1.1,0,1.9,0.9,1.9,1.9c0,1.1-0.9,1.9-1.9,1.9
		C1246.1,167,1245.2,166.1,1245.2,165.1z M1253.2,174.9c-2.5,0-4.6-1.9-5-4.3h9.9C1257.8,173,1255.7,174.9,1253.2,174.9z
		 M1259.2,167c-1.1,0-1.9-0.9-1.9-1.9c0-1.1,0.9-1.9,1.9-1.9s1.9,0.9,1.9,1.9C1261.2,166.1,1260.3,167,1259.2,167z"/>
	<polygon class="st42" points="1019,278.4 1018.1,276.6 1043.1,264.1 1074.6,264.6 1108.8,251.7 1135,251.7 1162.9,242.4 
		1163.1,242.4 1185.5,245 1198.1,238.4 1199.1,240.3 1185.9,247.1 1185.6,247.1 1163.1,244.5 1135.1,253.8 1109,253.8 1075,266.7 
		1074.8,266.7 1043.5,266.2 	"/>
	<g>
		<path class="st48" d="M1110.7,228.9c0,0,24.8,40.1,21.7,68l16.9,0.3l-7.2-4.2l2.1-0.3c0,0-6.2-43.3-12-58.6
			c-6.1-16.1-7.9-10.1-7.9-10.1L1110.7,228.9z"/>
		<path class="st48" d="M1101.8,226.4c0,0,1.4,27.9-0.7,38.5c-2.1,10.7-8.3,31.6-8.3,31.6l15.8,0.3l-4.2-2.9l-2.6-1.5
			c0,0,11.3-30.3,12.3-44.7c1-14.4,2.8-22.7,2.8-22.7L1101.8,226.4z"/>
		<g>
			<polyline class="st47" points="1134.2,144 1136.7,142.2 1137.9,137.9 1136.6,137.7 1135.8,139.2 1136.6,131.8 1135.3,132.1 
				1134,139.2 1132.5,142.6 1133.9,143.5 			"/>
			<polygon class="st47" points="1149.4,151.6 1149.8,148.5 1153.6,144.7 1154.4,145.9 1153,147.5 1160.3,145.8 1160.3,147.3 
				1153.6,149.9 1152.2,152.3 			"/>
			<g>
				<g>
					<g>
						<path class="st37" d="M1132.4,141.4c0,0-29.4,35.6-32.8,42.8c0,0-1.4,2.6-1.4,10s2.6,34.8,2.6,34.8l29.9,1.7
							c0,0-9.7-33.4-10-34.2c-0.3-0.9-5.1-6-9.7-7.1l25.1-45.3L1132.4,141.4z"/>
						<g>
							<path class="st47" d="M1113.8,185.8c0,0,1.2,3.7,1.9,5.9c0,0-6.1-0.1-8.3-3l2.3-5.5L1113.8,185.8z"/>
							<g>
								<path class="st47" d="M1118.4,174.3c0,0,1.8,10.5,0,12.9c-1.8,2.4-8-1.7-10.6-5.5c-2.6-3.8-3.1-12.4,1.3-13.2
									C1113.5,167.8,1117.4,170.4,1118.4,174.3z"/>
							</g>
						</g>
						<path class="st37" d="M1115.6,193.8c0,0,23.6-14.8,25.5-17.9c1.9-3,7.2-25.6,7.2-25.6l4.6,1.1c0,0-2.7,25.3-3.4,27.9
							c-0.8,2.7-23.9,27.3-29.2,27.3C1114.9,206.7,1113,199.8,1115.6,193.8z"/>
					</g>
				</g>
			</g>
		</g>
		<path class="st48" d="M1116.7,171.9c0,0,1.2-4.1-1.4-6.2c-2.6-2.1-7.1-1.7-7.7-1c0,1.2,2.8,1.9,2.1,2.6c-0.7,0.7-4.3,0-5.2,3.6
			c-0.9,3.6,0.3,4.3,0.3,4.3s-1.9,2.2,0.3,5.3c2.2,3.1,7.3,5.6,8.5,5.3c1.3-0.3,0.6-5.1,0.6-5.1s-2.9-0.3-3.1-2.2
			c-0.2-1.9,1.4-2.1,2.1-1.4c0.7,0.7,0.9,2.2,1.4,1.9s-0.2-4-0.2-4S1116.4,173.5,1116.7,171.9z"/>
	</g>
	<g>
		<path class="st43" d="M1130.6,277.3l-17.7,4.9c-4.9,1.3-7.8,6.4-6.4,11.3l3.3,12.2c1.3,4.9,6.4,7.8,11.3,6.4l5.3-1.5l5.2,5.2
			l1.9-7.1l5.3-1.5c4.9-1.3,7.8-6.4,6.4-11.3l-3.3-12.2C1140.5,278.8,1135.5,276,1130.6,277.3z"/>
		<g>
			<path class="st15" d="M1118.9,297.3c0.3,1.1-0.3,2.2-1.4,2.5c-1.1,0.3-2.2-0.3-2.5-1.4c-0.3-1.1,0.3-2.2,1.4-2.5
				C1117.5,295.6,1118.6,296.2,1118.9,297.3z"/>
			<path class="st15" d="M1127.8,294.8c0.3,1.1-0.3,2.2-1.4,2.5c-1.1,0.3-2.2-0.3-2.5-1.4c-0.3-1.1,0.3-2.2,1.4-2.5
				C1126.4,293.1,1127.5,293.8,1127.8,294.8z"/>
			<path class="st15" d="M1136.7,292.4c0.3,1.1-0.3,2.2-1.4,2.5c-1.1,0.3-2.2-0.3-2.5-1.4c-0.3-1.1,0.3-2.2,1.4-2.5
				C1135.3,290.7,1136.4,291.3,1136.7,292.4z"/>
		</g>
	</g>
	<circle class="st51" cx="1043.1" cy="264.6" r="3.3"/>
	<circle class="st60" cx="1163.2" cy="243.6" r="3.3"/>
</g>
<g>
	<path class="st62" d="M739,221.5l3.1,34.9l13.9,3.9l14-3.9l3.1-34.9H739z M766.4,232.9h-16.4l0.4,4.4h15.6l-1.2,13.2l-8.7,2.4v0
		h-0.1l-8.8-2.4l-0.5-6.7h4.3l0.3,3.4l4.8,1.3l4.8-1.3l0.5-5.5h-14.9l-1.1-13h21.5L766.4,232.9z"/>
</g>
<path class="st63" d="M860.6,46.5v12c0,1.6-1.3,2.9-2.8,2.9c-1.6,0-3.1-1.3-3.1-2.9v-12c0-1.6,1.5-2.8,3.1-2.8
	C859.3,43.6,860.6,44.9,860.6,46.5z M861.7,62.7c0,1.7,1.4,3.1,3.1,3.1h2.1l0,6.3c0,3.8,5.7,3.8,5.7,0v-6.3h3.8v6.3
	c0,3.8,5.7,3.8,5.7,0v-6.3h2.1c1.7,0,3-1.4,3-3.1V44.2h-25.6V62.7z M887.3,43.2h-25.8c0-4.4,2.6-8.3,6.6-10.3l-2-3.6
	c-0.3-0.5,0.4-0.8,0.7-0.4l2,3.7c3.6-1.6,7.8-1.5,11.2,0l2-3.7c0.3-0.4,1-0.1,0.7,0.4l-2,3.6C884.7,34.9,887.3,38.7,887.3,43.2z
	 M869.7,37.4c0-0.6-0.5-1.1-1.1-1.1c-0.6,0-1.1,0.5-1.1,1.1s0.5,1.1,1.1,1.1C869.2,38.5,869.7,38,869.7,37.4z M881.4,37.4
	c0-0.6-0.5-1.1-1.1-1.1c-0.6,0-1.1,0.5-1.1,1.1s0.5,1.1,1.1,1.1C880.9,38.5,881.4,38,881.4,37.4z M891.2,43.6
	c-1.6,0-2.8,1.3-2.8,2.8v12c0,1.6,1.3,2.9,2.8,2.9c1.6,0,3.1-1.3,3.1-2.9v-12C894.3,44.9,892.8,43.6,891.2,43.6z"/>
<rect x="463" y="226" class="st64" width="28" height="28"/>
<path class="st27" d="M481.8,247.9c0.5,1,1.5,1.6,2.6,1.6c1.1,0,1.8-0.5,1.8-1.3c0-0.9-0.7-1.2-1.9-1.7l-0.7-0.3
	c-1.9-0.8-3.2-1.8-3.2-4c0-2,1.5-3.5,3.9-3.5c1.6-0.1,3,0.7,3.7,2.1l-2.1,1.3c-0.3-0.7-0.9-1.1-1.7-1.1c-0.6-0.1-1.2,0.4-1.3,1
	c0,0,0,0.1,0,0.1c0,0.8,0.5,1.1,1.6,1.6l0.7,0.3c2.2,1,3.5,1.9,3.5,4.1c0,2.4-1.9,3.7-4.4,3.7c-2,0.1-3.9-0.9-4.8-2.7L481.8,247.9z
	 M472.5,248.1c0.4,0.7,0.8,1.4,1.7,1.4c0.9,0,1.4-0.3,1.4-1.7v-8.9h2.6v9c0,2.7-1.6,4-3.9,4c-1.7,0.1-3.3-0.9-3.9-2.4L472.5,248.1z"
	/>
<polygon class="st65" points="856.9,252.2 854.7,227 879.3,227 877.1,252.2 867,255 "/>
<polygon class="st66" points="867,252.9 875.2,250.6 877.1,229.1 867,229.1 "/>
<polygon class="st15" points="867,238.2 871.1,238.2 871.4,235 867,235 867,231.9 867,231.9 874.8,231.9 874.7,232.8 873.9,241.3 
	867,241.3 "/>
<polygon class="st67" points="867,246.2 867,246.2 863.6,245.3 863.3,242.8 861.7,242.8 860.2,242.8 860.7,247.7 867,249.4 
	867,249.4 "/>
<polygon class="st15" points="870.8,241.2 870.5,245.3 867,246.2 867,249.4 873.3,247.7 873.4,247.2 873.9,241.2 "/>
<polygon class="st67" points="867,231.9 867,233.9 867,235 867,235 859.6,235 859.6,235 859.5,235 859.5,234.3 859.3,232.8 
	859.3,231.9 "/>
<polygon class="st67" points="867,238.2 867,240.1 867,241.3 867,241.3 863.6,241.3 863.6,241.3 863.6,241.3 863.5,240.6 863.4,239 
	863.3,238.2 "/>
<path class="st68" d="M470.8,51.1h7.1l-3.6-8.6L470.8,51.1L470.8,51.1z M474.3,29.1L454.9,36l3,25.7l16.4,9.1l16.4-9.1l3-25.7
	L474.3,29.1z M486.5,61h-4.5l-2.4-6.1h-10.3l-2.4,6.1h-4.5l12.1-27.3L486.5,61z"/>
<path class="st69" d="M593,215.3c1.3,0.3,2.4,1,3.3,1.9c0.5,0.5,0.9,1.1,1.3,1.7c0,0.1-2.3,1.6-3.7,2.5c-0.1,0-0.3-0.2-0.5-0.5
	c-0.5-0.9-1.5-1.5-2.5-1.5c-1.6-0.1-2.6,0.7-2.6,2.1c0,0.3,0.1,0.7,0.2,1c0.4,0.7,1,1.2,3.1,2.1c3.8,1.6,5.4,2.7,6.4,4.2
	c1.1,2,1.4,4.3,0.6,6.4c-1,2.4-3.3,4-5.8,4.2c-1.3,0.2-2.7,0.1-4,0c-2-0.3-3.9-1.3-5.4-2.8c-0.5-0.6-1-1.3-1.4-2
	c0.2-0.1,0.3-0.2,0.5-0.3c0.2-0.1,1.1-0.6,2-1.1l1.5-0.9l0.3,0.5c0.5,0.8,1.2,1.4,2,1.9c1.6,0.9,3.6,0.8,5.1-0.3
	c0.8-0.8,0.9-2,0.3-2.9c-0.4-0.6-1.2-1.1-3.6-2.1c-1.9-0.6-3.6-1.7-5-3.1c-0.7-0.8-1.2-1.7-1.5-2.6c-0.2-1.1-0.2-2.3-0.1-3.4
	c0.6-2.6,2.7-4.7,5.4-5C590.3,215,591.7,215.1,593,215.3z M580.6,217.5l0,2.2h-6.9v19.6h-4.9v-19.6H562v-2.1c0-0.7,0-1.5,0.1-2.2
	c0,0,4.2-0.1,9.3,0l9.2,0L580.6,217.5z"/>
<rect x="0.9" class="st70" width="1279.1" height="300"/>
</svg>
