<?xml version="1.0" standalone="no"?><svg xmlns="http://www.w3.org/2000/svg" viewBox="0 0 1440 320"><path fill="#3690ff" fill-opacity="1" d="M0,160L30,154.7C60,149,120,139,180,144C240,149,300,171,360,154.7C420,139,480,85,540,106.7C600,128,660,224,720,224C780,224,840,128,900,112C960,96,1020,160,1080,160C1140,160,1200,96,1260,64C1320,32,1380,32,1410,32L1440,32L1440,320L1410,320C1380,320,1320,320,1260,320C1200,320,1140,320,1080,320C1020,320,960,320,900,320C840,320,780,320,720,320C660,320,600,320,540,320C480,320,420,320,360,320C300,320,240,320,180,320C120,320,60,320,30,320L0,320Z"></path></svg>